<svg id="Warstwa_1" data-name="Warstwa 1" xmlns="http://www.w3.org/2000/svg" viewBox="0 0 50 70">
  <title>agencja</title>
  <path d="M12.17,10.39C18,12.82,22.73,16.54,23.78,23.18,25,30.63,19.7,38.72,12.24,40.31,14,45.77,16.85,51.12,19,56.41c.68,1.65,3,5.92.25,6.71-2,.56-2.44-2.07-3-3.53-1.74-4.3-3.62-8.56-5.32-12.87-.83-2.11-2-4.23-2.7-6.39-.84-2.77,0-3.42,2.55-4.17,10-3,11.68-15,2.53-20.29-1.71-1-6.22-1.3-6.67-3.32s2.58-4.61,3.69-5.74A21.24,21.24,0,0,1,23.42.48c11.71-1,22.7,9.74,22.64,21.44a32.79,32.79,0,0,1-3.6,14.46c-2.48,4.8-6.77,8.39-9.12,13.26-2.57,5.32-2.25,11.53-5.8,16.49-1.17,1.64-8.92,6.43-8,1.42.32-1.81,2.89-1.92,4.13-3.15,1.78-1.75,2.79-4.52,3.48-6.87C28.86,51.63,29.72,47,33.8,42s7-9.06,8-15.47a21,21,0,0,0-3-14.54A17.82,17.82,0,0,0,26.87,4.27C22.54,3.66,14.34,5.82,12.17,10.39Z"/>
  <path d="M28.45,27.57a16.55,16.55,0,0,0-3.78-12.65c-1.16-1.32-2.62-2.22-3.83-3.44-1.65-1.65-1.33-3.37,1.44-2.82,4.39.87,7.76,6,9.11,9.74a20.53,20.53,0,0,1,.77,11.79A22.52,22.52,0,0,1,28,38.65c-1.56,1.89-6.9,7.08-9.8,5.74-4.14-1.92,4.83-5.88,5.94-7A15.6,15.6,0,0,0,28.45,27.57Z"/>
  <path d="M39.09,24.71c-.25,3.88-.7,7.87-2.72,11.3-1.12,1.89-5.32,5.76-4.62,1.06.43-2.89,2.72-5.54,3.21-8.59a22.35,22.35,0,0,0-.16-9.32,18.63,18.63,0,0,0-3.5-7c-1-1.25-3.76-4.89,0-3.75,2,.61,4.2,3.67,5.25,5.39C38.53,17.06,39,20.93,39.09,24.71Z"/>
  <path d="M8.23,17.12c4.84.61,8.7,5.22,8,10.1-.37,2.56-6.72,10.14-9,5.83C6.16,31,9.06,30.63,10.25,30c1.95-1.08,3.05-2.55,2.62-4.85-.37-2-1.59-3-3.24-4-.86-.53-2.9-.91-3.25-2S7.19,17,8.23,17.12Z"/>
  <path d="M21.65,50c-2.3,0-3-1.59-1.3-3.11a27.9,27.9,0,0,1,5.76-3C31,43.85,24.87,50.47,21.65,50Z"/>
  <path d="M22.78,56.45C18.41,56.45,22,52,24.3,52c1.33,0,2,.74,1.71,2.16C25.85,55,22.79,57,22.78,56.45Z"/>
  <path d="M10.09,25.4c.15,2.73-3.76,3.13-3.57-.14.07-1.24-.36-1.87,1.21-2.09A2.4,2.4,0,0,1,10.09,25.4Z"/>
</svg>
