<svg data-name="Warstwa 1" xmlns="http://www.w3.org/2000/svg" viewBox="0 0 300 600"><title>grajek</title><path d="M194.88 234.78a11.39 11.39 0 0 0-3.72 1.66c-.67.39-1.36.82-2 1.29 1.39-3.31 3.13-7.31 4.14-9.61h.13c1.3 0 6.66-.08 7.26-.08.34 0 1.05.59 1.38.63 2.2.22-1.44 3.18-2 3.54-1.13.69-2 2-3.25 2.29-.68.15-1.32.16-1.94.28z"/><path d="M46.38 107.4c.2 1.92.51 3.84.77 5.76a.8.8 0 0 0 .82.75c2.55.28 5.09.58 7.64.87 2.35.78 4.7 1.55 7.07 2.31l10.11 3.44v6.46c0 2.42.08 4.83.27 7.24.08 1 .12 2.06.17 3.1a13.37 13.37 0 0 0-.07 2.9c-.19 1.44-.41 2.89-.55 4.34a51.66 51.66 0 0 1-1.18 5.92c-1.46 7-1.47 14.28-1.87 21.39v.87l-.06 1a8.84 8.84 0 0 0 0 1.15v.1a7.8 7.8 0 0 0 .83 3.07.36.36 0 0 1 0 .09 7 7 0 0 0 2.27 2.44c1.86 1.27 3.77 2.46 5.7 3.6 5.94 3.5 11.92 6.94 17.84 10.49l6.89 4 3.51 2.07c.46.27 1.13.56 1.7.91l.38.27 42.1 29a61.48 61.48 0 0 0 7.81 5.48c2.76 1.36 3.87-.23 8 .75s5.94.69 9 1.08a39.05 39.05 0 0 1 7 2.07 4 4 0 0 1 1.15.16 2.32 2.32 0 0 0 1.87-1.3l9.23-17.64a30.3 30.3 0 0 0 1-4.31c.17-1.14 0-3.27-1.72-2.63a7.47 7.47 0 0 0-2.74 2l-.22.23c-.83.92-1.61 1.89-2.39 2.82a3.69 3.69 0 0 1-1.38-.51 2.94 2.94 0 0 1-1.59-1.55c-8-15.88-16.07-31.39-24.11-47.26-2.14-4.22-4.79-8.54-6.34-13-.48-1.39-1.78-2.84-2-4.3 0-.23-.18-2.52-.41-2.52 1 0 14.17 4.38 15.52 4.81 6.26 2 12.4 4.35 18.59 6.56 8.87 3.16 17.78 6.2 26.71 9.21q8.13 2.75 16.28 5.42c5.1 1.68 8.75 2.46 13.66 4.67.31.13 2.19.57 2.14 1 3 .55 8 1.49 10.24 3.61 1.32 1.25.24 2.63-.21 2.12-1.32-1.5-6.35-3.54-10.07-4.26a8 8 0 0 0 .48 2c.25.52.67.8 1.58 1.29l.56.31c3.7 2 7.38 4 11.08 5.92l2-1.23-1.37-7-2.26-8c1.08-.18 3.06 5.54 3.06 5.54.9 3.23 1.93 5.92 2.47 8.8.26 1.42-1.08 2.32-2.29 2.75 2 1 3.33 1.73 5.36 2.73a2.27 2.27 0 0 0 1.74.4 3.76 3.76 0 0 0 .94-.52 1.13 1.13 0 0 0 .39-.36.91.91 0 0 0-.07-.86c-.21-.39-2.08-3.55-2-3.6L266 184a8.86 8.86 0 0 1 0-4.68s1.43 5.89 2.15 8.18c.45 1.44 1.1 3.38 1.42 4.51.66.2.69.35 1.14.5l3.54 1.14 1.83.58a56.26 56.26 0 0 0 6.49 2.08 2.18 2.18 0 0 0 2.77-1.53 2.57 2.57 0 0 0-1.23-3.2 13.4 13.4 0 0 0-1.51-.64 10 10 0 0 1-1.32-.73 78.15 78.15 0 0 0-7.23-4.11 2.41 2.41 0 0 1-1.54-2.26c0-.58-.26-1.13-.28-1.69a.9.9 0 0 1 .3-.73 1.48 1.48 0 0 1 .62-.18c.52-.06 2.54 0 2.72-.5s-.72-1.08-1-1.37c-1-.87-2-1.76-3.11-2.58a23.13 23.13 0 0 0-2.52-2 3.27 3.27 0 0 0-2.58-.37 1.54 1.54 0 0 1-.55.14 1.19 1.19 0 0 1-.81-.57 15.11 15.11 0 0 1-1.66-2.79l-.82-1.68c-1.92-3.92-3.91-7.81-6.1-11.58s-4.65-7.17-7.08-10.65c-2-2.82-4.11-5.54-5.91-8.48a38.89 38.89 0 0 0-3.81-5.19 53 53 0 0 0-7.47-9.14c-.3-.3-.58-.61-.89-.9-2.49-2.61-4.74-5.42-7.31-8a60.41 60.41 0 0 0-7.13-6.06c-1.18-.86-2.33-1.76-3.58-2.53s-2.46-1.14-3.56-1.88a27.7 27.7 0 0 0-8.54-3.48 1.51 1.51 0 0 0-.63-.24c-5.62-1.12-11.25-2.28-16.84-3.54-5.32-1.21-10.8-2-16.11-3.1a184.25 184.25 0 0 0-33-3.51 11.69 11.69 0 0 1-2.46-.24l-.3-.59a12.15 12.15 0 0 1 2.72-4.1 6.12 6.12 0 0 1 3-1.69c.87-.21 1.75-.43 2.61-.7a3.56 3.56 0 0 0 2.76-3.9 2.06 2.06 0 0 0-.1-.83 5.14 5.14 0 0 1 .24-4.43 3.22 3.22 0 0 0 .17-1.44v-3.55a6.32 6.32 0 0 1 1.63-4.38c.76-.85 1.41-1.82 2.12-2.73l.31-.38a1.92 1.92 0 0 0 .09-2.5c-.7-1.11-1.4-2.24-2.14-3.33s-1.36-1.93-2.06-2.89q-1.69-2.36-3.42-4.7a1.74 1.74 0 0 1-.39-1.73 6.9 6.9 0 0 0 .16-1.65 2.35 2.35 0 0 0-1.05-2.48c-.52-.29-.62-.91-.93-1.36-.65-.91-1.23-1.86-1.88-2.75-.15-.2-.36-.56-.72-.38a.68.68 0 0 0 0-.69c-.33-.6-.66-1.21-1-1.8a.49.49 0 0 0-.57-.24.53.53 0 0 0 .12-.14 2 2 0 0 0-.49.07c-2.1.62-2.88 3.12-3.71 4.92a37.29 37.29 0 0 1-2.91 4.85 4.45 4.45 0 0 0-.61 2c-.07.43-.12 1.89-.45 2.17 2.68-2.33 9.18-4.76 9.18-4.76s1 1.37 0 1.46c-3.33.32-6 2.38-8.42 4.52a.78.78 0 0 1-1.11-.09c-.12.38-.23.76-.36 1.13l-.05.08c-1.27 5.5-.87 11.38-.6 17 .31 6.37 2.24 12.64 4.16 18.68.14.45-1.35.66-1.49.22-1.89-6-3.65-11.55-4.17-17.8a79 79 0 0 1 .32-10.09 44.76 44.76 0 0 1 .64-6.22c.4-2 1.27-3.89 1.51-5.94-3.18 4.78-3.37 10.83-4 16.35 0 .46-1.5-.17-1.5-.17-.23-.08 0-1.58 0-1.75A43 43 0 0 1 122 51.89c.71-2.08 1.54-4 2.39-6 .43-1 1.21-2.39 1.72-3.39.8-1.57 2-2.83 2.79-4.39a7.7 7.7 0 0 1 4.21-3.89c-.28.09-1.13-1.36-1.42-1.52a4.28 4.28 0 0 1-.67-.6 8 8 0 0 0-.77-.35c-.05-.06-2.89 3-3.16 3.27a15.2 15.2 0 0 0-1.45 1.74c-.4.57-.66 1.26-1.06 1.82s-1-.22-1-.65a1.61 1.61 0 0 1 .28-.61 24 24 0 0 1 5.6-6.39c-.7-.39-1.13-.51-1.83-.89a.93.93 0 0 0-.87-.15 1 1 0 0 0-.35.52 10.49 10.49 0 0 1-1.38 2.23c-.84 1.13-1.69 2.25-2.48 3.41-.65 1-.78 3.3-1.27 4.37a36.8 36.8 0 0 0-1.79 4.9c-.54 2.26-1.06 4.24-1.39 6.54-.58 3.93-.1 9.46-.09 13.42 0 .47-1.93-1.59-1.94-2.06 0-3.8-.31-7 .11-10.83a67.93 67.93 0 0 1 2-8.53 51.62 51.62 0 0 1 2.56-7.86c.51-1.23 1.08-2.44 1.66-3.64q.45-.91.9-1.8c.14-.29.59-1.59.87-1.69-2.92 1.05-4.64 4.45-5.87 7.08a51.7 51.7 0 0 0-3.3 11.16c-.07.47-1.54-1.28-1.54-1.28a44.57 44.57 0 0 1 3.85-11.12c1.1-2.27 2.87-4.93 5-6.19-3-.06-5.41 1.61-7.93 2.93a46 46 0 0 0-4.09 2.49c-.07 0-.76 6.52-.75 7.92 0 2.73.29 7.21.3 9.94 0 .47-1.21-1.75-1.21-1.75s-1.32-9.21.61-15.34c-1 .71-1.89 1.46-2.82 2.25-2.71 7.42-1.46 16.47-1.1 23.92.16 3.38 1.89 6.8 2.77 10 1.3 4.73.33 9.53 1.75 14.22.19.63.39 1.26.57 1.9.47 1 1.14 4.27 1.47 5.37.13.46-1.08.5-1.08.5s-1.15-4.54-1.37-5.39c-.45-1.73-2.19-2.89-2.92-4.52a75.08 75.08 0 0 1-4.11-14c-1.64-7.35-2-15.93-2-23.46l1 .48a112 112 0 0 0 2.38 23.39 93.27 93.27 0 0 0 2.93 10.27 31.18 31.18 0 0 0 1.65 3.57c-.68-2.46-.51-4.72-1-7.32-.51-2.44-.76-3.71-1.54-7.28-.5-2.3-1.8-5.39-2-7.74a80.61 80.61 0 0 1-.05-14.9 40.35 40.35 0 0 1 1.73-8.19c-6 5.28-11.09 12.66-12.37 20.61-.19 1.22-.61 2.39-.81 3.62a8.94 8.94 0 0 0-.11 1.27 6.87 6.87 0 0 0 .78 1.92c.33.8.92 1.6 1.25 2.4a6.09 6.09 0 0 0 1.26 2.06 2.66 2.66 0 0 1 .5 1c-.08.28-1 .24-1.27 0a12.9 12.9 0 0 1-1.69-2.5 3.62 3.62 0 0 1-1.04-1.4 9.21 9.21 0 0 0 0 1.39c0 .68-.1 1.28 0 2s.19 1.6.3 2.39a37 37 0 0 0 .91 4.55c.91 3.32 2.69 6 4.59 8.8 2.19 3.21 3.69 6.39 5.6 9.78 2.61 4.61 5.69 9 8.71 13.34 4.6 6.65 9.8 13.29 13.61 20.43.46.76 1.06.23 1.17.27.4.15-6-15.39-10.19-23.83a.77.77 0 0 1-.07-.39 58.6 58.6 0 0 1-2.58-5.68c-.67-1.39-2.2-4.78-2.2-4.78l1.32-.53s1.57 2.63 2.14 3.86c.11 0 2.32 5.21 2.4 5.35s13.51 29.56 13.54 30.12c0 0-2.64-.64-2.66-.6l-14.08-5.06 1.23-1.11c1.86.61 6.87 2.19 8.74 2.78-2.46-5.22-6.61-9.62-9.7-14.49l-16.56-26.1a1.16 1.16 0 0 1-.62 1.34 3.47 3.47 0 0 1-1.57.3 52.63 52.63 0 0 0-13.8 2.39 9.12 9.12 0 0 0-3.68 1.87c-1.44 1.37-1.92 3.42-2.34 5.35-.93 4.25-1.59 7.28-2.52 11.52L92 118.45l9.17 3.22 4.58 1.61c1.19.42 3.28.77 4.12 1.61a10.31 10.31 0 0 0-.68 1.49l-37.34-12.49-.46-.24-1.08-.43c-1.93-.56-3.86-1.14-5.79-1.72-2.78-.9-5.48-2-8.2-3.07a.82.82 0 0 0-.74-.05c.11-.15-.1-.33-.27-.4a48.68 48.68 0 0 0-4.81-1.78c-.68-.2-1.36-.38-2-.53a2 2 0 0 0-1.4.14 1.49 1.49 0 0 0-.72 1.59zm52-46.35c-.05 1-.68 1.94-.85 1.48-.75-1.9-.85-11.87-.85-12.29s1.06-2.24 1.1-1.64c.06.94.73 9.4.59 12.45zm5.89 24.87c-1.46-2.06-2.78-8.91-2.79-9.3s1.24-.49 1.25 0c0 .31 1 5.76 2.72 8.48.1.39-.95 1.16-1.19.82zm4.09-49.24c0-.08.07-.16.1-.23-.04.07-.07.15-.11.23zm3.47 36c.07.47-.73 0-.79-.44-.61-4.72-2.47-10.92-3.23-15.62-.07-.46 1.17-.34 1.25.12.74 4.68 2.15 11.2 2.76 15.92zm17.55-13.23a19.83 19.83 0 0 0 3.7 5.57c.64.69-.76 1.33-1 1.07a67.29 67.29 0 0 1-4.1-6.2c-.12-.61 1.02-1.31 1.39-.46zm7.9-5.54a14.23 14.23 0 0 0-5 2.19c-.53.4-1.12-1.15-.92-1.44.56-.82 1-1.63 1.49-2.38a7.23 7.23 0 0 1 3-2.85c.84-.41 1.62.82.78 1.23s-.78 1-.56 1.86c.09.36.54 0 .78 0 .89-.26 1.33 1.14.42 1.37zM126.2 66.6c-.77-.52.46-1.44.69-1.28a105 105 0 0 1 8.73 7.13c.67.66-1 1.07-1 1.07s-5.41-4.86-8.42-6.92zm7.9 45.56a106.66 106.66 0 0 1-4.94-18.68c-.09-.46 1.14-1.41 1.22-1a149.33 149.33 0 0 0 6.21 21.91c.18.48-2.32-1.8-2.49-2.23zM155.46 93l-.12-.12zm24.72 121.22l-17.86-35.05-14.92-30.12 3.7 3.79 30.69 60.94zm-6.94-10.57l-7.09-10.74-21.7-42.86.75-2zm-15.48-16.95c.05-.33.19-.52.46-.49a1.34 1.34 0 0 1 .75.52 20.18 20.18 0 0 0 1.52 3.47l3.44 6.66c1 2 2.32 3.71 3 5.84 1.09 3.4 3.11 6.2 5 9.17.77 1.2 1.39 2.49 2.18 3.68a1.88 1.88 0 0 1 .44 1.13c-.05.75-1 1.74-1.47 2.28a5.2 5.2 0 0 1-2.22 1.57c-2.09.7-2.67 2.82-4.48 3.79-1.23.65-3.11.42-3.26-1.23a5.69 5.69 0 0 1 .2-1.63c.85-4.24-.44-8.16-1.51-12.25-.87-3.32-1.4-6.7-2-10.07-.28-1.59-.52-3.18-.8-4.78-.23-1.33-.58-2.66-.72-4a16.18 16.18 0 0 1-.53-3.64zm-5-13.37zm-.06 0zm-12.12-24.29l1.85 1 10.76 19.77s14.64 28.27 15 29.2c.29.66 9.11 16.22 9.11 16.22l-1.52.59zm-3.27-21.36s-4.64-12.41-4.7-12.6c.18.17 1.91 1.31 1.95 1.38a41 41 0 0 1 4.76 10.62s1.68 8.16 1.58 8.27c.4.08 3.31.59 4.32.86.13 0-3.35-11.29-3.35-11.29l1.35-.55c1.46 3.82 3.83 12.39 3.81 12.41 2 .64 6.76 2.73 7.23 2.88l1.41.24a49.06 49.06 0 0 0-.32-6c-.37-2.23-.78-4.45-1.32-6.64-.79-3.19-2.3-6.07-3.16-9.22a29.77 29.77 0 0 0-1.28-3.69c2.42-.69 5.44.14 7.87.39 3 .3 5.34 1.51 7.84 1.79 2.24.24 4.49.46 6.73.66 8.49.77 17 1.33 25.51 1.27a1.86 1.86 0 0 0 .81-.12.65.65 0 0 0 .42-.64 7.25 7.25 0 0 1 2.33 1.9c.67.68 1.47 1.1 2.17 1.72 1.08 1 1.61 2.41 2.51 3.53a32.45 32.45 0 0 0 3.14 3.28c1.55 1.48 2.94 3.14 4.42 4.7a86.14 86.14 0 0 0 8 7c3.85 3.18 6.77 7.28 10.47 10.61a59.32 59.32 0 0 1 5 4.89c2.22 2.52 5.41 4.7 7.35 7.59-.26-.14 2.64 3.34 2.81 4.13a3.59 3.59 0 0 1-.57 2.31 1.9 1.9 0 0 1-.75.92 5 5 0 0 1-1.29.17c-.91.17-1.46.84-2.44.63a14.73 14.73 0 0 1-4.93 1 3.3 3.3 0 0 0-2.28 1.43c-.11.58 5.48 1.48 5.48 1.48l-1.31 1.29s-7.32-1.33-6.65-2.56a6.12 6.12 0 0 1 2.58-2.57 23.44 23.44 0 0 1 4.08-1.06l-.26-.09-.37-.13-82.68-28c-3.42-1.12-6.75-2.53-10.24-3.44l-5.56-1.41-.13-1c.35-1.61-2.3-8.27-2.33-8.33zm-2.71 7.12c-1.66-4.05-3.8-7.45-5.8-11.34-2.26-4.39-2.92-8.13-5.11-12.57s-5.22-9.83-6.52-14.6A76.17 76.17 0 0 1 114 74.61s1.52.36 1.52.83a69.64 69.64 0 0 0 7.73 32.15 15.71 15.71 0 0 1 1 1.91c-1.47-4.8-2.31-9.18-3.82-14C119 90.94 117 86.3 117 81.4l1.22.39c0 3.78 1.55 7.48 2.8 10.94a106.71 106.71 0 0 1 2.83 10.56c1.78 7.13 3.4 14.39 6.87 20.92 2 3.72 4.32 7.22 5.84 11.15zm-30.7 51.37l.16-.08-.16.08zm-14.16-10.32c.41-1.75.8-3.49 1.21-5.24a103.73 103.73 0 0 0 2.49-11.94c.18-1.53.3-3.07.36-4.61a15.29 15.29 0 0 1 .25-4.06 9.46 9.46 0 0 0 0-3.23.81.81 0 0 1 0-.38c.3-.72 1.73-.49 1.88.23 1.54 7.37 3.21 14.64 5.47 21.83 1.23 3.93 2.2 5.72 3.47 9.61 2.32 2 7 4.58 9.56 6.29s7.71 6.18 7.71 8.06a49.48 49.48 0 0 1-5-3.07c-4.24-2.54-9.62-5.91-14-8.69-2-.65-3.79-2.22-5.77-2.72-1.09-.27-2.21-.4-3.31-.62-.3-.06-.6-.12-.89-.2a31.64 31.64 0 0 1-3.43-1.26zm-13.17 5.9z"/><path d="M109.69 205.6a35.23 35.23 0 0 1 1.16 4.26 11.82 11.82 0 0 0 .69 2 .23.23 0 0 0 .07.22 3.86 3.86 0 0 1 .2 1.28c0 1.19.64 2.4.94 3.61.85 3.39 2.18 6.61 3.2 9.94 1.31 4.32 2.56 8.65 3.74 13 1.31 4.9 2.68 9.78 4 14.67A9.46 9.46 0 0 0 124 256a2.39 2.39 0 0 1-.46 2.54c-3.23 3.87-3.84 8.39-3.35 13.16.58 5.54 1.29 11.07 2 16.6 1.1 8.51 3.08 16.85 4.24 25.31a71.69 71.69 0 0 1 .07 14.05 316.19 316.19 0 0 0-.12 43.42c1.11 15.15 1.73 30.33 2.15 45.51.82 29.42.86 59.22 2.1 88.39 0 .46 0 .92.05 1.38.11 3.23.13 6.47.55 9.68a16 16 0 0 1 0 2.3c0 2.67 0 5.35.07 8 .38 13-.92 26.36 3.86 38.75a1.76 1.76 0 0 1 1.19 1.23c1.22.8 2.46 1.59 3.7 2.37.42.27.72.08.89-.44.1-.28 0-.55.05-.84a.47.47 0 0 1 .06-.15c.42-.76.67-.92 1.47-.69 2 .59 4 1.29 5.94 2 8.28 3 16.65 5.78 25 8.71l.36.13a3.3 3.3 0 0 0 1.5.2 2.45 2.45 0 0 0 1.09-.42 4.19 4.19 0 0 0 .66-.57l-.56-.44c-1.94-1.6-3.63-3.44-5.79-4.72a.71.71 0 0 0-.59-.51l-1.49-1.19a14.39 14.39 0 0 0-1.55-1.47c-2.06-.92-4.09-2-6.12-2.9-3.32-1.56-7.5-5.57-8.26-9.31-.18-.91 1.74-2.15 1.93-1.23.8 4 5.22 7.37 8.61 9l5.51 2.59c.7 0 .87.31 1.57.2s1.35.54 2 .54l1.36-.18h.86l.81.16a11.23 11.23 0 0 0 1.16 0c4.18-.39 9.28.67 13.65.88 1 0 6.74-1 7-.93-2.63-1-5.09-1.94-7.6-2.92-1.06-.41-2.11-.87-3.15-1.34-2.73-1.25-5.59-2.12-8.32-3.32a9.36 9.36 0 0 0-1.93-.66c-1.14-.22-1.85-.67-1.81-1.79.76-21 1.26-42.07 3.23-63 1.76-18.75-.55-38.6 3.95-57 4.14-16.86 7.64-33.88 11.4-50.83.12-.54.24-1.08.38-1.61 3-11.49-.33-19.85-3.35-31-2.89-10.63-5.82-21.25-8.66-31.89-5.68-21.28-11-42.68-14.78-64.38q-.81-4.72-1.54-9.46a11.56 11.56 0 0 1-.14-1.86 14.08 14.08 0 0 0-.49-4.08 1.11 1.11 0 0 1 0-.57c.28-1 .15-.67 0-1.66a16.39 16.39 0 0 0-2-.15c-1.2.07-2.92 1.29-6.36-1s-3.71-4.11-6-5.83c-2-1.45-31.67-21.37-40.31-27.16zm38.89 343.88c.28-2.7.18-5.41.48-8.1.34-3 1.07-6 1.57-9a52.83 52.83 0 0 0 .28-16.74.57.57 0 0 1 .12-.48c0-10.23.93-20.41 1-30.63a.6.6 0 0 1-.45-.65c.28-5.76.31-11.59 1.18-17.3.52-3.49 1.63-6.86 2-10.38a81.09 81.09 0 0 0-.1-9.48v-.08a157.31 157.31 0 0 1 1.11-19.15c.42-4.31 1.1-8.6 1.09-12.94s-.86-8.81-1-13.25c-.16-6 .13-12 .38-18 .43-10.48.41-20.88 1.48-31.35.8-7.67 2.4-15.25 2.5-23a30 30 0 0 1 .29-3c.1-1 .2-2 .29-3a235.74 235.74 0 0 0 .93-24.5c-.09-7.83-1.72-16.17-.48-23.91.15-.93 2.36-.59 2.21.34a18 18 0 0 0 .34 5.84c1.13 5.92-.07 12.61-.13 18.63q-.07 7.62 0 15.24c0 4.81-1.08 9.53-1.14 14.34-.1 6.95-1.37 13.76-2.24 20.64-1.84 14.4-1.77 29.15-2.11 43.66-.09 3.64 0 7.25.14 10.89.12 3.26 1 6.37.81 9.65-.15 3.57-.45 7.14-.79 10.7-.68 7-1.81 14.31-1.41 21.4.07 5.89.2 11.15-1.1 16.92-1.54 6.86-1.58 13.92-1.91 20.92a.62.62 0 0 1 .44.64c-.06 10.41-1 20.78-1 31.2a.79.79 0 0 1-.07.32c.8 5.08.37 10.44-.18 15.53-.34 3-1.07 6-1.57 9s-.34 6.26-.67 9.39c-.17.96-2.39.61-2.29-.31z"/></svg>