<?xml version="1.0" encoding="utf-8"?>
<!-- Generator: Adobe Illustrator 23.0.1, SVG Export Plug-In . SVG Version: 6.00 Build 0)  -->
<svg version="1.1" id="Warstwa_1" xmlns="http://www.w3.org/2000/svg" xmlns:xlink="http://www.w3.org/1999/xlink" x="0px" y="0px"
	 viewBox="0 0 500 570" style="enable-background:new 0 0 500 570;" xml:space="preserve">
<g id="gruby_2_">
	<path d="M90.4,254.6c-1.3,1.1-1.8,3.3-1.7,4.9c0,0.6,0.6,2.8,0.5,2.8c0.4,0.1,0.7,0.1,1.2,0.1C89.8,259.9,89.8,257.1,90.4,254.6z"
		/>
	<path d="M51.7,226.3c1.2-0.6,2.4-1.2,3.6-1.9c1-0.6,1.7,0.1,2.5,0c0.6-0.1,0.5,0.5,0.7,0.7c0.5,0.5,0.7,0.6,1.2,0.2
		c1.2-0.8,2.4-1.4,3.4-2.5c0.7-0.7,1.4-1.1,2.3-1.4c0.2-0.1,0.6-0.4,0.8-0.6c-0.2,0.1,2.7,3.1,3,3.4c1.2,0.7,4,1.1,4.9-0.4
		c1.3-1.9-2.3-7.8,0.8-9.1c0.5-0.2,1-0.1,1.6,0c3.1,0.5,8.6-3.1,11.5-4.3c1.8-0.7-0.6-2.7-1.6-3.1c-1.9-0.8-4.8-0.6-6.9-1.2
		c-1.7-0.5-2.2-2.4-1-3.7c0.7-0.8,1.2-1.7,2.4-1.8c0.1,0,0.4-0.2,0.5-0.4c1.2-2.1,5.1-3.9,6.9-5.3c3.9-2.9,8.3-7.7,13-9.3
		c0.5-0.1,0.8-0.4,1.3-0.2c1.1,0.2,2.2,0.4,3,1c1.7,1.2,3.5,1.1,5.3,0.6c6.4-1.6,12.6-3.4,19-4.6c2.1-0.4,3.5-1,4.5-3
		c0.8-1.8,1.8-3.5,2.9-5.2c1.7-2.9,3-6,4.7-8.9c2.1-3.9,4.2-7.5,5.6-11.7c0.6-2.1,1.6-4.3,1.7-6.4c-0.1,0.1-0.2,0.1-0.4,0.2
		c-1,1-2.2,1.6-3.4,2.1c-1.1,0.5-2.3,0.8-3.4,1.2c-1.3,0.5-2.8,0.5-3.9,1.4c0,0-0.1,0-0.1,0.1c-0.1,0-0.4,0.1-0.5,0.1
		c-1.4,0.1-2.7,0.7-4,1.3c-7,3.3-15,4.8-22.6,6.2c-4.6,0.7-9.3,1.6-13.8,3.1c-2.2,0.8-4.3,1.8-6.4,3c-1.1,0.7-4,4.5-5.1,4.6
		c-0.8,0.1-1.3,0.8-1.9,1.3c-1.8,1.6-3.7,3.3-5.4,4.9c-2.8,2.8-4.8,6-7,9.3c-1,1.4-1.9,3-3,4.3s-2.7,2.1-3.4,3.6
		c-0.2,0.4-0.4,0.8-0.7,1c-0.2,0.1-0.5,0.1-0.7,0.2c-1.4,0.2-2.5,1.1-3.7,1.8s-2.5,1.2-3.9,1.8c-1.1,0.5-2.3,0.8-3.4,1.2
		c-0.4,0.1-0.7,0.5-0.6,1c0.1,0.6,0.1,1.2,0.2,1.8c0.2,2.9,1.1,7-0.2,9.7c-0.7,1.4-1.7,2.7-2.5,4c-1.1,0.5-1.2,1.4-1.6,2.4
		c0,0,0,0,0,0.1c-0.1,0.4-0.2,0.7-0.5,1.2l0,0l0,0c-0.1,0-0.1,0-0.2,0c-0.1,0-0.2,0.1-0.2,0.2c-0.4,0-0.6,0.1-0.7,0.5
		c-6,3-11.8,6.8-17.6,10.1c-0.6,0.4-1.3,0.7-1.7,1.3c-0.7,0.8-1.6,1-2.5,0.7c-0.4-0.1-0.8-0.1-1.2-0.2c-7.8-1.8-17.5,2.3-15,12
		c0.6,2.2,1.9,4.1,3.6,5.6c3.1,2.4,7.7,2.9,11.2,1.1c0.8-0.5,1.7-1,2.4-1.6c2.4-2.1,4.1-5.1,4-8.2c0-2.4,0.1-3.7,2.4-4.8
		C35.1,234.8,51.2,226.6,51.7,226.3z"/>
	<path d="M273.8,27.8c-3.5-0.5-7.1-0.4-10.6-0.6c-0.5,0-1-0.1-1.4-0.1c-3.6,0-7.4,0-11,0c-1.2,0-2.4-0.1-3.6-0.1c-3,0-6,0.1-9.1,0.1
		c-1,0-1.8,0-2.8,0s-1.9-0.1-2.9-0.1c-0.5,0-0.8,0-1.3,0.1c-0.1,0-0.2,0-0.4,0s-0.6,0-0.8,0c-0.5,0-1,0-1.4,0s-0.8,0-1.2,0
		c-1.3,0-2.5,0-3.9-0.1c0,0,0,0-0.1,0c-0.4,0-0.7,0-1-0.4c0-1.1,0-2.2,0-3.1c0-0.5,0-1.1,0-1.6c0-1,0-1.8,0-2.8
		c0-0.6,0.2-0.8,0.8-0.8c0.4,0,0.6,0,1,0c0.6,0,1.2,0.1,1.7-0.2c0.7-0.1,1.4-0.1,2.1,0c0.2,0.4,0.5,0.4,0.7-0.1v-0.1
		c0.7,0.1,1.3,0.1,2.1,0.2c0.2,0.2,0.5,0.2,0.8,0.2c0.6,0,1.3,0.1,1.9-0.1c0.6,0,1.2,0,1.8,0c1.8,0.1,3.6-0.1,5.3,0.5
		c0.2,0.1,0.7,0.1,1,0c1.6-0.4,3-0.2,4.6-0.1c0.4,0,0.8,0,1.2-0.2c1.4,0.2,2.8,1,4.2,0.1c0,0,0.1,0,0.2,0c2.1,0.5,4.1,0,6.2,0.6
		c0.6,0.1,1.2,0.1,1.8,0c1.8,0.1,3.6,0.1,5.6,0.4c0.6,0.1,1.2,0,1.8,0c0.6,0,1.2,0.1,1.8,0.1c0.6,0,1.2,0.2,1.7-0.1
		c-0.1-0.5-0.6-0.8-1-1c-0.6-0.4-1.3-0.6-2.1-0.8c-2.1-0.7-4.2-1-6.4-1.6c-2.2-0.5-4.3-0.8-6.5-1.2c-1.8-0.4-3.7-0.6-5.6-1
		c-1.4-0.2-2.9-0.2-4.3-0.6c-3.9-1-7.8-1.6-11.8-2.2c-1.3-0.2-2.7-0.5-4-0.7c-0.6-0.1-1-0.4-1.2-0.8c-0.1-0.2-0.2-0.5-0.4-0.7
		c-0.1-0.1-0.1-0.2-0.2-0.4c-1.3-2.4-3.3-4-6.2-4.2c-0.7-0.1-1.1-0.4-1.3-1c-0.4-0.7-0.7-1.4-1.1-2.2c-0.1-0.2-0.2-0.5-0.4-0.6
		c-0.1-0.1-0.2-0.2-0.5-0.4c-0.1,0-0.2,0-0.2,0.1s-0.1,0.1-0.1,0.2c-0.4,1-0.7,2.1-1.1,3c-0.2,0.6-0.5,0.8-1.1,1
		c-1.2,0.1-2.2,0.5-3.3,0.8c-1.1,0.5-2.2,1.1-2.9,2.1c-0.1,0.2-0.2,0.4-0.1,0.6c-0.2,0-0.4,0.2-0.5,0.4c-0.2,0.7-0.8,1.1-1.7,1.2
		c-0.6,0.1-1.2,0.2-1.8,0.1c-0.6-0.1-1.2-0.1-1.8,0c-1.4,0.4-3,0.6-4.6,0.6c-1.7,0.1-3.4,0.4-4.9,0.5c-2.2,0.1-4.5,0.2-6.6,0.4
		c-0.4,0-0.7,0-1.2,0.1c-1,0.1-2.1,0.1-3,0.5c-0.5-0.1-1-0.1-1.6-0.1c-0.5,0-1,0.1-1.4,0.1c-0.6,0.1-1.3,0.2-1.9,0.2
		c-1.8,0-3.5,0.2-5.3,0.5c-0.2,0-0.6,0-0.8,0c-0.5,0-1,0-1.3,0.4c-1.1,0-2.3,0-3.4,0c-0.4,0-0.7,0.1-1,0.5c-1.3,0.1-2.7,0.2-4,0.4
		c-0.1,0-0.2,0-0.4,0c-0.8,0.1-1.6,0.2-2.5,0.6c1.4,0.4,2.9,0.5,4.3,0.6c1.1,0,2.2,0.1,3.4,0.1c1.3,0.6,2.8,0.4,4.1,0.2
		c0.5,0.1,1.1,0.1,1.6,0.2c0.1,0.1,0.2,0.1,0.4,0c0.2,0,0.6,0,0.8,0c0.6,0.4,1.3,0.2,1.9,0.2c1.4,0,3-0.1,4.5,0.1
		c1.1,0.1,2.3,0.2,3.4,0.2c2.1,0.1,4-0.2,6,0.4c0.2,0.1,0.5,0,0.8,0c2.2,0,4.3,0,6.4,0c0.5,0,1.1-0.1,1.6,0.1c1.3,0.5,2.7,0.2,4,0.2
		s2.7,0,4,0l0.1,0.1c0.6,0.4,1.2,0.2,1.7,0.1c1,0,2.1,0.1,3,0.1c0.8,0,1.2,0.4,1.3,1.2c0.2,1.2,0.4,2.5,0,3.7
		c-0.2,1.3-0.8,2.5-0.7,4c0,0.4-0.2,0.6-0.6,0.6c-0.5,0-1,0-1.4,0s-0.8,0-1.3,0c-2.1-0.1-4.1-0.1-6.2-0.2c-0.4,0-0.7,0-1,0
		c-2.8-0.1-5.7-0.1-8.4-0.1c-0.7,0-1.6,0-2.3,0c-0.6,0-1.2,0-1.8,0c-0.5,0-1,0-1.3,0c-5.1-0.1-10.1-0.2-15.1-0.4c-0.1,0-0.2,0-0.4,0
		c-0.4,0-0.6,0-1,0l0,0c-0.5,0-1,0.1-1.6,0.1c-0.2,0-0.5,0-0.8,0.1c-0.6,0-1.1,0.1-1.7,0.1c-2.4,0.2-4.9,0.5-7.4,0.6
		c-0.7,0.1-1.4,0.1-2.4,0.5c1,0.1,1.4,0.8,2.2,0.8c0.7,0.1,1.4,0.1,2.2,0.2c0.2,0,0.4,0.1,0.6,0.1c2.9,0.7,5.8,1.4,8.7,2.3
		c0.1,0,0.2,0,0.2,0.1c0.5,0.1,1,0.1,1.4,0.4c0.7,0.4,1.6,0.6,2.4,0.8c0.1,0,0.4,0.1,0.5,0.1c0.5,0.1,1,0.1,1.4,0.2
		c1.7,0.4,3.4,0.4,4.9,0.6c2.5,0.5,5.1,1.1,7.7,1c0.2,0,0.4,0,0.6,0.1c0.6,0.1,1.2,0.2,1.8,0.4c2.5,0.5,4.9,0.7,7.6,0.7
		c1.2,0,2.3,0.2,3.3,0.8c0.6,0.4,1.3,0.6,1.9,0.6c1.2,0,1.9,0.7,2.8,1.4c0.7,0.6,1.3,1.3,2.1,1.9c0.4,0.4,0.5,0.7,0.5,1.2
		c0.4,1.8,0.2,3.7,0.2,5.6c-0.2,10.1-0.8,20.4-1.4,30.5c-0.6,9.2-0.1,19.1-1.7,28.1c-0.2,1.6-0.2,3.1-0.2,4.7c0,0.1,0,0.2,0,0.2
		c0,0.2,0,0.6,0,0.8c0,0.1,0,0.2,0,0.4c-0.5,1.3-0.4,2.8-0.4,4.2c0,0.4,0,0.8-0.1,1.2c-0.5,1.1-0.2,2.1-0.4,3.1c0,0.5,0,1,0,1.4
		c-0.5,2.1-0.5,1.9-2.3,2.1c-0.6,0-1.2-0.2-1.7,0c-0.1,0-0.1,0.1-0.2,0.1c-3,2.5-9.3,0.1-12.8,1.9c-0.2,0.1-0.5,0-0.8,0
		c-0.5,0-1.1-0.1-1.6,0c-1.7,0.4-1.4-2.4-1.4-3.3c0.2-3.9-0.1-8.3,0.5-12.1c0.8,0.5,1.8,1,2.7,1.2c3.6,1.3,7.4,2.2,11.1,2.8
		c0.5,0.1,0.8,0.1,1.3,0.2c0.1,0,0.2,0,0.4,0.1c0.2,0,0.4,0,0.5-0.2c0,0,0-0.1,0-0.2s0-0.1,0-0.1c-0.2-0.2-0.4-0.5-0.6-0.6
		c-0.7-0.8-1.4-1.7-2.4-2.3c-0.1-0.2-0.4-0.4-0.5-0.6c-2.3-2.5-5.2-4.5-7.8-6.5c-1.2-0.8-2.3-1.8-3.4-2.8c-0.5-0.4-0.5-0.7,0-1.3
		c0.2-0.4,0.5-0.8,0.6-1.2c1.6-8.4,3.3-17,4.8-25.6c0.4-1.8-0.2-3.5-1.3-4.8c-0.2-0.4-0.6-0.7-1-0.6c-1.4,0.4-2.9,0.5-4.3,0.4
		c-0.1,0-0.2,0-0.4,0.1c-2.1,0.6-8.2,2.8-9.7,0.7c-1.8-2.5-4.1-4.6-6.2-6.9c-0.1-0.1-0.1-0.1-0.2-0.2c-0.2-0.2-0.6-0.2-1-0.2
		c-0.1,0-0.1,0-0.2,0c-1.2,0.2-2.3,0.8-3.4,1.3c-1.9,1-4.1,1.4-5.9,2.8c-2.2,1.6-4.2,3.3-6.3,5.1c-1.9,1.7-3.7,3.7-5.6,5.6
		c5.4,3,21.2,12.1,26.8,14.7c6.6,3.3,11.1,5.3,11.1,5.3s-0.1,3.4-1,4.6c-1,1.3-18.1-7.6-19.7-8.3c-10.3-4.8-20.3-9.7-31-13.4
		c-2.4-0.8-4.7-1.7-7.1-2.2c-3.6-0.7-4.5-0.4-2.8,3c0.4,0.7,3.1,1.8,4,2.4c2.1,1.4,4.1,2.9,6.2,4.2c4.3,2.7,7.7,5.1,10.3,9.7
		l23.9,7.7c0,0,4.8,1.9,3.7,4.7c-1.3,3.7-0.8-1.2-5.1-2.3l-19.9-6l-6.6-1.2c0,0-1.8,4.7-2.9,6.2c-2.5-0.2-4.6-3.5-4.6-3.5
		c-0.1-0.7-0.2-1.6-0.2-2.3c-0.1,0.1-0.1,0.1-0.2,0.2c-1.4,1.1-2.8,2.2-4.1,3.3c-0.7,0.6-0.8,1.2-0.7,2.2c0.1,0.6,0.5,1,0.7,1.4
		s0.5,0.7,0.8,1.2c0.6,1,1.2,1.8,1.9,2.8c0.1,0.2,0.4,0.5,0.5,0.7c0.6,1,0.6,1.6-0.2,2.3c-0.6,0.6-1.1,1.1-1.6,1.8
		c-0.1,0.1-0.2,0.4-0.4,0.5c0,0,0,0.1-0.1,0.1c-0.4,0.6-0.5,1,0.1,1.4c0.8,0.6,0.8,1.2,0.4,2.1c-0.1,0.2-0.1,0.5-0.2,0.7
		c-0.4,0.6-0.1,1.2,0.4,1.6c0.2,0.2,0.5,0.4,0.8,0.5c1.2,0.5,1.7,1.3,1.4,2.7c-0.1,0.8,0,1.6,0.2,2.2s0.7,1.2,1.4,1.7
		c0.1-0.1,0.4-0.1,0.6,0c3.9,1.7,8.1,2.1,12.3,1.8c0.8-0.1,0.8,1.3,0,1.4c-1.8,0.1-3.6,0.1-5.4,0c0.4,0.1,0.7,0.2,1.1,0.4
		c0.5,0.1,0.8,0.2,1.1,0.5c0.2,0.1,0.4,0.2,0.6,0.5c1.6,1.6,3.1,3.1,4.6,4.9c0.6,0.8,1.8,1.9,2.1,2.9c0.1,0.6-0.2,1.6,0,2.1
		c1.8,4.7-1.4,11.3-3.3,15.6c-1.9,4.3-4.7,8.4-6.8,12.8c-1.2,2.5-2.9,4.7-4,7.1c0,0.1,0,0.2-0.1,0.4c-0.1,0.1-0.1,0.2-0.2,0.4
		c-0.4,0.8-0.7,1.7-0.8,2.7c-0.1,0.5-0.5,0.6-0.8,0.5c-0.4,0.8-0.7,1.7-1.3,2.3c-0.8,2.5-1.7,5.2-2.2,7.8c-0.4,1.9-0.4,3.7,0.4,5.6
		c0,0.1,0.1,0.2,0.1,0.4c0.1,0.2,0.2,0.5,0.2,0.7c0.1,0.2,0.2,0.5,0.4,0.8c0.4,0.6,0.1,1.2-0.4,1.6c-6.8,5.2-15.5,6.6-23.4,9.8
		c-12.1,4.7-22.5,11.3-32.5,19.6C61,243,52.5,257.5,47.3,275.3c-0.2,1-0.5,1.8-0.8,2.8c-1,3.5-1.7,7-2.3,10.6c-0.7,4-0.6,8,0.2,12
		c0.5,1.9,1,3.9,1.6,5.7c0.4,1.2,0.8,2.3,1.2,3.5c0.8,2.3,1.9,4.5,2.9,6.6c4.3,10.1,12.4,19.9,20,27.6c8.8,9.1,20.2,15.7,32.7,17.9
		c0.4,0.1,0.7,0.1,1.1,0.2c1.3,0.2,2.7,0.7,4,1.2c2.7,1,5.2,2.2,7.6,3.5c-0.2,0.5-0.6,0.6-1,0.7c-1.9,1.1-3.9,2.3-5.6,3.6
		c-1.7,1.3-3.3,2.7-4.8,4.2c-6.8,6.4-12.7,13.8-18.3,21.1c-5.7,7.1-11.6,14.1-16.9,21.5c-2.9,4-4.9,8.3-6.2,13
		c-1.1,4.5-2.1,8.9-2.9,13.4c-0.5,2.7-0.6,1.9,1.2,3.9c3.6,3.9,7.2,7.6,10.9,11.3c1.1,1.2,2.3,2.3,3.6,3.1
		c14.6,9.8,31.3,15.2,47,22.8c1.1,0.6,2.3,1.1,3.4,1.7c0.8,0.4,1.6,0.7,2.4,1.2c7.7,3.9,15.3,7.7,22.6,12.3c1.8,1.2,3.7,2.4,5.4,3.7
		c4.6,3.7,8.1,8.9,10.1,14.6c1.1,3,1.7,6,1.9,9.2c0.2,3-0.8,5.9-0.7,8.8c0,0.7-0.1,1.3-1,1.6c-0.5,0.1-0.8,0.6-1.3,1
		c-1,0.8-1.8,1.7-2.7,2.7c-1,1.1-1.9,2.2-2.8,3.3c-2.7,3-5.4,5.9-8.3,8.7c-0.5,0.5-1.1,0.8-1.9,1c-1.3,0.2-2.7,0.5-3.9,1.2
		c-1.7,0.2-3.3,1-4.8,1.7l-0.1,0.1c-0.1,0-0.2,0.1-0.4,0.1c-0.5,0-0.7,0.2-0.6,0.7c0,0.4,0.2,0.7,0.6,0.8c0.2,0.4,0.4,0.7,0.6,1.1
		c0.5,0.8,1.1,1.6,1.9,2.2c1.2,1,2.5,1.1,4,0.7c0.4-0.1,0.7-0.4,1.1-0.5c5.9-2.7,12.1-4.1,18.7-3.6c3.4,0.2,7.2,1.1,10.5,1.1
		c3.1-0.1,9.8-4.8,12.2-3.1c0.6,0.4,1.3,0.7,2.1,0.6c1.2,0.2,2.2-0.4,3.1-1c2.4-1.7,2.8-4.2,2.5-7.1c-0.4-6.2-2.2-11.6-5.3-16.8
		c-0.1-0.2-0.2-0.5-0.4-0.6c-0.8-1.4-1.1-3-1.2-4.6c-0.1-2.2,1.6-5.9,2.3-8c0.4-1,0.7-2.1,1-3c0.4-1.1,0.7-2.1,1.1-3.1
		c1.6-6.4,4.2-12.7,6.2-19c1.1-3.7,2.3-7.5,3.5-11.2c0.4-1.2,0.7-2.4,1.2-3.6c4.7-15,10.5-30.1,14-45.4c1-4.5,1.9-8.9,3-13.3
		c2.7-11.5,5.3-22.9,8.1-34.4c0.6-2.5,1.3-5.2,1.8-7.7c0.5-2.2,1.1-4.5,1.6-6.6c0.2-0.7,0.2-0.8,1.1-0.7c5.6,0.5,11.1,1.2,16.7,1.8
		c1.8,0.2,1.7-1,1.9-2.4c0.2-1.2,1.4-4-0.5-4.2c-4.9-0.6-9.8-1.3-14.7-1.9c-1.6-0.2-3.1-0.4-4.7-0.4c-1.6,0.1-5.6,0.6-4.3-1.9
		c0.1-0.1,0.2-0.4,0.2-0.6c0.5-2.3,2.7-2.8,3.3-4.8c0.2-0.7,0.2-1.6,0.7-2.2s1.2-0.8,1.8-1.1c1.7-0.8,2.8-3.4,4-4.8
		c0.2-0.2,0.5-0.6,0.5-0.8c-0.1-0.7,0.2-1.1,0.6-1.3c0.1,0,0.1-0.1,0.2-0.1c0,0,0.1,0,0.1-0.1c-0.6-0.2-1.1,0-1.6,0.1
		c-4.6,1.4-9.3,2.8-14,4.1c-1.8,0.5-3.5,1-5.3,1.6c-1.4,0.4-2.9,0.8-4.3,1.2c-1.3,0.4-12.2,4-12.1,2.5c0-0.1,0-0.2,0-0.4
		c0-0.2,0-0.6,0-0.8c0-0.2,0-0.6,0-0.8c0-0.5,0-1,0-1.4c0-1.1,0.1-2.3,0.1-3.4c0.4-8.2,0.8-16.5,1-24.7c0-0.7,0-1.3,0-2.1
		c0-0.5-0.1-0.8-0.1-1.3c1-3.5,0.5-8,0.6-11.5c0.1-4.5,0.4-9.1,0.5-13.5c0.2-9.4,1.2-19,1-28.4c0-0.4-0.1-0.7,0-1
		c0.1-0.7,0.1-1.3,0.2-2.1c0-0.2,0-0.5,0.1-0.7c0.4-3.7,0.7-7.5,0.7-11.2c0-0.2,0.1-0.5,0.4-0.6c3.4-1.1,6-4.1,8.7-6.4
		c3.1-2.7,6.6-4.8,10.1-7c0.4-0.2,0.5-0.5,0.5-0.8c0.2,0,0.4-0.1,0.5-0.4c0.4-0.4,0.6-0.7,0.8-1.1c0-0.1,0.1-0.2,0.1-0.4
		c0.5-1.2,0.6-2.3,0.8-3.5c0-0.2,0-0.4,0.1-0.6c0.4-2.8,0.1-5.3-0.8-7.8c-0.2-0.6-0.5-1.1-0.7-1.6c-2.5-4.6-5.4-8.9-8.4-13.3
		c-1.2-1.8-2.5-3.5-3.7-5.2c-1.4-1.9-2.9-3.9-4.5-5.7l0,0c-0.6-0.7-1-1.7-0.7-2.5c0.2-1,0.2-2.1,0.2-3c0.2-3.4,0.4-6.9,0.5-10.3
		c0.1-2.7,0.2-5.3,0.5-8.1c0.2-3.6,0.5-7.2,0.6-10.9c0.8-17.3,1.9-34.5,2.8-51.8c0.8-15.1,1.6-30.2,2.4-45.3
		c0.2-4.2,1.8-10.4,0.7-14.5c0-0.7,0.1-1.6,0.1-2.3c0.2-0.8,0.5-1.7,0.2-2.5c0-0.4,0-0.7,0-1.1c0.2-0.2,0.2-0.6,0.1-1
		c0.5-1.4,1-2.9,1.7-4.2c0.1-0.2,0.2-0.6,0.6-0.8c1.3-1,2.5-1.9,3.7-3c0.7-0.6,1.6-1,2.5-1.3c3.5-1.1,7.1-1.9,10.7-2.8
		c0.6-0.1,1.1-0.2,1.7-0.4c2.1-0.5,4.2-1,6.4-1.2c2.5-0.4,4.9-1,7.5-1.2c1.2-0.1,2.4-0.4,3.7-0.6c0.6-0.1,1.2-0.2,1.8-0.2
		c1.2-0.1,2.5-0.2,3.7-0.5c2.8-0.4,5.6-0.7,8.3-1.1c1-0.1,1.9-0.4,2.9-0.5C274.5,28,274.1,27.9,273.8,27.8z M131.7,108.5
		L131.7,108.5L131.7,108.5L131.7,108.5z M134,109.4c-1.1,0.1-1.8-1-2.1-1.4c-0.2-0.5,0.1-1.3,0.1-1.3c0.6-0.6,1.7,0.5,2.5,1.3
		S135,109.2,134,109.4z M141.5,126.6c-1.1,0.4-3-0.2-3.6-5.6c-0.6-5.2-1.6-10.3-0.2-10.3c1.2,0,1.2,4.9,1.6,7
		c0.4,2.1,0.1,4.5,2.3,7.5C141.5,125.2,142.6,126.3,141.5,126.6z M142.2,106.6c-0.8,0.4-1.4-0.8-0.7-1.2c1.4-0.7,1.2-1.9,0.8-3.1
		c-0.2-0.8,1.1-1.2,1.3-0.4C144.3,103.8,144.1,105.6,142.2,106.6z M53.8,309c-0.1,0.5-0.8,0.6-1.2,0.2c-0.2-0.2-0.5-0.6-0.7-0.8
		c-0.1,0-0.4-0.1-0.4-0.2c-0.1,0-0.1,0-0.2-0.1c-0.4-0.1-0.6-0.4-1-0.4s-0.6-0.2-0.6-0.6c-0.4-0.2-0.6-0.6-0.8-1
		c-0.4-0.7-0.2-1.6,0.1-2.2c0-0.4,0.2-0.6,0.5-0.7c0.2-0.4,0.5-0.6,0.7-0.8c0.5-0.5,1.2,0,1.2,0.6c0.1,0,0.1,0,0.2,0l0,0
		c0,0,0,0,0.1,0c0,0,0.1,0,0.1,0.1c0.8,0.7,2.2,1.9,2.1,3.3C54.2,307.1,54.2,308.1,53.8,309z M204.9,134.4c0.5-0.1,0.6-0.7,1.3-0.6
		c0.1,0.6,0.1,1.2,0.1,1.9c-0.1,3.3-0.2,6.4-0.2,9.7c0,1.3,0,2.5,0,3.9c0,0.5,0,1.1,0,1.6c0,2.7,0,5.3-0.1,8c0,0.4,0,0.6-0.1,1
		c0,0-0.2,0-0.4,0c-0.4-0.1-0.2-0.4-0.4-0.6c-0.7-2.3-1.4-4.6-2.2-6.9c0-0.1,0-0.1-0.1-0.2c-0.1-0.4-0.2-0.7-0.4-1.1
		c-0.5-1.6-1.2-3.1-2.2-4.6c-1.2-1.8-2.2-3.9-3.5-5.6c-0.2-0.4-0.1-0.6,0.1-0.8c0.2-0.1,0.4-0.4,0.6-0.5c1.2-0.5,2.2-1.3,3-2.3
		C201.7,135.9,203.3,135,204.9,134.4z M190.8,131.3c2.7-0.6,5.3-1.3,8-1.9c0.4-0.1,0.7-0.1,1.2-0.2c0.1,0,0.2,0.1,0.4,0.1
		c0,0.1,0,0.2,0,0.4c-0.1,0.5-0.5,0.6-0.7,0.8c-1.9,1.6-3.9,3.1-5.8,4.7c-0.7,0.7-1.4,0.7-2.3,0.2c-0.2-0.4-0.6-0.8-0.8-1.2
		c-0.2-0.2-0.5-0.4-0.8-0.4l-0.1-0.1C188.9,131.9,189,131.7,190.8,131.3z M190.1,154.2L190.1,154.2L190.1,154.2L190.1,154.2z
		 M160.8,166.5c1.8-6.2,5.9-12.2,12.2-14.4c0.4-0.1,0.6,0.1,0.7,0.4c-0.7,0.5-1.3,1-1.8,1.6c-5.4,2.7-9.7,9.3-10.1,15.2
		c-0.4,4.3,0.2,8.6,1.3,12.8c-0.1,0.2-0.2,0.6-0.2,1c0.2,1.6,0.4,3.3,0.6,4.8C160.9,181.2,158.7,173.3,160.8,166.5z M148.8,115.2
		c-0.5-0.7,0.7-1.4,1.2-0.7c1.9,3,2.9,6.5,4,9.9c1.3,3.9,2.7,7.7,4.1,11.6c0.4,0.8-1.1,1.2-1.3,0.4c-1.4-3.9-2.8-7.7-4.1-11.6
		C151.6,121.6,150.7,118.2,148.8,115.2z M155.5,475.8c-0.1-0.1-0.2-0.1-0.4-0.2c-5.8-6.2-11.3-12.7-17.1-19s-11.7-13.2-18.8-17.9
		c-1.2-0.8-5.3-2.4-2.7-4c3.5-2.1,6.9-4,10.4-6c1.4-0.8,3-1.7,4.5-2.7c1-0.6,2.5-1.2,3.3-1.8c0.4-0.2,0.8-0.5,1.3-0.6
		c0.2-0.1,0.6,0.1,0.6,0.4c-0.1,1.6,1.2,3.7,1.8,5.2c3,7.6,6.3,15.3,9.3,22.9c1.6,3.9,3.1,7.7,4.6,11.7c0.7,1.9,1.4,3.9,2.3,5.9
		c0.6,1.6,1.8,3.6,1.8,5.3C156.3,475.7,155.8,476,155.5,475.8z M127.2,284.4c0.8,0.5,1.7,0.2,2.3-0.5c0.5-0.7,1.6,0,1.2,0.7
		c-0.1,0.2-0.4,0.5-0.5,0.7c-0.1,0.1-0.2,0.2-0.2,0.4c0.6,0.2,1.3,0.4,1.4,0.5c0-0.1,0-0.2,0-0.4c0-0.7,1-1,1.3-0.4
		c0.1,0.1,0.1,0.2,0.1,0.4c1.4,0.8,2.2,0.6,2.3-0.6l0.2-0.6c0.1-0.2,0.2-0.5,0.4-0.7c0.2-0.5,1-1,1.4-1.3c1.4-0.8,2.4-1,3.9-0.2
		c0.8,0.5,0,1.6-0.7,1.2c-3.9-2.1-3.3,4.8-6.4,4.7c-0.8,0-1.6-0.2-1.9-0.7c-1.1,0-2.7-0.6-3.4-0.8c-0.2-0.1-0.5-0.4-0.5-0.6
		c-0.7,0-1.3-0.2-1.9-0.6c-2.1-1.2-2.4-2.8-2.1-4.9c0.1-0.8,1.4-0.5,1.3,0.4C125.2,282.8,125.8,284,127.2,284.4z M138.6,274.3
		c-2.4,1.6-4.9,2.4-7.8,2.4c-1,0-0.8-1.4,0-1.4c2.7,0,4.9-0.8,7.1-2.3C138.7,272.6,139.3,273.8,138.6,274.3z M174.9,280.4
		c-1.6,0.8-7.4,2.7-7.5,4.5c-0.2,2.4-2.7,4.8-4.1,6.5c-1.9,2.3-4,4.2-5.4,6.8c-0.6,1.1-1.9,0.6-2.9,0.2c-2.3-1-8.1-4.1-8,0.7
		c0,1.4-2.8,3.6-3.5,4.3c-1.4,1.4-3.3,2.9-3.9,4.9c-0.4,1.3-0.7,2.7-1.2,3.9c-0.2,0.5-0.7,0.6-1.2,0.2c-0.4-0.4-0.6-0.7-0.8-1.2
		c-0.1-0.1-0.2-0.2-0.2-0.5c0-0.2,0-0.4,0-0.6c0-0.5,0-1,0.1-1.4c0.2-3.7,2.8-11.1,3-11.1c0.2-0.5,0.4-1,0.6-1.4
		c0.1-0.4,1.7-2.9,0.6-2.9c-1.4,0.1-3,0.5-4.1,1.6c-2.3,2.1-5.1,1.7-6-1.4c-0.5-1.3-2.4-1.6-3.5-2.7c-1-1.1-1.1-2.5-1-3.9
		c0.1-0.8,1.4-0.8,1.4,0c-0.1,1.3,0.4,2.4,1.2,3.1c1.2-0.1,2.3-0.8,3.5-1c1.9-0.1,3.7-0.1,5.6-1.1c1.9-1,3.7-2.1,5.9-1.8
		c0.8,0.1,0.8,1.4,0,1.4c-3.1-0.2-5.7,2.4-8.7,2.8c-1.6,0.2-2.9,0.2-4.5,0.7c0.1,0,0.2,0.1,0.5,0.1c0.2,0.1,0.4,0.2,0.5,0.4
		c0.1,0.1,0.2,0.5,0.4,0.7c0.7,2.3,2.9,2.4,4.7,1c1-0.8,3.5-1.8,5.1-1.2c0.4-0.4,0.7-0.8,1.1-1.2c0.2-0.2,1-1.3,1.2-1.3
		c0.2-0.4,0.8-0.4,1.2,0c0.4,0.5,0.5,1.2,0.6,1.7s0.4,1,0.2,1.4c-0.2,1-1.9,1.3-3,1.3c0,0.1,0,0.2,0,0.2c0,0.4-0.2,0.7-0.5,0.8
		c-0.5,1.3-1.4,2.8-1.7,3.4c-0.4,1-1.6,3.7-2.3,6.5c0.1,0.1,0.1,0.2,0.1,0.4c0,0.6,0.1,1,0.5,1.3c0.4-0.7,0.7-1.3,1.3-1.9
		c1.3-1.4,2.8-2.7,4-4.1s1.2-2.1,1.4-3.7c0.2-1.4,2.3-1.9,3.5-2.1c2.9-0.5,4.6,1.7,7.2,2.3c0.7,0.1,2.2-2.7,2.7-3.3
		c1.3-1.4,2.8-2.9,4-4.5c1-1.2,3.3-3.6,3.1-5.4c0-0.6,0.1-0.6,0.5-1.1c0.6-0.7,2.1-1.1,2.8-1.4c1.7-0.8,3.3-1.7,4.8-2.5
		c3.4-1.8,6.5-3.7,9.8-5.8c0.7-0.5,1.4,0.7,0.7,1.2C181.4,276.6,178.3,278.6,174.9,280.4z M146.2,281.9c0.6-0.7,1.4-1.1,2.3-1.4
		c0.8-0.4,1.4,0.8,0.7,1.2c-0.4,0.1-0.7,0.4-1.1,0.5c-0.2,0.1-0.5,0.2-0.7,0.5C146.8,283.3,145.6,282.6,146.2,281.9z M228.1,374.5
		c-0.1,0.1-0.1,0.5-0.1,0.7c0,2.5-1.1,4.9-1.6,7.4c-0.5,2.8-1.1,5.6-1.6,8.3c-1.3,6.5-2.7,12.9-4.5,19.2c-2.4,8.9-4.8,18.2-7.5,27.2
		c-1.3,4.6-2.8,9.2-4.5,13.8c-1.6,4.5-3.6,8.6-4.7,13.2c-1.2,4.9-2.5,9.9-4.5,14.7c-2.4,6.2-4.3,12.4-6.4,18.8
		c-0.4,1.3-0.8,2.5-1.2,3.9c-0.1,0.2-0.2,0.5-0.5,0.6c-0.2,0-0.4-0.1-0.5-0.2s-0.1-0.2-0.2-0.5c-0.4-1-0.7-1.9-1.1-2.8
		c-0.2-0.6-0.6-1.2-0.7-1.8c-0.4-1.1-1-1.6-1.1-2.9c-0.4-2.9-1.3-6.2-0.8-9.1c0.1-0.8,0.2-1.6,0.5-2.4c0.2-1.2,0.4-2.3,0.5-3.5
		c0.1-1,0-2.1-0.1-3c-0.5-4.2-0.8-8.7-1.3-12.9c-0.2-2.3-0.4-4.6-0.5-7c-0.1-1.9,0.1-4.2-0.2-6.2l0,0c-0.4-1.9,0.1-3.7,1.2-5.3
		c0.7-1,0.8-2.2,1.6-3.1c0.6-1,1.1-2.1,1.6-3c0.6-1.1,1.1-2.2,1.7-3.3c0.2-0.5,0.6-0.8,0.6-1.4l0,0l0,0l0,0c1-1.1,1.4-2.4,2.1-3.6
		c5.6-10.7,11-21.6,16.3-32.4c1.4-2.8,2.8-5.6,4.1-8.4s3.1-5.2,4.5-8c0.4-0.8,1-1.6,1.3-2.4c1.2-2.3,2.3-4.5,3.5-6.8
		c0.2-0.4,0.4-0.7,0.6-1.1c0.1-0.2,0.4-0.4,0.7-0.2c0.6,0.2,1.3,0.2,1.9,0.1c0.7-0.1,1.1,0.2,1.1,1.1
		C228.5,372.8,229.1,373.7,228.1,374.5z M206.5,362.5c0.5-0.2,1-0.4,1.6-0.5c3.9-1.1,7.7-2.2,11.6-3.3c0.2-0.1,0.5-0.1,0.7-0.2
		c0.7-0.2,1.3-0.4,1.9-0.7c0.2-0.1,0.6-0.2,1-0.4c1.7-0.4,3.3-0.6,4.8-1.2c0.2-0.1,0.5-0.1,0.8-0.1c0.2,0,0.5,0.4,0.4,0.6
		c-0.2,0.4-0.5,0.8-0.7,1.2c-1.2,1.7-2.5,3.3-3.6,5.1c-0.2,0.4-0.5,0.6-0.6,1c-0.4,0.6-0.8,1-1.7,0.8c-1.1-0.1-2.2-0.2-3.4-0.4
		c-1.3-0.1-2.8-0.2-4.1-0.4c-2.7-0.2-5.2-0.5-7.8-0.7c-0.2,0-0.5-0.1-0.8-0.1c-0.1,0-0.2-0.2-0.2-0.2
		C206.3,362.7,206.4,362.5,206.5,362.5z M205.3,368.8c5.2,0.2,10.3,0.2,15.5,0.4c0.8,0,1,0.4,0.6,1.1c-0.1,0.2-0.1,0.4-0.2,0.5
		c-0.5,0.8-1,1.8-1.4,2.7c-2.1,3.7-4.1,7.4-6,11.1c-1,1.8-2.1,3.7-3,5.6c-6.4,12-13,23.9-19.7,35.9c-1.7,3-3.4,6-4.9,9.1
		c-0.2,0.5-0.4,1.4-1.1,1.3c-0.8-0.1-0.6-1.1-0.7-1.6c-0.5-2.2-0.8-4.2-1.3-6.4c-0.2-1-0.4-1.9-0.6-2.9c-0.1-0.5-0.1-1-0.2-1.2
		c0-0.7,0.1-1.2,0.4-1.7c1.2-3.6,2.3-7.1,3.4-10.7c0.2-0.6,0.4-1.3,0.4-1.9c0.4-5.3,0.7-10.9,1.6-16.2c0.8-5.4,2.2-10.7,3.4-16.1
		c0.4-1.8,0.8-3.6,1.2-5.3c0.4-1.4,0.2-3.1,1.7-3.9c1.2-0.6,1.8-0.4,3,0c1,0.2,1.9,0.2,2.9,0.4C201.7,368.8,203.5,368.7,205.3,368.8
		z M188.8,300.1c0.5-2.1,0.7-4.1,1.1-6c1-6.8,2.3-15.1,5.4-21.2c0-0.1,0-0.1,0.1-0.2c0.1-2.2,0.4-4.2,0.4-6.4c0-1.2,0.7-2.2,1.7-2.8
		c2.5-1.8,1.4,6.8,1.3,7.8c-0.1,4-0.4,8-0.5,12c-0.1,6.4,0.7,12.9,0,19.3c-0.2,2.7-0.4,5.2-0.6,7.8c-0.1,0.8-0.1,1.7-0.2,2.5
		c0,0.2,0,0.5-0.1,0.7c-0.1,1.7-3.4-2.2-3.9-2.7c-1.7-1.7-6.5-5.8-5.4-8.7c0.1-0.2,0.1-0.4,0.2-0.6
		C188.6,301.2,188.7,300.7,188.8,300.1z M208.6,230.9c-1.8,1-4.1,1.1-5.8,2.3h-0.1h-0.1l-0.8,1.1c-1,1-2.2,1.2-3,2.5
		c0.1,0-3.9,0.5-5.7,2.4c-1,1.1-1.8,2.2-2.7,3.3c-1.7,2.1-3.6,4-5.2,6.2c-2.9,3.9-5.8,7.2-9.5,10.1c-4.1,3.1-7.2,7.6-11.7,10.1
		c-1.3,0.8-2.9,1.4-4.3,2.1c-0.1,0-0.1,0.1-0.2,0.1c-1.4,0.7-3.3,1.7-4.9,1.8c-0.6,0-1.2-0.1-1.7-0.2c-0.2,0-0.5,0-0.7,0.1
		c-0.6,0-0.7-0.5-0.6-1c-0.7-0.6-1.4-1.4-2.4-1.9c-2.1-1.2-3.5,0.1-5.4,0.5c1.3,1,2.2,2.2,2.2,4.2c0,1.8-2.8,1.7-2.8-0.1
		c0-1-0.6-1.6-1.4-2.2c-0.1-0.1-0.2-0.2-0.4-0.4c-1.7-1.2-3.7-1.7-5.6-2.8c-0.2-0.1-0.4-0.1-0.6-0.1c-1-0.6-1.9-1.1-2.9-1.4
		c-1.2-0.4-1.9,1-1.6,1.9c-0.4,0.4-0.4,1-0.2,1.4c-0.6,1.1-0.8,2.3-1.6,3.4c-0.2,0.2-0.2,0.6-0.1,1c0,0.1,0,0.4,0,0.5
		c-0.5,1-0.2,2.3,1.1,2.8c2.4,0.8,4.7,0.1,6.6-1.3c0.1,0,0.4,0,0.4,0c0.1,0,0.2,0,0.5,0.1h0.1c0,0,0.1,0.1,0.2,0.1l0,0
		c-0.6,1.8-1.4,3.6-3.7,3.4c-2.5-0.4-5.7-0.2-7.4-2.4c-0.6-0.7-0.5-2.2,0.7-2.3c0.1,0,0.4,0,0.5-0.1c-2.4-1.8-4.7-3.7-7.5-5.1
		c-2.7-1.3-5.6-2.3-8.1-3.7c-2.2-1.3-4.2-2.8-6.8-3.5c-0.5-0.1-0.7-0.5-0.8-0.8c-0.1,1.2-0.4,2.4-1,3.4c-1.7,2.9-4.6,4.2-7.8,4.5
		c-3.5,0.4-8.1,0.8-10.9-1.9c-2.7-2.7-3.4-6-3.1-9.7c0.4-7,4.1-13.5,11.8-13.9c3-0.1,6.3,0.5,8.3,3c1,1.3,2.1,2.7,2.8,4.2
		c0.4,0.1,0.7,0.5,0.8,1c0.2,0.7,0.2,1.3,0.2,1.9c0.2,0.7,0.4,1.6,0.7,2.3c0.5-0.4,1.2-0.4,1.7,0.2c2.2,2.5,5.3,3.6,8.2,5.1
		c2.8,1.2,5.3,2.8,7.8,4.3c1.6,1,3.3,1.8,4.9,2.5c-0.6-1.3-1.1-2.7-1.1-4.2c0-0.2,0.2-0.4,0.5-0.4c-0.1-0.2,0-0.6,0.2-0.6h0.1
		c0.1-0.1,0.1-0.1,0.2-0.2c0.6-0.4,1.6-0.1,1.9,0.6v0.1c0.5,0.2,1,0.6,1.4,1c1.3,1,2.7,1.4,4.1,2.1c2.2,0.5,4.5,0.8,6.3,1.8
		c0.5,0,0.8-0.1,1.3-0.2c1.3-0.5,2.5-1.2,4-0.7c1,0.2,1.8,0.8,2.5,1.4c0.4,0.4,0.8,0.8,1.3,1.2c0.1,0,0.1,0,0.2,0
		c6.3-0.2,12.1-3.7,16.5-8c2.1-1.9,3.9-4,6.2-5.7c1.7-1.4,3.6-2.8,5.1-4.5c3.7-4.2,7.2-8.9,10.9-13.3c1-1.1,2.2-2.9,3.6-3.3
		c0.6-0.1,1.1-0.2,1.7-0.1c0.5,0,0.8-1.1,0.5-1.7c-1.4-2.8-2.5-5.8-4.2-8.4c-2.4-3.5-4.5-7.1-7.6-10c-0.1-0.1-0.2-0.2-0.2-0.4
		c-0.6-0.4-1.1-0.8-1.7-1.2c-2.9-2.1-6-3.4-7.7-6.8c-1.7-3.5-2.5-7.5-3.6-11.2c-0.2-0.8,1.1-1.2,1.3-0.4c0.6,1.9,1.6,3.9,1.9,5.9
		c0.4,2.1,1,4.1,2.2,5.8c2.2,3.3,6.4,5.2,9.5,7.4c4.5,2.9,7.2,7.6,10.6,11.5c0.1,0.1,0.2,0.2,0.2,0.2c0.1,0,0.1,0.1,0.2,0.1
		c0.1,0.1,0.1,0.1,0.2,0.2c1,0.8,1.9,1.8,2.8,2.8c0.7,0.6,1.4,1.1,2.2,1.6c1.7-1.1,3.6-1.3,5.4-2.2
		C208.8,229.4,209.4,230.6,208.6,230.9z M185.1,217.6c0.1,0.1,0.2,0.2,0.4,0.4v0.1V218C185.3,217.9,185.2,217.8,185.1,217.6z"/>
</g>
<g id="chudy_2_">
	<path d="M387.8,234.9c-1.3,0.2-2.4,1-3.6,1.6c-0.6,0.4-1.3,0.8-1.9,1.2c1.3-3.3,3-7.1,4-9.3h0.1c1.2,0,6.4-0.1,7-0.1
		c0.4,0,1,0.6,1.3,0.6c2.2,0.2-1.4,3.1-1.9,3.4c-1.1,0.6-1.9,1.9-3.1,2.2C389,234.8,388.4,234.8,387.8,234.9z"/>
	<path d="M245.1,111.4c0.2,1.8,0.5,3.7,0.7,5.6c0.1,0.5,0.4,0.7,0.8,0.7c2.4,0.2,4.9,0.6,7.4,0.8c2.3,0.7,4.6,1.4,6.9,2.2l9.8,3.4
		c0,2.1,0,4.2,0,6.3c0,2.3,0.1,4.7,0.2,7c0.1,1,0.1,2.1,0.1,3c0,1-0.2,1.8-0.1,2.8c-0.2,1.4-0.4,2.8-0.5,4.2
		c-0.2,1.9-0.7,3.9-1.1,5.8c-1.4,6.8-1.4,13.9-1.8,20.8c0,0.2,0,0.6,0,0.8c0,0.4,0,0.6,0,1s0,0.7,0,1.1v0.1c0.1,1.1,0.4,2.1,0.8,3
		c0,0,0,0,0,0.1c0.5,1,1.2,1.7,2.2,2.4c1.8,1.2,3.6,2.4,5.6,3.5c5.8,3.4,11.6,6.8,17.3,10.1c2.2,1.3,4.5,2.7,6.6,3.9
		c1.1,0.7,2.3,1.3,3.4,2.1c0.5,0.2,1.1,0.6,1.7,0.8l0,0l0,0c0.1,0.1,0.2,0.1,0.4,0.2l40.8,28.1c0,0,4.9,4,7.6,5.3s3.7-0.2,7.7,0.7
		c4,1,5.8,0.7,8.7,1.1c1.8,0.2,4.8,1.2,6.8,2.1c0.4,0,0.7,0,1.1,0.1c0.7-0.1,1.4-0.5,1.8-1.2l8.3-17.1c0.5-1.3,0.7-2.8,1-4.2
		c0.1-1.1,0-3.1-1.7-2.5c-1.1,0.4-1.9,1.1-2.7,1.9c-0.1,0.1-0.1,0.1-0.2,0.2c-0.8,0.8-1.6,1.8-2.3,2.8c-0.6,0-1-0.4-1.3-0.5
		c-0.7-0.2-1.2-0.8-1.6-1.4c-3.5-6.9-6.9-13.9-10.9-20.4c-0.1-0.2-0.4-0.5-0.5-0.8c-0.2-0.4-0.4-0.6-0.6-1c-0.1-0.4-0.4-0.7-0.5-1.1
		c-0.1-0.2-0.2-0.5-0.2-0.7c-0.2-0.7-0.5-1.4-0.8-2.1c-0.8-1.6-1.7-3.1-2.5-4.7c-4.8-9.1-10.1-18-13.5-27.6
		c-0.5-1.3-1.1-2.8-1.2-4.2c0-0.2-0.1-2.4-0.4-2.4c1,0,1.7,0,2.5,0.5c1.4,0.8,2.9,1.3,4.6,1.3c0.2,0.2,0.5,0.5,0.7,0.6
		c1,0.5,2.2,0.7,3.3,1c1.3,0.4,2.7,0.8,3.9,1.2c6,1.9,12.1,4.2,18,6.4c8.6,3,17.3,6,26,8.9c5.3,1.8,10.5,3.5,15.8,5.3
		c4.9,1.6,10,3,14.7,5.2c0.2,0.1,0.6,0.4,0.5,0.7c2.9,0.5,7.8,1.9,10,4c1.3,1.2,0.2,1.7-0.2,1.2c-1.3-1.4-6.2-3.4-9.8-4.1l0,0
		c0.1,1,0.2,1.6,0.5,1.9c0.2,0.5,0.6,0.7,1.6,1.2c0.1,0.1,0.4,0.2,0.6,0.2c3.6,1.9,7.1,3.9,10.7,5.8l1.9-1.2l-1.3-6.8l-2.2-7.7
		c1.1-0.1,2.4,5.7,2.4,5.7c0.8,3.1,1.6,5.2,2.1,8c0.2,1.3-0.8,2.2-2.1,2.5c1.9,1,3.9,2.1,5.9,3c0.6,0.2,1.1,0.6,1.7,0.4
		c0.4-0.1,0.6-0.4,1-0.5c0.1-0.1,0.2-0.2,0.4-0.4c0.1-0.2,0.1-0.6-0.1-0.8c-0.2-0.4-2.1-3.5-1.9-3.5l-1.4-7.6c-0.6-3,0-4.6,0-4.6
		s0.8,5.7,1.6,7.8c0.5,1.4,1,3.1,1.2,4.2c0.6,0.2,1.3,0.6,1.8,0.7c1.1,0.4,2.3,0.7,3.4,1.1c0.6,0.2,1.2,0.4,1.8,0.6
		c2.1,0.6,4.2,1.6,6.3,2.1c1.3,0.2,2.2-0.1,2.7-1.4c0.5-1.2-0.1-2.4-1.2-3.1c-0.5-0.2-1-0.4-1.4-0.6c-0.5-0.2-0.8-0.5-1.3-0.7
		c-2.3-1.4-4.6-2.8-7-4c-1-0.5-1.4-1.1-1.4-2.2c0-0.6-0.2-1.1-0.2-1.7c0-0.2,0.1-0.6,0.2-0.7c0.1-0.1,0.4-0.1,0.6-0.1
		c0.5,0,2.4,0,2.7-0.5c0.2-0.6-0.7-1.1-1-1.3c-1-0.8-1.9-1.7-3-2.5c-0.8-0.6-1.6-1.4-2.4-1.9c-0.7-0.5-1.7-0.6-2.5-0.4
		c-0.1,0-0.4,0.1-0.5,0.1c-0.4,0-0.6-0.2-0.7-0.6c-0.6-0.8-1.2-1.7-1.6-2.7c-0.2-0.6-0.5-1.1-0.8-1.6c-1.8-3.7-3.7-7.6-5.9-11.2
		c-2.1-3.6-4.5-7-6.9-10.4c-1.9-2.8-4-5.3-5.7-8.2c-1.1-1.8-2.3-3.5-3.7-5.1c-2.1-3.3-4.5-6.2-7.2-8.8c-0.2-0.2-0.6-0.6-0.8-0.8
		c-2.4-2.5-4.6-5.3-7.1-7.7c-2.2-2.2-4.5-4.1-6.9-5.9c-1.2-0.8-2.3-1.7-3.5-2.4c-1.1-0.7-2.4-1.1-3.5-1.8c-2.4-1.6-5.4-2.7-8.3-3.4
		c-0.1-0.1-0.4-0.2-0.6-0.2c-5.4-1.1-10.9-2.2-16.3-3.4c-5.2-1.2-10.5-1.9-15.6-3c-10.5-2.2-21.4-3.1-32-3.4c-0.7,0-1.6,0-2.3-0.2
		c-0.1-0.2-0.1-0.4-0.2-0.6c0.6-1.6,1.6-2.8,2.7-4c0.8-0.8,1.8-1.3,2.9-1.7c0.8-0.2,1.7-0.4,2.5-0.7c1.9-0.6,2.8-1.8,2.7-3.7
		c0-0.2,0-0.6-0.1-0.8c-0.7-1.4-0.4-2.9,0.2-4.3c0.2-0.5,0.1-1,0.1-1.4c0-1.2,0-2.3,0-3.5c0-1.6,0.5-3,1.6-4.2
		c0.7-0.8,1.3-1.8,2.1-2.7c0.1-0.1,0.2-0.2,0.2-0.4c0.7-0.8,0.6-1.6,0.1-2.4c-0.7-1.1-1.3-2.2-2.1-3.3c-0.6-1-1.3-1.9-2.1-2.8
		c-1.1-1.6-2.2-3-3.3-4.6c-0.4-0.5-0.6-1-0.4-1.7c0.1-0.5,0.1-1.1,0.1-1.6c0.1-1,0-1.9-1.1-2.4c-0.5-0.2-0.6-0.8-0.8-1.3
		c-0.6-0.8-1.2-1.8-1.8-2.7c-0.1-0.2-0.4-0.6-0.7-0.4c0.1-0.2,0.1-0.5,0-0.7c-0.4-0.6-0.6-1.2-1-1.7c-0.1-0.2-0.4-0.2-0.6-0.2
		l0.1-0.1c-0.2,0-0.4,0-0.5,0.1c-2.1,0.6-2.8,3-3.6,4.8c-0.7,1.7-1.8,3.1-2.8,4.7c-0.5,0.6-0.5,1.2-0.6,1.9
		c-0.1,0.4-0.1,1.8-0.5,2.1c2.5-2.3,8.9-4.6,8.9-4.6s1,1.3,0,1.4c-3.3,0.4-5.8,2.3-8.2,4.3c-0.4,0.4-0.8,0.2-1.1-0.1
		c-0.1,0.4-0.2,0.7-0.4,1.1c0,0,0,0,0,0.1c-1.2,5.3-0.8,11-0.6,16.4c0.4,6.2,2.2,12.3,4,18.1c0.1,0.5-0.5,0.6-0.7,0.2
		c-1.8-5.8-3.7-11.2-4.3-17.3c-0.2-3.3-0.4-6.5-0.2-9.8c0.1-2.1,0.2-4,0.6-6c0.4-1.9,1.2-3.7,1.4-5.8c-3,4.6-3.3,10.5-3.9,15.8
		c0,0.5-0.7-0.1-0.7-0.1c-0.2-0.1,0-1.6,0-1.7c0.2-3.4,0.8-6.8,1.9-10c0.7-2.1,1.8-3.9,2.5-5.8c0.4-1,0.6-2.1,1.2-3
		c0.7-1.6,1.7-3,2.4-4.5c0.8-1.7,2.3-3.3,4.1-3.7c-0.2,0.1-1.1-1.3-1.3-1.4c-0.2-0.1-0.4-0.4-0.6-0.6c-0.1-0.1-0.6-0.2-0.7-0.2l0,0
		c0-0.1-3,2.7-3.4,2.9c-0.5,0.5-1,1.1-1.4,1.7c-0.4,0.6-0.6,1.2-1.1,1.8c-0.4,0.5-0.7,0-0.7-0.4c0-0.2,0.1-0.4,0.2-0.6
		c1.6-2.3,3.5-4.3,5.7-5.9c-0.7-0.4-1.3-0.7-2.1-1.1c-0.2-0.1-0.6-0.2-0.8-0.1c-0.1,0.1-0.2,0.4-0.4,0.5c-0.4,0.8-0.8,1.4-1.3,2.2
		c-0.8,1.1-1.7,2.2-2.4,3.3c-0.6,1-1.1,2.3-1.9,3c-0.7,0.6-0.8,1.7-1.1,2.4c-0.2,1.1-0.6,2.2-0.8,3.3c-0.5,2.2-1,4.3-1.3,6.6
		c-0.6,3.9-0.2,9.2-0.2,13c0,0.5-0.8-1.6-0.8-2.1c0-3.7,0-6.9,0.4-10.5c0.4-2.8,1-5.6,1.7-8.3c0.6-2.7,1.3-5.2,2.4-7.7
		c0.5-1.2,1.1-2.4,1.6-3.5c0.2-0.6,0.6-1.2,0.8-1.7c0.1-0.2,0.6-1.6,0.8-1.7c-2.8,1-4.5,4.3-5.7,6.9c-1.3,2.9-2.8,7.7-3.3,10.9
		c-0.1,0.5-0.2-1.9-0.2-1.9c0.6-3.5,1.7-6.9,3.3-10c1.1-2.2,2.1-4.8,4.1-6c-2.9-0.1-5.2,1.6-7.7,2.9c-1.3,0.7-2.7,1.6-4,2.4
		c-0.1,0-0.1,0.1-0.1,0.1c0,0.2,0.1,0.5,0.1,0.7s-0.2,0.6-0.4,1c-0.2,0.6-0.4,1.2-0.5,1.9c-0.2,1.3-0.4,2.7-0.4,4.1
		c0,2.7,0.8,7,0.8,9.7c0,0.5-1.2-1.7-1.2-1.7s-1.3-8.9,0.6-14.8c-1,0.7-1.8,1.4-2.8,2.2c-2.7,7.2-2.5,15.9-1.9,23.2
		c0.2,3.3,1.7,6.3,2.5,9.4c1.2,4.6,1,9.5,2.3,14.1c0.2,0.6,0.4,1.2,0.6,1.8c0.5,1,1.4,4.1,1.8,5.2c0.1,0.5-1.1-1.2-1.1-1.2
		c0-0.1-1.1-2.8-1.3-3.6c-0.5-1.7-1.6-3.3-2.3-4.9c-1.8-4.1-3-8.6-4-13c-1.6-7.1-2.4-15.5-2.5-22.7l1,0.5c0,7.5,0.7,15.5,2.3,22.7
		c0.7,3.4,1.7,6.6,2.8,9.9c0.5,1.3,1,2.5,1.6,3.7c-0.6-2.4-1.2-4.8-1.3-7.4c0-2.9-0.7-5.3-1.6-8c-0.7-2.2-1.3-4.3-1.6-6.6
		c-0.5-4.7-0.2-9.8,0.2-14.5c0.2-2.7,0.6-5.3,1.4-8c-5.8,5.1-10.7,12.3-12,20c-0.2,1.2-0.6,2.3-0.8,3.5c-0.1,0.4-0.1,0.8-0.1,1.2
		c0,0.5,0.6,1.3,0.7,1.8c0.4,0.7,0.6,1.6,1,2.3c0.4,0.8,0.6,1.8,1.2,2.5c0.1,0.1,0.2,0.4,0.2,0.5c-0.1,0.2-0.5,0.2-0.7,0
		c-0.7-0.6-1.1-1.7-1.7-2.4c-0.4-0.5-0.7-1-0.8-1.4c0,0.5,0,0.8,0,1.3c0,0.6-0.1,1.2,0,1.9c0.1,0.7,0.2,1.6,0.2,2.3
		c0.2,1.4,0.5,3,0.8,4.5c0.8,3.3,2.7,5.8,4.5,8.6c2.2,3.1,3.6,6.2,5.4,9.5c2.5,4.5,5.6,8.7,8.4,12.9c4.5,6.4,9.5,12.9,13.2,19.8
		c0.5,0.7,1.8,2.4,1.8,2.5c0.4,0.1-6.5-17.1-10.6-25.3c-0.1-0.1-0.1-0.2-0.1-0.4c-0.2-0.6-2.2-4.2-2.5-5.6c-0.6-1.3-2.2-4.6-2.2-4.6
		l0.7,0.2c0,0,1.2,2.3,1.7,3.5c0.1,0,2.4,5.1,2.5,5.2s12.3,27.8,12.3,28.2l-0.7-0.6l-11.5-3.7l0.6-0.5c1.8,0.6,5.1,1.6,6.9,2.2
		c-2.4-5.1-6.9-10.3-9.9-15c-5.3-8.4-10.7-16.9-16.1-25.2c0.2,0.5-0.1,1.1-0.6,1.3c-0.5,0.2-1,0.2-1.6,0.2c-4.6,0.1-9.1,1-13.4,2.3
		c-1.3,0.4-2.7,0.8-3.6,1.8c-1.3,1.3-1.8,3.3-2.3,5.2c-0.8,4.1-1.8,8.2-2.7,12.3c5.9,2.1,11.8,4.1,17.7,6.3c3,1.1,5.9,2.1,8.9,3.1
		c1.4,0.5,3,1.1,4.5,1.6c1.2,0.4,3.1,0.7,4,1.6c0,0-0.5,0.2-0.4,0.2c-0.8-0.2-36.2-12.1-36.2-12.1c-0.1-0.1-0.2-0.1-0.5-0.2
		c-0.4-0.1-0.7-0.2-1.1-0.4c-1.9-0.6-3.7-1.1-5.7-1.7c-2.7-0.8-5.3-1.9-8-3c-0.2-0.1-0.5-0.1-0.7,0c0.1-0.1-0.1-0.4-0.2-0.4
		c-1.6-0.6-3-1.2-4.7-1.7c-0.6-0.2-1.3-0.4-2.1-0.5c-0.6-0.1-1,0-1.3,0.1C245.2,110.1,245,110.7,245.1,111.4z M295,66.5
		c0,1-0.1,1.3-0.4,1c-0.7-1.8-0.8-11-0.8-11.5c0-0.4,0.7-2.2,0.8-1.6C294.7,55.3,295.1,63.5,295,66.5z M301.2,90.7
		c-1.4-2.1-2.7-8.7-2.7-9.1c0-0.5,0.7-0.5,0.7,0c0,0.4,1,6.2,2.7,8.7C302,90.7,301.4,90.9,301.2,90.7z M307.5,101.6L307.5,101.6
		L307.5,101.6L307.5,101.6z M308.5,107.8L308.5,107.8C308.5,107.8,308.5,107.9,308.5,107.8C308.5,107.9,308.5,107.8,308.5,107.8z
		 M305.1,42.9c0-0.1,0.1-0.1,0.1-0.2l0,0C305.2,42.7,305.2,42.7,305.1,42.9z M308.5,77.7c0,0.5-0.7,0-0.7-0.5
		c-0.6-4.6-2.4-10.6-3.1-15.1c-0.1-0.5,1.1-0.4,1.2,0.1C306.5,66.9,307.9,73.2,308.5,77.7z M311.5,39L311.5,39
		C311.5,39,311.6,39,311.5,39C311.6,39,311.6,39,311.5,39L311.5,39C311.6,39,311.5,39,311.5,39z M325.5,64.9
		c0.8,1.9,2.1,3.9,3.6,5.4c0.6,0.6-0.7,1.3-1,1.1c-0.2-0.2-3.9-5.4-4-6C324.1,64.8,325.1,64.1,325.5,64.9z M333.2,59.5
		c-1.7,0.4-3.5,1.1-4.8,2.2c-0.5,0.4-1.1-1.1-0.8-1.4c0.6-0.8,1-1.6,1.4-2.3c0.7-1.1,1.4-2.1,2.9-2.8c0.8-0.4,1.6,0.8,0.7,1.2
		c-0.8,0.5-0.7,1-0.6,1.8c0.1,0.4,0.5,0,0.7,0C333.6,57.9,334.1,59.3,333.2,59.5z M322.5,71.8c-0.7-0.5,0.5-1.4,0.7-1.2
		c0.2,0.1,5.8,4.3,8.4,6.9c0.6,0.6-1,1.1-1,1.1S325.4,73.9,322.5,71.8z M330.9,116c-2.1-5.3-4-12.6-5.1-18.1c-0.1-0.5,0.6-1.3,0.7-1
		c1,5.6,3.9,15.9,6,21.2C332.7,118.7,331.1,116.5,330.9,116z M350.8,97.5C350.7,97.4,350.7,97.4,350.8,97.5
		C350.7,97.4,350.7,97.4,350.8,97.5C350.7,97.4,350.8,97.4,350.8,97.5z M374.9,214.3l-17.1-33.2l-14.7-29.2l3,4l29.7,58.8
		L374.9,214.3z M365.5,198.3l-3.7-5.4l-21.6-40.1v-1L365.5,198.3z M353,188.3c0-0.4,0.1-0.5,0.5-0.5c0.2,0,0.5,0.2,0.7,0.5
		c0.4,1.2,1,2.3,1.4,3.4c1.1,2.2,2.2,4.3,3.4,6.4c1,1.9,2.3,3.6,2.9,5.7c1.1,3.3,3,6,4.8,8.9c0.7,1.2,1.3,2.4,2.1,3.6
		c0.2,0.4,0.5,0.7,0.5,1.1c0,0.7-1,1.7-1.4,2.2c-0.6,0.7-1.3,1.2-2.2,1.6c-2.1,0.7-2.5,2.8-4.3,3.6c-1.2,0.6-3,0.4-3.1-1.2
		c0-0.5,0.1-1.1,0.2-1.6c0.8-4.1-0.4-8-1.4-11.8c-0.8-3.3-1.3-6.5-1.9-9.8c-0.2-1.6-0.5-3.1-0.7-4.6c-0.2-1.3-0.6-2.5-0.7-3.9
		C353.5,191.5,352.9,189.3,353,188.3z M348.2,175.4L348.2,175.4L348.2,175.4L348.2,175.4z M348.2,175.4L348.2,175.4L348.2,175.4
		L348.2,175.4z M337.3,153.5l3.7,4.9l7.1,13.4c0,0,14.4,27.4,14.8,28.2c0.2,0.6,8.3,15.7,8.3,15.7l-0.5,0.6L337.3,153.5z
		 M333.2,131.1c0,0-4.5-12.1-4.6-12.2c0.1,0.1,1.3,1.3,1.3,1.3c1.1,3.6,2.5,7.1,4.2,10.5l0,0c1.6,3.1,3.1,8.4,3,8.6
		c0.4,0.1,3,1.1,4,1.3c0.1,0-3.6-12.3-3.6-12.3l0.5-0.5c1.4,3.7,4.2,13.2,4.2,13.2c1.9,0.6,6.6,2.4,7,2.5l1.6-0.4c0-0.4,0,0,0-0.4
		c0.7-1.8,0-4-0.2-5.8c-0.4-2.2-0.7-4.3-1.3-6.4c-0.7-3.1-2.2-5.9-3-8.9c-0.1-0.2-1.1-3.6-1.2-3.6c2.3-0.7,5.3,0.1,7.6,0.4
		c2.9,0.2,5.2,1.4,7.6,1.7c2.2,0.2,4.3,0.5,6.5,0.6c8.2,0.7,16.4,1.3,24.7,1.2c0.2,0,0.5,0,0.8-0.1c0.2-0.1,0.5-0.4,0.4-0.6
		c1,0.4,1.6,1.2,2.3,1.8c0.6,0.6,1.4,1.1,2.1,1.7c1.1,1,1.6,2.3,2.4,3.4c1,1.2,1.9,2.2,3,3.1c1.4,1.4,2.9,3,4.2,4.6
		c2.4,2.5,5.1,4.6,7.7,6.8c3.7,3.1,6.5,7.1,10.1,10.3c1.7,1.6,3.4,3,4.8,4.7c2.2,2.4,5.2,4.6,7.1,7.4c-0.2-0.1,2.5,3.3,2.8,4
		c0.1,0.7-0.2,1.6-0.6,2.3c-0.1,0.4-0.4,0.7-0.7,0.8c-0.4,0.2-0.8,0.1-1.2,0.1c-0.8,0.1-1.4,0.8-2.4,0.6c0,0-3.1,0.8-6.2,1.1
		c-1,0-1.8,1.1-2.1,1.3c-1.1,0.7,6.2,1.7,6.2,1.7l-1,1c0,0-7.1-1.3-6.4-2.4c0.2-0.4,1.1-1.9,2.5-2.5c1.1-0.5,2.5-0.7,4-1.1
		c-0.1,0-0.1-0.1-0.2-0.1s-0.2-0.1-0.4-0.1l-79.9-26.8l0,0c-3.4-1.1-6.5-2.4-9.9-3.4l-5.4-1.3l-0.1-1
		C335.9,137.6,333.2,131.2,333.2,131.1z M330.6,138c-1.6-4-3.7-7.2-5.7-11c-2.2-4.2-2.8-7.8-4.9-12.2c-2.1-4.3-5.1-9.5-6.3-14.1
		c-1.9-6.9-2.8-14-2.5-21c0,0,0.7,0.4,0.7,0.8c0.1,10.9,2.4,21.6,7.5,31.1c0.4,0.7,1.3,1.9,1.4,2.4c-1.4-4.7-2.5-9.4-4-14
		c-1.4-4.5-3.4-8.9-3.3-13.8l0.7,0.6c0,3.6,1.8,7,3,10.4s2.2,6.8,3,10.3c1.7,6.9,3.3,14,6.6,20.3c1.9,3.6,4.2,7,5.7,10.9L330.6,138z
		 M300.9,187.8c0,0,0.1,0,0.1-0.1L300.9,187.8L300.9,187.8z M287.1,177.8c0.4-1.7,0.7-3.4,1.2-5.1c1-3.9,1.9-7.6,2.4-11.6
		c0.1-1.4,0.2-3,0.4-4.5c0-1.2-0.1-2.8,0.2-4c0.4-1,0.1-2.2,0-3.1c0-0.1,0-0.2,0-0.4c0.2-0.7,1.7-0.5,1.8,0.2
		c1.4,7.1,3.1,14.2,5.3,21.1c1.2,3.9,2.8,7.5,4,11.2c2.3,1.9,4.7,3.6,7.2,5.3s6.3,3.9,8.9,6.6c-2.5-1.2-3.5-2.2-4.8-3
		c-4.1-2.4-9.3-5.7-13.5-8.4c-1.9-0.6-3.6-2.2-5.6-2.7c-1.1-0.2-2.2-0.4-3.3-0.6c-0.2,0-0.6-0.1-0.8-0.2
		C290.1,178.9,287.1,177.9,287.1,177.8z M274.3,183.5L274.3,183.5L274.3,183.5L274.3,183.5L274.3,183.5z"/>
	<path d="M306.4,205.3C306.4,205.5,306.4,205.5,306.4,205.3c0.1,1.9,0.8,3.6,1.1,5.4c0.1,0.7,0.5,1.3,0.7,1.9c0,0.1,0,0.1,0.1,0.2
		c0.1,0.4,0.2,0.8,0.2,1.2c0,1.2,0.6,2.3,1,3.5c0.8,3.3,2.2,6.4,3.1,9.7c1.3,4.2,2.5,8.4,3.6,12.7c1.2,4.7,2.7,9.5,3.9,14.2
		c0.1,0.5,0.1,1,0.4,1.3c0.4,1,0.1,1.8-0.5,2.4c-3.1,3.7-3.7,8.1-3.3,12.8c0.6,5.4,1.2,10.7,1.9,16.1c1.1,8.2,3,16.3,4.1,24.5
		c0.6,4.5,0.4,9.1,0.1,13.6c-0.8,14.4-1.2,27.8-0.1,42.1c1.1,14.7,1.7,29.5,2.1,44.1c0.8,28.5,0.8,57.5,2.1,85.7c0,0.5,0,0.8,0,1.3
		c0.1,3.1,0.1,6.3,0.5,9.4c0.1,0.7,0,1.4,0,2.2c0,2.5,0,5.2,0.1,7.7c0.4,12.6-0.8,25.6,3.7,37.5c0.1,0.4,0.5,0.5,0.8,0.5
		c0,0.2,0.1,0.6,0.4,0.7c1.2,0.7,2.4,1.6,3.6,2.3c0.4,0.2,0.7,0.1,0.8-0.4c0.1-0.2,0-0.5,0-0.8V557c0.4-0.7,0.6-0.8,1.4-0.7
		c1.9,0.6,3.9,1.2,5.8,1.9c8.1,2.9,16.2,5.6,24.3,8.4c0.1,0,0.2,0.1,0.4,0.1c0.5,0.2,1,0.2,1.4,0.2s0.7-0.1,1.1-0.4
		c0.2-0.1,0.5-0.4,0.6-0.6c-0.2-0.1-0.4-0.2-0.5-0.5c-1.9-1.6-3.5-3.4-5.6-4.6c-0.1-0.2-0.2-0.5-0.6-0.5c-0.5-0.4-1-0.7-1.4-1.2
		c-0.4-0.6-1-1-1.4-1.4c-2.1-0.8-4-1.9-5.9-2.8c-3.3-1.6-7.2-5.4-8-9.1c-0.1-0.8,1.2-1.3,1.3-0.5c0.7,3.9,5.1,7.1,8.3,8.7
		c1.8,0.8,3.5,1.7,5.3,2.5c0.7,0,1.3,0,2.1-0.1c0.6,0,1.3,0,1.9,0c0.5,0,0.8-0.1,1.3-0.1c0.2,0,0.6,0,0.8,0c0.2,0,0.5,0.1,0.7,0.1
		c0.4,0,0.7,0,1.1,0c4.1-0.4,9.1,0.6,13.3,0.8c1,0,6.5-1,6.8-0.8c-2.5-1-4.9-1.9-7.4-2.8c-1.1-0.4-2.1-0.8-3-1.3
		c-2.7-1.2-5.4-2.1-8.1-3.3c-0.6-0.2-1.2-0.5-1.9-0.6c-1.1-0.2-1.8-0.6-1.7-1.7c0.7-20.4,1.2-40.8,3.1-61.1
		c1.7-18.2-0.5-37.4,3.9-55.3c4-16.3,7.4-32.8,11.1-49.3c0.1-0.5,0.2-1.1,0.4-1.6c2.9-11.1-0.4-19.2-3.3-30.1
		c-2.8-10.3-5.7-20.6-8.4-30.9c-5.6-20.6-10.6-41.4-14.4-62.4c-0.5-3-1-6.2-1.4-9.2c-0.1-0.6-0.1-1.2-0.1-1.8c0-1.3-0.1-2.7-0.5-4
		c0-0.1-0.1-0.4,0-0.6c0.2-1,0.1-1.9,0-2.9c-1-0.1-1.7-0.1-1.9-0.1c-1.2,0.1-2.8,1.2-6.2-1c-3.4-2.2-3.6-4-5.8-5.7
		C343.6,230.3,314.9,211,306.4,205.3z M344.9,540.1c0.2-2.7,0.1-5.2,0.5-7.8c0.4-2.9,1.1-5.8,1.6-8.7c0.8-5.2,1.1-11.1,0.2-16.2
		c0-0.2,0-0.4,0.1-0.5c0-9.9,1-19.8,1-29.7c-0.2-0.1-0.5-0.2-0.5-0.6c0.2-5.6,0.4-11.2,1.1-16.8c0.5-3.4,1.6-6.6,1.9-10
		c0.2-3,0-6.2-0.1-9.2c0,0,0,0,0-0.1c-0.1-6.2,0.5-12.4,1.1-18.6c0.4-4.2,1.1-8.3,1.1-12.6c0-4.3-0.8-8.6-1-12.8
		c-0.1-5.8,0.1-11.6,0.4-17.4c0.4-10.1,0.4-20.3,1.4-30.4c0.7-7.5,2.3-14.7,2.4-22.3c0-1,0.2-1.9,0.2-2.9c0.1-1,0.2-1.9,0.2-2.9
		c0.7-7.8,1-15.8,0.8-23.8c-0.1-7.6-1.7-15.7-0.5-23.2c0.1-0.8,1.6-0.6,1.3,0.4c-0.2,1.8,0,3.9,0.4,5.7c1.1,5.8-0.1,12.2-0.1,18.1
		c0,4.9-0.1,9.9,0,14.7c0,4.7-1.1,9.3-1.1,13.9c-0.1,6.8-1.3,13.4-2.2,20c-1.8,14-1.7,28.2-2.1,42.4c-0.1,3.5,0,7,0.1,10.5
		c0.1,3.1,1,6.2,0.8,9.4c-0.1,3.5-0.5,6.9-0.7,10.4c-0.6,6.9-1.8,13.9-1.3,20.8l0,0c0.1,5.7,0.2,10.9-1.1,16.4
		c-1.4,6.6-1.6,13.5-1.8,20.3c0.2,0.1,0.5,0.2,0.5,0.6c0,10.1-1,20.2-1,30.3c0,0.1,0,0.2-0.1,0.4c0.7,4.9,0.4,10.1-0.1,15.1
		c-0.4,2.9-1.1,5.8-1.6,8.7c-0.5,3-0.4,6-0.6,9.1C346.3,541.3,344.8,540.9,344.9,540.1z"/>
</g>
</svg>
