<svg id="Warstwa_1" data-name="Warstwa 1" xmlns="http://www.w3.org/2000/svg" viewBox="0 0 50 50"><defs><style>.cls-1{fill:#fff}</style></defs><title>Bez nazwy-2</title><path d="M25.7 47.33c-1.68 0-4.07-.55-5.22-1.93s-.07-3.24.48-4.71a1.21 1.21 0 0 0-.38-1.55 1.82 1.82 0 0 1-.5-2.09 2.91 2.91 0 0 1 1.53-1.73c.89-.56.62-1-.13-1.51-.5-.35-1-1-.43-1.59.44-.45 1.4-.22 1.36-1.16 0-.79-1.05-.73-1.59-1.1a2.07 2.07 0 0 1-.77-2c.28-2 2.35-2.47 3.59-3.71a1.91 1.91 0 0 0 .67-2.14c-.41-.84-1.15-1.61-1.64-2.42a22.75 22.75 0 0 1-2.43-5.45c-.2-.73-.52-1.23-.14-1.94a6.72 6.72 0 0 1 1.9-2.11 12.55 12.55 0 0 1 11.15-2.27c3.48 1 6 4.34 7.33 7.52 1.57 3.78 1.76 8.18-.46 11.77a35.69 35.69 0 0 1-4.27 5.08c-1.6 1.74-2 3.66-2.58 5.9A19.49 19.49 0 0 1 31 44.54a6 6 0 0 1-5.3 2.79zm-2.18-14.19c.7 1.19 1.23 3-.47 3.63-.47.19-1.18.38-1 1.11.07.28.46.53.62.76a3 3 0 0 1 .52 1.29c.18 1.33-1.91 3.16-.95 4.38.79 1 3.21 1.35 4.36 1.09 3.19-.73 4-5 4.6-7.64a19.23 19.23 0 0 1 1.49-4.89 16.37 16.37 0 0 1 3.14-3.61 12.36 12.36 0 0 0 3.93-8.63 13.7 13.7 0 0 0-4.06-9c-2.41-2.39-6.15-2.7-9.24-1.59a9.15 9.15 0 0 0-4.12 2.59c-.87 1.11.4 3.22 1 4.32.84 1.66 2.22 3.06 3 4.75s-.33 3.27-1.69 4.23a9.55 9.55 0 0 0-2.15 1.48 1.53 1.53 0 0 0-.34 1c.1.35.76.45 1.13.65 1.58.94 1.36 2.79.23 4.08zm-7.27-18.09a2.38 2.38 0 0 1-1.09 2.28 2.14 2.14 0 0 1-3.07-.33c-.36-.48-.32-.57-.81 0-.34.44-.4 1.06-.73 1.47-.83 1-1.78-.47-1.45-1.33A7 7 0 0 1 14.74 13c.84-.09 2.5-.09 3.09.67a1.3 1.3 0 0 1 0 1.46c-.46.5-1.07.11-1.58-.08zm-1.79.1c-.15-.17-.68.08-.87.13.55.32.54.41.87-.13zm-.3-6.76c1.17 0 2.94.28 3.7 1.3.55.74-.15 2.26-1.15 1.66-.51-.31-.76-.67-1.39-.81a5.19 5.19 0 0 0-2 0 6.75 6.75 0 0 0-3.41 1.81 5.81 5.81 0 0 0-1.11 1.54c-.21.44-.36 1-.94 1s-.89-.56-1-1.05a3 3 0 0 1 .75-1.76 8.86 8.86 0 0 1 6.55-3.69z"/><path class="cls-1" d="M14.46 15.15c-.33.54-.32.45-.87.13.19-.05.72-.28.87-.13z"/><path d="M37.28 21.47c-.09.66 0 2-.68 2.33s-1.75 0-1.8-.74c0-.33.3-.77.37-1.1a3.76 3.76 0 0 0 0-1.53 11.35 11.35 0 0 0-1.08-2.8 4.65 4.65 0 0 0-3.93-2.71 4.25 4.25 0 0 0-2.59.15c-.61.27-1.06 1-1.65 1.23a1.13 1.13 0 0 1-1.42-.86c-.07-.76.85-1.35 1.4-1.72 1.76-1.16 3.85-.85 5.79-.41a5.9 5.9 0 0 1 3.85 3.08 12.69 12.69 0 0 1 1.26 2.72c.06.22.42 2.35.48 2.36zM29.29 31.9a6.15 6.15 0 0 1-.75 3.1c-.37.68-1.29 1.94-2.21 1.18s.09-1.6.41-2.23a5.18 5.18 0 0 0 .5-3.1 3 3 0 0 0-1.49-2.12c-.61-.43-1.21-1.65 0-1.76 1-.09 2.09 1.1 2.62 1.78a4.71 4.71 0 0 1 .92 3.15z"/></svg>