<svg id="Warstwa_1" data-name="Warstwa 1" xmlns="http://www.w3.org/2000/svg" viewBox="0 0 50 70">
  <title>kontakt</title>
  <path d="M34.78,56.31a20.4,20.4,0,0,1-2.69,6.63c-2.24,3.56-5.63,6.47-10,6.61-2.59.09-7.66-1.55-8.83-4.23-.82-1.89.46-2.92,2.21-2.6,1.91.35,3.38,2.22,5.26,2.77,9.79,2.9,10.41-14.35,12.73-19.74,3.2-7.44,9.74-13.15,11.35-21.31,1.35-6.84-1.76-14.69-8.1-17.93s-13.6-1.95-19.24,2c-1.32.93-2.5,2.57-3.91,3.32-2.07,1.11-3.22-.55-2.4-2.52,1.42-3.44,6.45-6,9.72-7.21,7-2.67,15.29-1.82,21.17,3.1,7.4,6.19,8.73,17,4.95,25.61A51,51,0,0,1,40.52,41.1,23.52,23.52,0,0,0,37,47C36.64,48,34.85,56,34.78,56.31Z"/>
  <path d="M41,20.06c0,1.31.23,7.4-2.56,6.75-1.66-.39-1.1-2.37-.95-3.48A9.37,9.37,0,0,0,37,18.82c-1.18-3.09-4.14-6-7.48-6.45-3.86-.48-6.27,1.27-9.34,3.17-.91.57-1.85,1.33-2.76.12-1.17-1.57.76-3.33,1.84-4.18a14.27,14.27,0,0,1,7.47-3C32.8,8,41.21,13.2,41,20.06Z"/>
  <path d="M3.89,38.74a65.53,65.53,0,0,1,9.71-.07c2,.08,7.21,1,5,4.08C17,45,11.43,43.94,9,43.9c-1.13,0-4.42.44-5.24-.33C2.76,42.65,3.45,39.76,3.89,38.74Z"/>
  <path d="M12.06,32.52A43,43,0,0,1,5,32.37c-1.67-.21-1.53-.53-1.53-2.16,0-1-.48-1.91.41-2.59s2.75-.18,3.72-.15c2.89.09,8.29-.8,10.74,1.08,1.18.9,1.61,2.49.32,3.51C17.14,33.23,13.86,32.61,12.06,32.52Z"/>
  <path d="M25.82,27.5c1.59.34,3.21.92,3.24,2.91a3.31,3.31,0,0,1-4,3C21.1,32.6,22.55,27.94,25.82,27.5Z"/>
  <path d="M23.7,44.57c-1.06-1.26-1.75-2.12-1.05-3.75a2.91,2.91,0,0,1,4.11-1.53,3.22,3.22,0,0,1,1.75,3.83C27.69,45.14,25.39,45,23.7,44.57Z"/>
</svg>
