<svg id="Warstwa_1" xmlns="http://www.w3.org/2000/svg" viewBox="0 0 36 11.5"><style>.st0{fill:#434343}.st1{fill:#9a9a9a}</style><path class="st0" d="M15.1 9.4c-.1-.3-.3-.4-2.2-.4h-2.6v-.1h.2c.5 0 .6-.2.6-.6V3.1c0-.3-.1-.6-.6-.6h-.2 3.1v.1h-.2c-.5 0-.6.2-.6.6V9h.5c.8 0 1.7-1 2.1-3.4h.1c-.1.8-.2 2.6-.2 3.8zm.6-.5h.2c.5 0 .6-.2.6-.6V3.1c0-.3-.1-.6-.6-.6h-.2 3.1v.1h-.2c-.5 0-.6.2-.6.6v5.2c0 .3.1.6.6.6h.2l-3.1-.1z"/><path class="st0" d="M19.6 3.3c-.2-.5-.3-.7-.8-.7h-.1v-.1h3.6v.1H22c-.3 0-.6.1-.6.4 0 .1 0 .2.1.3l1.4 3.6 1.2-3.4c.1-.2.1-.3.1-.4 0-.4-.2-.6-.5-.6h-.3 1.9v.1h-.1c-.4 0-.8.4-1 1.1l-2 5.5h-.1l-2.5-5.9z"/><path class="st0" d="M29.9 9.4c-.2-.3-.3-.4-2.2-.4h-2.5v-.1h.2c.5 0 .6-.2.6-.6V3.1c0-.3-.1-.6-.6-.6h-.2 2.7c1.6 0 1.8 0 2-.3-.1.5-.1 1.6-.1 2.6h-.1c-.2-1.6-.4-2.3-1.6-2.3h-.7v2.9c1 0 1.2-.3 1.4-1.1h.1c-.1.5-.1 1.5 0 2.5h-.1c-.2-1.1-.4-1.4-1.5-1.4v3.4h.7c.9 0 1.8-.6 2.2-2.8h.1c-.2 1-.4 2.2-.4 3.4z"/><path class="st1" d="M6.4 1.1H4.8c-.2 1.1-.8 2.2-1.6 3-.8.8-1.9 1.4-3 1.5v1.6c1.6-.2 3-.9 4.2-2 1.1-1.1 1.8-2.6 2-4.1"/><path class="st1" d="M4.2 1.1H2.5c-.2.5-.5 1-.9 1.5-.4.4-.9.6-1.4.8V5c1-.2 1.9-.6 2.6-1.3C3.5 2.9 4 2 4.2 1.1m-2.3 0H.2v1.7c.4-.1.7-.3 1-.6.3-.4.5-.7.7-1.1M4.3 6C3.1 7 1.7 7.6.2 7.8v2.8h7.2L4.3 6z"/></svg>