<?xml version="1.0" encoding="utf-8"?>
<!-- Generator: Adobe Illustrator 23.0.1, SVG Export Plug-In . SVG Version: 6.00 Build 0)  -->
<svg version="1.1" id="Warstwa_1" xmlns="http://www.w3.org/2000/svg" xmlns:xlink="http://www.w3.org/1999/xlink" x="0px" y="0px"
	 viewBox="0 0 80 80" style="enable-background:new 0 0 80 80;" xml:space="preserve">
<style type="text/css">
	.st0{fill:#FFFFFF;}
</style>
<g>
	<path class="st0" d="M48.8,2.3c-0.3,2.1-0.8,4.1-1.4,6.1c-4,13.2-14.1,23.8-27,28.5c-2.9,1.1-5.8,1.8-8.9,2.3v12.5
		c14.2-1.5,27.3-8.3,36.7-19.2c7.3-8.5,12.4-19,13.7-30.1H48.8z"/>
	<path class="st0" d="M17.8,18.7c-2,1.1-4.1,2-6.3,2.5v12.6c16.3-2.5,29.2-15.3,31.9-31.5H30.7C28.8,9.4,24.1,15.3,17.8,18.7z"/>
	<path class="st0" d="M11.5,15.7C18,13.7,23.1,8.7,25.2,2.3H11.5V15.7z"/>
	<path class="st0" d="M45.1,42.9c-8.7,7.3-19.4,12.1-30.7,13.7c-1,0.1-2,0.3-2.9,0.4v22.7H70L45.1,42.9z"/>
</g>
</svg>
