<svg xmlns="http://www.w3.org/2000/svg" viewBox="0 0 30.5 11.5"><path d="M6.9.9h1.5l1 1.2.9-1.2h1.5l-.1 4.3H10l-.1-1.5-.8.9-.6-.8v1.4H6.8L6.9.9zm6.8 4.3c-.9-.4-1.4-1.2-1.4-2 .1-1.2.7-1.9 1.5-2.2h1.6c1.1.3 1.4 1.2 1.5 2.1-.1.9-.4 1.8-1.3 2.1h-1.9zm.4-2.5c-.2.6.1.9.4.9.3 0 .5-.2.6-.5.1-.4-.4-.9-1-.4zm3.1 1.2c.3-.1.6-.2.8-.5V.9h1.7v3.3c-.2.5-.6.8-1 .9h-1.4V3.9zm3.3-3h3.2v1.2l-1.5.1v.3l1.6.1v.9l-1.5.1v.3l1.4.1v1.2h-2.5l-.6-.2-.1-4.1zm-16 5.5h2.7c.5.1.8.2 1.2.7v1.2c-.2.3-.4.5-.6.6l1 1.8H7l-.8-1.2v1.2H4.5V6.4zm1.7 1.1c-.2.2-.2.3 0 .5.3.1.4 0 .5-.2 0-.2-.1-.3-.5-.3zm3.9-1.1h2.1l1.4 4.3h-1.9l-.3-.9h-.5l-.3 1H8.8l1.3-4.4zm1.1 1.5c-.1 0-.2.5-.3.7.2 0 .4 0 .6-.1l-.3-.6zm2.9-1.5h2.3c1 .2 1.8.7 2 1.8 0 .3 0 .6-.1 1.1-.4.7-1.2 1.1-2.1 1.4H14l.1-4.3zm1.6 2.7h.4c.3 0 .5-.2.6-.6-.1-.4-.3-.5-.7-.6h-.2l-.1 1.2zm3.4-2.7h1.7v4.3H19l.1-4.3zm3.8 4.3c-.9-.4-1.4-1.2-1.4-2 .1-1.2.7-1.9 1.5-2.2h1.6c1.1.3 1.4 1.2 1.5 2.1-.1.9-.4 1.8-1.3 2.1h-1.9zm.5-2.5c-.2.6.1.9.4.9.3 0 .5-.2.6-.5 0-.4-.5-.9-1-.4z"/></svg>