<svg id="Warstwa_1" xmlns="http://www.w3.org/2000/svg" viewBox="0 0 320.5 187.2"><style>.st0{fill:#d9081e}.st1{fill:#3a3a39}</style><path class="st0" d="M106.2 53.9h-14C90.6 63.6 86 72.4 79 79.3c-7 6.9-15.9 11.3-25.5 12.8v13.4c13.3-1.6 25.6-7.4 35.3-16.9 9.5-9.5 15.6-21.6 17.4-34.7z"/><path class="st0" d="M87.1 53.9H72.9c-1.2 4.8-3.6 9.1-7.2 12.7-3.4 3.4-7.6 5.7-12.2 6.9V87c8.3-1.4 15.9-5.3 22-11.3 6.1-5.9 10-13.5 11.6-21.8zm-19.4 0H53.5v14.4c3.2-1 6.2-2.8 8.7-5.3 2.6-2.5 4.5-5.6 5.5-9.1zm20.5 41.9c-9.9 8.3-21.9 13.4-34.7 14.7V134H114L88.2 95.8z"/><path class="st1" d="M133.7 71.9V54h6.8c.8 0 1.5.1 2.2.4.6.3 1.2.7 1.7 1.2s.8 1.1 1.1 1.8c.3.7.4 1.4.4 2.2 0 .8-.1 1.5-.4 2.1-.3.7-.6 1.3-1.1 1.8-.5.5-1 .9-1.7 1.3-.7.3-1.4.5-2.1.5h-3.3v6.8h-3.6zm3.5-9.2h2.5c.4 0 .8-.1 1.2-.3.3-.2.6-.4.8-.7.2-.3.4-.6.5-1 .1-.4.1-.8.1-1.2s-.1-.8-.2-1.1c-.1-.4-.3-.7-.5-.9-.2-.3-.5-.5-.8-.6-.3-.2-.7-.2-1.1-.2h-2.5v6zm9.3 2.5c0-1 .2-2 .5-2.8.3-.8.8-1.6 1.4-2.2.6-.6 1.3-1.1 2.2-1.4.8-.3 1.8-.5 2.8-.5 1.1 0 2 .2 2.9.5.8.3 1.6.8 2.2 1.4.6.6 1 1.3 1.4 2.2.3.9.5 1.8.5 2.9 0 1.1-.2 2-.5 2.9-.3.9-.8 1.6-1.4 2.2-.6.6-1.3 1.1-2.2 1.4-.9.3-1.8.5-2.9.5-1 0-2-.2-2.8-.5-.9-.3-1.6-.8-2.2-1.4-.6-.6-1.1-1.4-1.4-2.2-.4-1-.5-2-.5-3zm3.3 0c0 .6.1 1.1.2 1.6s.3 1 .6 1.4c.3.4.6.8 1.1 1 .4.3 1 .4 1.6.4.6 0 1.2-.1 1.6-.4.4-.3.8-.6 1.1-1 .3-.4.5-.9.6-1.4.1-.5.2-1.1.2-1.7 0-.6-.1-1.1-.2-1.7-.1-.5-.3-1-.6-1.4-.3-.4-.6-.7-1.1-1-.4-.2-1-.4-1.7-.4-.6 0-1.2.1-1.6.4-.4.3-.8.6-1.1 1-.3.4-.5.9-.6 1.4 0 .7-.1 1.3-.1 1.8zm13.4 6.7V54l3.2-.5V72h-3.2zm6.7-3.1c.2.1.4.2.7.3.3.1.6.2.9.4.3.1.7.2 1 .3.4.1.7.1 1 .1.6 0 1.1-.1 1.5-.3.4-.2.6-.6.6-1.2 0-.3-.1-.6-.4-.9-.3-.3-.7-.5-1.1-.8-.4-.3-.9-.5-1.5-.8l-1.5-.9c-.4-.4-.8-.8-1.1-1.2-.3-.5-.4-1-.4-1.7 0-.6.1-1.2.4-1.7.3-.5.6-.9 1.1-1.2.5-.3 1-.6 1.6-.8.6-.2 1.3-.3 2-.3s1.3.1 1.9.2c.6.1 1.2.4 1.6.8l-.8 2.1c-.5-.3-1-.5-1.4-.6-.5-.1-.9-.2-1.4-.2-.5 0-.9.1-1.3.3-.4.2-.6.5-.6.9 0 .3.1.6.4.9.3.3.7.5 1.1.8.4.3.9.5 1.4.8.5.3 1 .6 1.4.9.4.4.8.8 1.1 1.3.3.5.4 1.1.4 1.7 0 .7-.1 1.3-.4 1.8-.3.5-.6.9-1.1 1.3-.5.3-1 .6-1.7.8-.6.2-1.4.3-2.1.3-.8 0-1.6-.1-2.4-.3-.8-.2-1.5-.5-2-.9l1.1-2.2zm11.9 3.1V54l3.2-.5v10.2c.2 0 .5 0 .7-.1.3-.1.5-.2.8-.4.2-.2.5-.3.7-.5l.6-.6c.4-.5.7-1 1-1.6.3-.6.6-1.2.8-1.9h3.2c-.3 1.2-.8 2.3-1.5 3.3s-1.6 1.8-2.5 2.6l4.8 7.5h-3.9l-3.7-6.2h-1V72h-3.2zM195.5 56v-3h3.2v3h-3.2zm0 15.9V58.5h3.2v13.4h-3.2zm9.8-5.8c0 1.2.3 2.1 1 2.7.7.6 1.6.9 2.7.9h1.1c.3 0 .7-.1 1-.1s.7-.2 1.1-.3c.4-.1.8-.3 1.3-.4l.6 2.3c-1 .5-2 .8-2.8.9-.9.1-1.7.2-2.6.2-1.1 0-2-.2-2.9-.5-.8-.3-1.6-.8-2.1-1.4-.6-.6-1-1.4-1.3-2.2-.3-.9-.4-1.8-.4-2.9 0-1 .1-1.9.4-2.8.3-.8.7-1.6 1.2-2.2s1.2-1.1 2-1.4c.8-.3 1.7-.5 2.8-.5 1.2 0 2.2.2 3 .6.8.4 1.4 1 1.9 1.7s.8 1.5 1 2.5c.2 1 .3 2 .3 3h-9.3zm5.9-2.2c0-.9-.2-1.7-.7-2.2-.5-.6-1.2-.9-2.2-.9-1 0-1.7.3-2.2.8-.5.6-.8 1.3-.8 2.2h5.9zM134 103.1v-18h7c.8 0 1.4.1 2.1.4.6.3 1.2.7 1.6 1.2.4.5.8 1.1 1 1.7.3.7.4 1.3.4 2.1 0 .6-.1 1.1-.3 1.6-.2.5-.5.9-.8 1.3-.3.4-.7.7-1.1 1-.4.3-.9.5-1.4.7l4.9 8h-3.9l-4.4-7.4h-1.5v7.4H134zm3.5-9.8h2.8c.8 0 1.5-.3 1.8-.8.4-.6.6-1.2.6-2s-.2-1.4-.6-2c-.4-.6-1-.8-1.8-.8h-2.7v5.6zm19.7 9.8l-.6-.9c-.6.3-1.2.6-1.8.8-.6.2-1.3.3-2 .3-.6 0-1.1-.1-1.6-.3s-.9-.5-1.3-.9-.6-.8-.8-1.3c-.2-.5-.3-1.1-.3-1.7 0-.9.3-1.7.8-2.3.5-.6 1.2-1.1 2-1.4.8-.4 1.6-.6 2.5-.8s1.7-.3 2.4-.5c0-.5-.1-.9-.2-1.2-.1-.3-.3-.5-.6-.7-.2-.1-.5-.2-.8-.3-.3 0-.7-.1-1-.1-.6 0-1.2.1-1.9.3-.6.2-1.2.4-1.7.6l-.5-2.4c.7-.4 1.5-.6 2.4-.8.9-.2 1.7-.3 2.5-.3.6 0 1.2.1 1.8.2.6.2 1.1.4 1.6.7.5.3.8.8 1.1 1.3.3.5.4 1.2.4 1.9v9.5h-2.4zm-.8-7c-.4.1-.9.2-1.5.3-.5.1-1 .2-1.5.4-.4.2-.8.4-1.1.8-.3.3-.5.8-.5 1.4 0 .3 0 .6.1.8.1.3.2.5.3.7.1.2.3.4.5.5.2.1.4.2.7.2.5 0 1-.1 1.5-.3.5-.2.9-.4 1.4-.7v-4.1zm15.3 6.1c-.4.4-.9.7-1.5.9-.6.2-1.2.3-1.8.3-1.1 0-2-.2-2.8-.5-.8-.4-1.4-.8-1.9-1.5-.5-.6-.9-1.3-1.1-2.2-.2-.8-.4-1.8-.4-2.8 0-1 .1-1.9.4-2.8.3-.9.7-1.6 1.2-2.2.5-.6 1.2-1.1 2-1.5.8-.4 1.7-.5 2.8-.5.5 0 1 .1 1.6.2.6.1 1 .3 1.4.6v-5.1l3.2-.5v18.5h-2.5l-.6-.9zm-.1-9.5c-.3-.3-.6-.4-1.1-.6-.5-.1-1.1-.2-1.9-.2-.6 0-1.2.1-1.6.4-.4.3-.7.6-.9 1.1-.2.4-.4.9-.5 1.4-.1.5-.1 1.1-.1 1.6s0 1 .1 1.6c.1.5.2 1 .5 1.4.2.4.5.8.9 1 .4.3.9.4 1.6.4.6 0 1.1-.1 1.6-.2s1-.3 1.3-.5v-7.4zm7.2-5.6v-2.9h3.2v2.9h-3.2zm0 16V89.7h3.2v13.4h-3.2zm6.3-6.7c0-1 .2-2 .5-2.8.3-.8.8-1.6 1.4-2.2.6-.6 1.3-1.1 2.2-1.4.8-.3 1.8-.5 2.8-.5 1.1 0 2 .2 2.9.5.8.3 1.6.8 2.2 1.4.6.6 1 1.3 1.4 2.2.3.9.5 1.8.5 2.9s-.2 2-.5 2.9c-.3.9-.8 1.6-1.4 2.2-.6.6-1.3 1.1-2.2 1.4-.8.3-1.8.5-2.9.5-1 0-2-.2-2.8-.5-.9-.3-1.6-.8-2.2-1.4-.6-.6-1.1-1.4-1.4-2.2-.3-1.1-.5-2-.5-3zm3.4 0c0 .6.1 1.1.2 1.6s.3 1 .6 1.4c.3.4.6.8 1.1 1 .4.3 1 .4 1.6.4.6 0 1.2-.1 1.6-.4.4-.3.8-.6 1.1-1 .3-.4.5-.9.6-1.4s.2-1.1.2-1.7c0-.6-.1-1.1-.2-1.7-.1-.5-.3-1-.6-1.4-.3-.4-.6-.7-1.1-1-.4-.2-1-.4-1.7-.4-.6 0-1.2.1-1.6.4-.4.3-.8.6-1.1 1-.3.4-.5.9-.6 1.4-.1.7-.1 1.2-.1 1.8zM137.9 126h-.8v8.2h-3.5v-18h3.5v7.6h.4c.9-.3 1.7-.7 2.3-1.2.7-.6 1.3-1.2 1.7-2 .5-.7.9-1.5 1.2-2.3.3-.8.6-1.5.7-2.2h3.3c-.4 1.8-1.1 3.5-2 5-.9 1.5-2.2 2.8-3.8 3.9l6.9 9.1h-4.3l-5.6-8.1zm19.3 8.2l-.6-.9c-.6.3-1.2.6-1.8.8-.6.2-1.3.3-2 .3-.6 0-1.1-.1-1.6-.3-.5-.2-.9-.5-1.3-.9s-.6-.8-.8-1.3c-.2-.5-.3-1.1-.3-1.7 0-.9.3-1.7.8-2.3.5-.6 1.2-1.1 2-1.4.8-.4 1.6-.6 2.5-.8.9-.2 1.7-.3 2.4-.5 0-.5-.1-.9-.2-1.2-.1-.3-.3-.5-.6-.7-.2-.1-.5-.2-.8-.3-.3 0-.7-.1-1-.1-.6 0-1.2.1-1.9.3-.6.2-1.2.4-1.7.6l-.5-2.4c.7-.4 1.5-.6 2.4-.8.9-.2 1.7-.3 2.5-.3.6 0 1.2.1 1.8.2.6.2 1.1.4 1.6.7.5.3.8.8 1.1 1.3.3.5.4 1.2.4 1.9v9.5h-2.4zm-.7-6.9c-.4.1-.9.2-1.5.3-.5.1-1 .2-1.5.4-.4.2-.8.4-1.1.8-.3.3-.5.8-.5 1.4 0 .3 0 .6.1.8.1.3.2.5.3.7.1.2.3.4.5.5.2.1.4.2.7.2.5 0 1-.1 1.5-.3.5-.2.9-.4 1.4-.7v-4.1zm10.4 4c0 .3.1.5.4.6.2.1.5.2.8.2.4 0 .7 0 1-.1.3-.1.7-.2 1-.3l.5 2c-.6.3-1.2.5-1.8.6s-1.2.2-1.7.2c-.4 0-.8-.1-1.2-.2-.4-.1-.8-.3-1.1-.5-.3-.2-.6-.5-.8-.9-.2-.3-.3-.8-.3-1.2v-8.6H162v-2.3h2.1v-3.1l2.8-.5v3.6h3.1v2.3h-3.1v8.2zm4.9-3.8c0-1 .2-2 .5-2.8.3-.9.8-1.6 1.4-2.2.6-.6 1.3-1.1 2.2-1.4.8-.3 1.8-.5 2.8-.5 1.1 0 2 .2 2.9.5.8.3 1.6.8 2.2 1.4.6.6 1 1.3 1.4 2.2.3.9.5 1.8.5 2.9 0 1.1-.2 2-.5 2.9-.3.9-.8 1.6-1.4 2.2-.6.6-1.3 1.1-2.2 1.4-.9.3-1.8.5-2.9.5-1 0-2-.2-2.8-.5-.9-.3-1.6-.8-2.2-1.4-.6-.6-1.1-1.4-1.4-2.2-.3-1-.5-2-.5-3zm3.4 0c0 .6.1 1.1.2 1.6s.3 1 .6 1.4c.3.4.6.8 1.1 1 .4.3 1 .4 1.6.4.6 0 1.2-.1 1.6-.4.4-.3.8-.6 1.1-1 .3-.4.5-.9.6-1.4.1-.5.2-1.1.2-1.7 0-.6-.1-1.1-.2-1.7-.1-.5-.3-1-.6-1.4-.3-.4-.6-.7-1.1-1-.4-.2-1-.4-1.7-.4-.6 0-1.2.1-1.6.4-.4.3-.8.6-1.1 1-.3.4-.5.9-.6 1.4 0 .7-.1 1.3-.1 1.8zm22.6-2.8l-2.5 9.5h-4.7l-3.8-13.4h3.5l3.1 11.2 2.7-10.5h4.2l2.6 10.4 3.2-11.1h2.9l-4.1 13.4h-4.8l-2.3-9.5zm13.6-6.4v-2.9h3.2v2.9h-3.2zm0 15.9v-13.4h3.2v13.4h-3.2zm17.5-.8c-1 .4-1.8.7-2.5.9-.7.1-1.4.2-2.1.2-1.1 0-2-.2-2.8-.5-.8-.3-1.5-.8-2-1.5-.5-.6-.9-1.4-1.2-2.2-.3-.8-.4-1.8-.4-2.8 0-1 .1-1.9.4-2.8.3-.9.7-1.6 1.2-2.2.5-.6 1.2-1.1 2-1.5.8-.4 1.7-.5 2.8-.5.7 0 1.4.1 2.1.2.7.1 1.5.4 2.2.7l-.6 2.4c-.5-.2-1-.4-1.6-.5-.6-.2-1.2-.2-1.8-.2-.7 0-1.2.1-1.6.4-.4.3-.8.6-1 1.1-.3.4-.4.9-.5 1.4-.1.5-.1 1-.1 1.5s0 1 .1 1.5.3 1 .5 1.4c.2.4.6.8 1 1.1.4.3 1 .4 1.7.4 1.3 0 2.5-.3 3.8-.8l.5 2.4-.1-.1zm4.8-5c0 1.2.3 2.1 1 2.7.7.6 1.6.9 2.8.9h1.1c.3 0 .7-.1 1-.1.3-.1.7-.2 1.1-.3.4-.1.8-.3 1.3-.4l.6 2.3c-1 .5-2 .8-2.8.9-.9.1-1.7.2-2.6.2-1.1 0-2-.2-2.9-.5-.8-.3-1.6-.8-2.1-1.4-.6-.6-1-1.4-1.3-2.2-.3-.9-.4-1.8-.4-2.9 0-1 .1-1.9.4-2.8.3-.9.7-1.6 1.2-2.2.5-.6 1.2-1.1 2-1.4.8-.4 1.7-.5 2.8-.5 1.2 0 2.2.2 3 .6.8.4 1.4 1 1.9 1.7s.8 1.5 1 2.5c.2 1 .3 2 .3 3h-9.4zm5.9-2.2c0-.9-.2-1.7-.7-2.2-.5-.6-1.2-.9-2.2-.9-1 0-1.7.3-2.2.8-.5.6-.8 1.3-.8 2.2h5.9z"/></svg>