<?xml version="1.0" encoding="utf-8"?>
<!-- Generator: Adobe Illustrator 22.1.0, SVG Export Plug-In . SVG Version: 6.00 Build 0)  -->
<svg version="1.1" xmlns="http://www.w3.org/2000/svg" xmlns:xlink="http://www.w3.org/1999/xlink" x="0px" y="0px"
	 viewBox="0 0 478.9 88" style="enable-background:new 0 0 478.9 88;" xml:space="preserve">
<style type="text/css">
	.st0{fill:#FFFFFF;}
</style>
<g id="podlew">
</g>
<g id="Warstwa_1">
	<g>
		<path class="st0" d="M61.8,17.8c-0.2,1.4-0.6,2.8-1,4.1c-2.7,8.9-9.5,16-18.2,19.2c-1.9,0.7-3.9,1.2-6,1.5V51
			c9.5-1,18.4-5.6,24.7-12.9c4.9-5.7,8.4-12.8,9.2-20.3H61.8z"/>
		<path class="st0" d="M40.9,28.8c-1.3,0.7-2.8,1.3-4.2,1.7v8.5c10.9-1.7,19.6-10.3,21.5-21.2h-8.6C48.4,22.5,45.2,26.5,40.9,28.8z"
			/>
		<path class="st0" d="M36.7,26.7c4.3-1.3,7.8-4.7,9.2-9h-9.2V26.7z"/>
		<path class="st0" d="M59.3,45c-5.9,4.9-13,8.1-20.7,9.2c-0.6,0.1-1.3,0.2-2,0.3v15.2H76L59.3,45z"/>
	</g>
	<g>
		<path class="st0" d="M89.2,55.9V30.7h9.5c1.1,0,2.1,0.2,3,0.6c0.9,0.4,1.7,0.9,2.3,1.6c0.6,0.7,1.1,1.5,1.5,2.5
			c0.4,0.9,0.5,2,0.5,3c0,1.1-0.2,2.1-0.5,3c-0.4,1-0.9,1.8-1.5,2.5c-0.6,0.7-1.4,1.3-2.3,1.8c-0.9,0.4-1.9,0.7-3,0.7h-4.6v9.5H89.2
			z M94.1,42.9h3.6c0.6,0,1.2-0.1,1.6-0.4c0.5-0.3,0.8-0.6,1.1-1c0.3-0.4,0.5-0.9,0.6-1.4c0.1-0.5,0.2-1.1,0.2-1.6
			c0-0.6-0.1-1.1-0.2-1.6c-0.2-0.5-0.4-0.9-0.7-1.3c-0.3-0.4-0.7-0.7-1.1-0.9c-0.4-0.2-1-0.3-1.6-0.3h-3.6V42.9z"/>
		<path class="st0" d="M107,46.5c0-1.5,0.2-2.8,0.7-4c0.5-1.2,1.1-2.2,1.9-3.1c0.8-0.9,1.9-1.5,3-2c1.2-0.5,2.5-0.7,4-0.7
			c1.5,0,2.9,0.2,4,0.7c1.2,0.5,2.2,1.1,3,2c0.8,0.9,1.5,1.9,1.9,3.1c0.4,1.2,0.7,2.5,0.7,4c0,1.5-0.2,2.8-0.7,4
			c-0.4,1.2-1.1,2.2-1.9,3.1c-0.8,0.9-1.8,1.5-3,2c-1.2,0.5-2.5,0.7-4,0.7c-1.5,0-2.8-0.2-4-0.7c-1.2-0.5-2.2-1.2-3-2
			c-0.8-0.9-1.5-1.9-1.9-3.1S107,47.9,107,46.5z M111.7,46.5c0,0.8,0.1,1.5,0.3,2.3c0.2,0.8,0.5,1.4,0.9,2c0.4,0.6,0.9,1.1,1.5,1.4
			c0.6,0.4,1.4,0.5,2.3,0.5c0.9,0,1.7-0.2,2.3-0.5c0.6-0.4,1.1-0.8,1.5-1.4c0.4-0.6,0.7-1.3,0.8-2c0.2-0.8,0.3-1.5,0.3-2.3
			c0-0.8-0.1-1.6-0.2-2.3c-0.2-0.8-0.4-1.4-0.8-2c-0.4-0.6-0.9-1-1.5-1.4c-0.6-0.3-1.4-0.5-2.3-0.5c-0.9,0-1.7,0.2-2.3,0.5
			c-0.6,0.4-1.1,0.8-1.5,1.4c-0.4,0.6-0.7,1.2-0.9,2C111.8,44.9,111.7,45.7,111.7,46.5z"/>
		<path class="st0" d="M130.5,55.9V30.7l4.6-0.8v26H130.5z"/>
		<path class="st0" d="M140,51.5c0.2,0.1,0.5,0.3,0.9,0.5c0.4,0.2,0.8,0.3,1.3,0.5c0.5,0.2,1,0.3,1.5,0.4c0.5,0.1,1,0.2,1.4,0.2
			c0.9,0,1.6-0.2,2.1-0.5c0.6-0.3,0.9-0.9,0.9-1.7c0-0.5-0.2-0.9-0.6-1.2c-0.4-0.4-0.9-0.7-1.6-1.1c-0.6-0.4-1.3-0.7-2.1-1.1
			c-0.7-0.4-1.4-0.8-2.1-1.3c-0.6-0.5-1.1-1.1-1.6-1.7s-0.6-1.4-0.6-2.3c0-0.9,0.2-1.7,0.6-2.4c0.4-0.7,0.9-1.3,1.5-1.7
			c0.7-0.5,1.4-0.8,2.3-1.1c0.9-0.3,1.8-0.4,2.8-0.4c0.9,0,1.8,0.1,2.7,0.3c0.9,0.2,1.6,0.6,2.3,1.1l-1.1,3c-0.7-0.4-1.4-0.7-2-0.8
			c-0.7-0.1-1.3-0.2-2-0.2c-0.7,0-1.3,0.1-1.8,0.4c-0.5,0.3-0.8,0.7-0.8,1.3c0,0.5,0.2,0.9,0.6,1.3c0.4,0.4,0.9,0.7,1.6,1.1
			c0.6,0.4,1.3,0.7,2,1.1c0.7,0.4,1.4,0.8,2,1.3c0.6,0.5,1.1,1.1,1.6,1.8c0.4,0.7,0.6,1.5,0.6,2.4c0,1-0.2,1.8-0.5,2.5
			c-0.4,0.7-0.9,1.3-1.5,1.8c-0.7,0.5-1.4,0.8-2.3,1.1c-0.9,0.2-1.9,0.4-3,0.4c-1.1,0-2.2-0.1-3.4-0.5c-1.1-0.3-2-0.7-2.7-1.2
			L140,51.5z"/>
		<path class="st0" d="M156.6,55.9V30.7l4.6-0.8v14.3c0.3,0,0.7-0.1,1-0.2c0.4-0.1,0.7-0.3,1.1-0.5c0.3-0.2,0.7-0.5,1-0.7
			c0.3-0.3,0.6-0.6,0.8-0.8c0.5-0.7,1-1.4,1.4-2.2c0.4-0.8,0.8-1.7,1.1-2.6h4.4c-0.4,1.7-1.1,3.3-2.1,4.6c-1,1.4-2.2,2.6-3.5,3.7
			l6.8,10.5h-5.4l-5.2-8.7h-1.3v8.7H156.6z"/>
		<path class="st0" d="M175.8,33.5v-4.1h4.6v4.1H175.8z M175.8,55.9V37.1h4.6v18.8H175.8z"/>
		<path class="st0" d="M189.6,47.7c0,1.7,0.5,2.9,1.4,3.8c0.9,0.9,2.2,1.3,3.9,1.3c0.6,0,1.1,0,1.6-0.1c0.5,0,1-0.1,1.5-0.2
			c0.5-0.1,1-0.2,1.5-0.4c0.5-0.2,1.1-0.4,1.8-0.6l0.8,3.3c-1.4,0.7-2.7,1.1-4,1.3c-1.2,0.2-2.4,0.3-3.7,0.3c-1.5,0-2.9-0.2-4-0.7
			c-1.2-0.5-2.2-1.1-3-2c-0.8-0.9-1.4-1.9-1.8-3.1c-0.4-1.2-0.6-2.6-0.6-4.1c0-1.4,0.2-2.7,0.6-3.9c0.4-1.2,1-2.2,1.7-3.1
			c0.8-0.9,1.7-1.5,2.8-2c1.1-0.5,2.4-0.7,3.9-0.7c1.7,0,3.1,0.3,4.2,0.9c1.1,0.6,2,1.4,2.7,2.4c0.7,1,1.1,2.2,1.4,3.5
			c0.3,1.3,0.4,2.8,0.4,4.3H189.6z M197.9,44.6c0-1.3-0.3-2.3-1-3.1c-0.7-0.8-1.7-1.2-3.1-1.2c-1.4,0-2.4,0.4-3.1,1.2
			c-0.7,0.8-1.1,1.8-1.1,3.1H197.9z"/>
		<path class="st0" d="M216.8,55.9V30.7h9.8c1.1,0,2,0.2,2.9,0.6c0.9,0.4,1.6,1,2.2,1.7c0.6,0.7,1.1,1.5,1.4,2.4
			c0.4,0.9,0.5,1.9,0.5,2.9c0,0.8-0.1,1.5-0.4,2.2c-0.3,0.7-0.6,1.3-1.1,1.8c-0.5,0.5-1,1-1.6,1.4c-0.6,0.4-1.2,0.7-1.9,1l6.9,11.2
			H230l-6.2-10.4h-2.1v10.4H216.8z M221.7,42.2h3.9c1.2,0,2-0.4,2.6-1.2s0.8-1.7,0.8-2.8c0-1.1-0.3-2-0.8-2.8
			c-0.6-0.8-1.4-1.2-2.6-1.2h-3.8V42.2z"/>
		<path class="st0" d="M249.3,55.9l-0.9-1.3c-0.8,0.5-1.7,0.8-2.6,1.2c-0.9,0.3-1.8,0.5-2.7,0.5c-0.8,0-1.5-0.1-2.2-0.4
			c-0.7-0.3-1.3-0.7-1.8-1.2c-0.5-0.5-0.9-1.1-1.2-1.9c-0.3-0.7-0.4-1.5-0.4-2.4c0-1.3,0.4-2.4,1.1-3.2c0.7-0.8,1.7-1.5,2.7-2
			c1.1-0.5,2.3-0.9,3.5-1.2c1.2-0.3,2.4-0.5,3.3-0.7c0-0.7-0.1-1.3-0.3-1.7c-0.2-0.4-0.5-0.7-0.8-0.9c-0.3-0.2-0.7-0.3-1.2-0.4
			c-0.5-0.1-0.9-0.1-1.4-0.1c-0.9,0-1.7,0.1-2.6,0.4c-0.9,0.3-1.7,0.6-2.3,0.8l-0.6-3.3c1-0.5,2.2-0.9,3.4-1.1
			c1.2-0.2,2.4-0.4,3.5-0.4c0.9,0,1.7,0.1,2.6,0.3c0.8,0.2,1.6,0.6,2.2,1c0.6,0.5,1.2,1.1,1.5,1.8c0.4,0.8,0.6,1.7,0.6,2.7v13.3
			H249.3z M248.3,46.2c-0.6,0.1-1.3,0.2-2.1,0.4c-0.7,0.1-1.4,0.3-2.1,0.5c-0.6,0.3-1.2,0.6-1.6,1.1c-0.4,0.5-0.6,1.1-0.6,1.9
			c0,0.4,0.1,0.8,0.2,1.2c0.1,0.4,0.3,0.7,0.5,1c0.2,0.3,0.4,0.5,0.7,0.7c0.3,0.2,0.6,0.3,1,0.3c0.7,0,1.4-0.1,2.1-0.5
			c0.7-0.3,1.3-0.6,2-1V46.2z"/>
		<path class="st0" d="M269.7,54.6c-0.5,0.6-1.2,1-2.1,1.3c-0.9,0.3-1.7,0.4-2.5,0.4c-1.5,0-2.8-0.3-3.9-0.8c-1.1-0.5-2-1.2-2.7-2.1
			c-0.7-0.9-1.2-1.9-1.6-3.1c-0.3-1.2-0.5-2.5-0.5-3.9c0-1.4,0.2-2.7,0.6-3.9c0.4-1.2,1-2.2,1.7-3.1c0.8-0.9,1.7-1.6,2.8-2.1
			c1.1-0.5,2.4-0.8,3.9-0.8c0.7,0,1.4,0.1,2.2,0.3c0.8,0.2,1.4,0.5,1.9,0.9v-7.2l4.6-0.8v26h-3.5L269.7,54.6z M269.6,41.4
			c-0.4-0.4-0.9-0.6-1.6-0.8c-0.7-0.2-1.6-0.3-2.6-0.3c-0.9,0-1.6,0.2-2.2,0.6c-0.6,0.4-1,0.9-1.3,1.5c-0.3,0.6-0.5,1.3-0.6,2
			c-0.1,0.7-0.2,1.5-0.2,2.2c0,0.7,0.1,1.5,0.2,2.2c0.1,0.7,0.3,1.4,0.6,2c0.3,0.6,0.7,1.1,1.3,1.4c0.6,0.4,1.3,0.6,2.2,0.6
			c0.8,0,1.5-0.1,2.3-0.3c0.8-0.2,1.4-0.4,1.9-0.8V41.4z"/>
		<path class="st0" d="M279.6,33.5v-4.1h4.6v4.1H279.6z M279.6,55.9V37.1h4.6v18.8H279.6z"/>
		<path class="st0" d="M288.5,46.5c0-1.5,0.2-2.8,0.7-4c0.5-1.2,1.1-2.2,1.9-3.1s1.9-1.5,3-2c1.2-0.5,2.5-0.7,4-0.7
			c1.5,0,2.9,0.2,4,0.7c1.2,0.5,2.2,1.1,3,2c0.8,0.9,1.5,1.9,1.9,3.1c0.4,1.2,0.7,2.5,0.7,4c0,1.5-0.2,2.8-0.7,4
			c-0.4,1.2-1.1,2.2-1.9,3.1c-0.8,0.9-1.8,1.5-3,2c-1.2,0.5-2.5,0.7-4,0.7c-1.5,0-2.8-0.2-4-0.7c-1.2-0.5-2.2-1.2-3-2
			s-1.5-1.9-1.9-3.1C288.8,49.2,288.5,47.9,288.5,46.5z M293.2,46.5c0,0.8,0.1,1.5,0.3,2.3c0.2,0.8,0.5,1.4,0.9,2
			c0.4,0.6,0.9,1.1,1.5,1.4c0.6,0.4,1.4,0.5,2.3,0.5c0.9,0,1.7-0.2,2.3-0.5c0.6-0.4,1.1-0.8,1.5-1.4c0.4-0.6,0.7-1.3,0.8-2
			c0.2-0.8,0.3-1.5,0.3-2.3c0-0.8-0.1-1.6-0.2-2.3c-0.2-0.8-0.4-1.4-0.8-2c-0.4-0.6-0.9-1-1.5-1.4c-0.6-0.3-1.4-0.5-2.3-0.5
			c-0.9,0-1.7,0.2-2.3,0.5c-0.6,0.4-1.1,0.8-1.5,1.4c-0.4,0.6-0.7,1.2-0.9,2C293.3,44.9,293.2,45.7,293.2,46.5z"/>
		<path class="st0" d="M327.9,44.3h-1.1v11.6H322V30.7h4.9v10.7h0.6c1.2-0.4,2.3-0.9,3.3-1.8c0.9-0.8,1.8-1.7,2.4-2.7
			c0.7-1,1.3-2.1,1.7-3.2c0.4-1.1,0.8-2.1,1-3h4.6c-0.6,2.6-1.5,4.9-2.7,7c-1.3,2.1-3,3.9-5.4,5.5l9.6,12.7h-6L327.9,44.3z"/>
		<path class="st0" d="M355,55.9l-0.9-1.3c-0.8,0.5-1.7,0.8-2.6,1.2c-0.9,0.3-1.8,0.5-2.7,0.5c-0.8,0-1.5-0.1-2.2-0.4
			c-0.7-0.3-1.3-0.7-1.8-1.2c-0.5-0.5-0.9-1.1-1.2-1.9c-0.3-0.7-0.4-1.5-0.4-2.4c0-1.3,0.4-2.4,1.1-3.2c0.7-0.8,1.7-1.5,2.7-2
			c1.1-0.5,2.3-0.9,3.5-1.2c1.2-0.3,2.4-0.5,3.3-0.7c0-0.7-0.1-1.3-0.3-1.7c-0.2-0.4-0.5-0.7-0.8-0.9c-0.3-0.2-0.7-0.3-1.2-0.4
			c-0.5-0.1-0.9-0.1-1.4-0.1c-0.9,0-1.7,0.1-2.6,0.4c-0.9,0.3-1.7,0.6-2.3,0.8l-0.6-3.3c1-0.5,2.2-0.9,3.4-1.1
			c1.2-0.2,2.4-0.4,3.5-0.4c0.9,0,1.7,0.1,2.6,0.3c0.8,0.2,1.6,0.6,2.2,1c0.6,0.5,1.2,1.1,1.5,1.8c0.4,0.8,0.6,1.7,0.6,2.7v13.3H355
			z M353.9,46.2c-0.6,0.1-1.3,0.2-2.1,0.4c-0.7,0.1-1.4,0.3-2.1,0.5s-1.2,0.6-1.6,1.1c-0.4,0.5-0.6,1.1-0.6,1.9
			c0,0.4,0.1,0.8,0.2,1.2c0.1,0.4,0.3,0.7,0.5,1c0.2,0.3,0.4,0.5,0.7,0.7c0.3,0.2,0.6,0.3,1,0.3c0.7,0,1.4-0.1,2.1-0.5
			c0.7-0.3,1.3-0.6,2-1V46.2z"/>
		<path class="st0" d="M368.6,51.8c0,0.4,0.2,0.7,0.5,0.9c0.3,0.2,0.7,0.2,1.1,0.2c0.5,0,1-0.1,1.5-0.2c0.5-0.1,0.9-0.3,1.4-0.5
			l0.7,2.9c-0.8,0.4-1.6,0.7-2.5,0.9c-0.9,0.2-1.7,0.3-2.4,0.3c-0.5,0-1.1-0.1-1.7-0.2c-0.6-0.2-1.1-0.4-1.6-0.7
			c-0.5-0.3-0.9-0.7-1.2-1.2c-0.3-0.5-0.5-1.1-0.5-1.7V40.3h-2.4v-3.2h3v-4.4l4-0.6v5h4.4v3.2h-4.4V51.8z"/>
		<path class="st0" d="M375.5,46.5c0-1.5,0.2-2.8,0.7-4c0.5-1.2,1.1-2.2,1.9-3.1c0.8-0.9,1.9-1.5,3-2c1.2-0.5,2.5-0.7,4-0.7
			c1.5,0,2.9,0.2,4,0.7c1.2,0.5,2.2,1.1,3,2c0.8,0.9,1.5,1.9,1.9,3.1c0.4,1.2,0.7,2.5,0.7,4c0,1.5-0.2,2.8-0.7,4
			c-0.4,1.2-1.1,2.2-1.9,3.1c-0.8,0.9-1.8,1.5-3,2c-1.2,0.5-2.5,0.7-4,0.7c-1.5,0-2.8-0.2-4-0.7c-1.2-0.5-2.2-1.2-3-2
			c-0.8-0.9-1.5-1.9-1.9-3.1C375.7,49.2,375.5,47.9,375.5,46.5z M380.2,46.5c0,0.8,0.1,1.5,0.3,2.3c0.2,0.8,0.5,1.4,0.9,2
			c0.4,0.6,0.9,1.1,1.5,1.4c0.6,0.4,1.4,0.5,2.3,0.5c0.9,0,1.7-0.2,2.3-0.5c0.6-0.4,1.1-0.8,1.5-1.4c0.4-0.6,0.7-1.3,0.8-2
			c0.2-0.8,0.3-1.5,0.3-2.3c0-0.8-0.1-1.6-0.2-2.3c-0.2-0.8-0.4-1.4-0.8-2c-0.4-0.6-0.9-1-1.5-1.4c-0.6-0.3-1.4-0.5-2.3-0.5
			c-0.9,0-1.7,0.2-2.3,0.5c-0.6,0.4-1.1,0.8-1.5,1.4c-0.4,0.6-0.7,1.2-0.9,2C380.3,44.9,380.2,45.7,380.2,46.5z"/>
		<path class="st0" d="M411.9,42.6l-3.5,13.3h-6.6l-5.4-18.8h4.9l4.3,15.7l3.7-14.7h5.8l3.7,14.5l4.5-15.6h4.1l-5.7,18.8h-6.7
			L411.9,42.6z"/>
		<path class="st0" d="M431,33.5v-4.1h4.6v4.1H431z M431,55.9V37.1h4.6v18.8H431z"/>
		<path class="st0" d="M455.6,54.8c-1.4,0.6-2.5,1-3.5,1.2c-1,0.2-2,0.3-3,0.3c-1.5,0-2.8-0.2-3.9-0.7c-1.1-0.5-2.1-1.2-2.8-2.1
			c-0.8-0.9-1.3-1.9-1.7-3.1c-0.4-1.2-0.6-2.5-0.6-3.9c0-1.4,0.2-2.7,0.6-3.9c0.4-1.2,1-2.2,1.7-3.1c0.8-0.9,1.7-1.6,2.8-2.1
			c1.1-0.5,2.4-0.8,3.9-0.8c1,0,1.9,0.1,3,0.3c1,0.2,2,0.5,3.1,1l-0.8,3.4c-0.7-0.3-1.4-0.5-2.2-0.7c-0.8-0.2-1.7-0.3-2.6-0.3
			c-0.9,0-1.7,0.2-2.3,0.6c-0.6,0.4-1.1,0.9-1.4,1.5c-0.4,0.6-0.6,1.3-0.7,2c-0.1,0.7-0.2,1.4-0.2,2.1s0.1,1.4,0.2,2.1
			c0.1,0.7,0.4,1.4,0.7,2c0.3,0.6,0.8,1.1,1.4,1.5s1.4,0.6,2.3,0.6c1.8,0,3.6-0.4,5.3-1.2l0.7,3.4L455.6,54.8z"/>
		<path class="st0" d="M462.3,47.7c0,1.7,0.5,2.9,1.4,3.8c0.9,0.9,2.2,1.3,3.9,1.3c0.6,0,1.1,0,1.6-0.1c0.5,0,1-0.1,1.5-0.2
			c0.5-0.1,1-0.2,1.5-0.4c0.5-0.2,1.1-0.4,1.8-0.6l0.8,3.3c-1.4,0.7-2.7,1.1-4,1.3c-1.2,0.2-2.4,0.3-3.7,0.3c-1.5,0-2.9-0.2-4-0.7
			c-1.2-0.5-2.2-1.1-3-2c-0.8-0.9-1.4-1.9-1.8-3.1c-0.4-1.2-0.6-2.6-0.6-4.1c0-1.4,0.2-2.7,0.6-3.9c0.4-1.2,1-2.2,1.7-3.1
			c0.8-0.9,1.7-1.5,2.8-2c1.1-0.5,2.4-0.7,3.9-0.7c1.7,0,3.1,0.3,4.2,0.9c1.1,0.6,2,1.4,2.7,2.4c0.7,1,1.1,2.2,1.4,3.5
			c0.3,1.3,0.4,2.8,0.4,4.3H462.3z M470.7,44.6c0-1.3-0.3-2.3-1-3.1c-0.7-0.8-1.7-1.2-3.1-1.2c-1.4,0-2.4,0.4-3.1,1.2
			c-0.7,0.8-1.1,1.8-1.1,3.1H470.7z"/>
	</g>
</g>
</svg>
