<?xml version="1.0" encoding="utf-8"?>
<!-- Generator: Adobe Illustrator 22.1.0, SVG Export Plug-In . SVG Version: 6.00 Build 0)  -->
<svg version="1.1" id="Warstwa_1" xmlns="http://www.w3.org/2000/svg" xmlns:xlink="http://www.w3.org/1999/xlink" x="0px" y="0px"
	 viewBox="0 0 399.6 187.2" style="enable-background:new 0 0 399.6 187.2;" xml:space="preserve">
<style type="text/css">
	.st0{fill:#242423;}
	.st1{fill:#D9081E;}
</style>
<path class="st0" d="M134,85.6V61.1h9.2c1.1,0,2.1,0.2,3,0.6c0.9,0.4,1.6,0.9,2.3,1.6c0.6,0.7,1.1,1.5,1.4,2.4
	c0.3,0.9,0.5,1.9,0.5,2.9c0,1-0.2,2-0.5,2.9c-0.4,0.9-0.8,1.8-1.5,2.5c-0.6,0.7-1.4,1.3-2.3,1.7c-0.9,0.4-1.9,0.6-2.9,0.6h-4.5v9.3
	H134z M138.8,73h3.5c0.6,0,1.1-0.1,1.6-0.4c0.4-0.3,0.8-0.6,1.1-1c0.3-0.4,0.5-0.9,0.6-1.4c0.1-0.5,0.2-1.1,0.2-1.6
	c0-0.5-0.1-1-0.2-1.5c-0.1-0.5-0.4-0.9-0.7-1.3c-0.3-0.4-0.7-0.7-1.1-0.9c-0.4-0.2-0.9-0.3-1.5-0.3h-3.5V73z"/>
<path class="st0" d="M151.4,76.5c0-1.4,0.2-2.7,0.7-3.9c0.4-1.2,1.1-2.2,1.9-3c0.8-0.8,1.8-1.5,3-2c1.2-0.5,2.4-0.7,3.9-0.7
	c1.5,0,2.8,0.2,3.9,0.7c1.2,0.5,2.1,1.1,2.9,1.9c0.8,0.8,1.4,1.8,1.8,3c0.4,1.2,0.6,2.5,0.6,3.9c0,1.4-0.2,2.7-0.6,3.9
	c-0.4,1.2-1,2.2-1.8,3c-0.8,0.8-1.8,1.5-2.9,2c-1.2,0.5-2.5,0.7-3.9,0.7c-1.4,0-2.7-0.2-3.9-0.7c-1.2-0.5-2.1-1.1-3-2
	c-0.8-0.8-1.4-1.9-1.9-3C151.6,79.2,151.4,77.9,151.4,76.5z M155.9,76.5c0,0.8,0.1,1.5,0.3,2.2c0.2,0.7,0.5,1.4,0.8,2
	c0.4,0.6,0.9,1,1.5,1.4c0.6,0.4,1.3,0.5,2.2,0.5c0.9,0,1.6-0.2,2.2-0.5c0.6-0.3,1.1-0.8,1.5-1.4c0.4-0.6,0.7-1.2,0.8-2
	c0.2-0.7,0.3-1.5,0.3-2.3c0-0.8-0.1-1.5-0.2-2.3c-0.2-0.7-0.4-1.4-0.8-1.9c-0.4-0.6-0.9-1-1.5-1.3c-0.6-0.3-1.4-0.5-2.3-0.5
	c-0.9,0-1.6,0.2-2.2,0.5c-0.6,0.3-1.1,0.8-1.5,1.4c-0.4,0.6-0.7,1.2-0.8,1.9C156,75,155.9,75.7,155.9,76.5z"/>
<path class="st0" d="M174.1,85.6V61.1l4.4-0.7v25.3H174.1z"/>
<path class="st0" d="M183.4,81.4c0.2,0.1,0.5,0.3,0.9,0.4c0.4,0.2,0.8,0.3,1.3,0.5c0.5,0.2,0.9,0.3,1.4,0.4c0.5,0.1,0.9,0.2,1.4,0.2
	c0.8,0,1.5-0.1,2.1-0.4c0.6-0.3,0.8-0.8,0.8-1.6c0-0.4-0.2-0.8-0.6-1.2c-0.4-0.4-0.9-0.7-1.5-1c-0.6-0.3-1.3-0.7-2-1.1
	c-0.7-0.4-1.4-0.8-2-1.3c-0.6-0.5-1.1-1-1.5-1.7c-0.4-0.6-0.6-1.4-0.6-2.3c0-0.9,0.2-1.6,0.5-2.3c0.4-0.7,0.9-1.2,1.5-1.7
	c0.6-0.5,1.4-0.8,2.2-1c0.8-0.2,1.7-0.4,2.7-0.4c0.9,0,1.8,0.1,2.6,0.3c0.8,0.2,1.6,0.5,2.2,1l-1.1,2.9c-0.7-0.4-1.3-0.7-2-0.8
	c-0.6-0.1-1.3-0.2-1.9-0.2c-0.7,0-1.3,0.1-1.8,0.4c-0.5,0.3-0.8,0.7-0.8,1.3c0,0.5,0.2,0.9,0.6,1.2c0.4,0.4,0.9,0.7,1.5,1
	c0.6,0.3,1.3,0.7,2,1.1c0.7,0.4,1.4,0.8,2,1.3c0.6,0.5,1.1,1.1,1.5,1.7c0.4,0.7,0.6,1.4,0.6,2.3c0,0.9-0.2,1.7-0.5,2.5
	c-0.4,0.7-0.8,1.3-1.5,1.8c-0.6,0.5-1.4,0.8-2.3,1c-0.9,0.2-1.8,0.3-2.9,0.3c-1.1,0-2.2-0.1-3.3-0.4c-1.1-0.3-2-0.7-2.7-1.2
	L183.4,81.4z"/>
<path class="st0" d="M199.5,85.6V61.1l4.4-0.7v13.9c0.3,0,0.7-0.1,1-0.2c0.4-0.1,0.7-0.3,1-0.5c0.3-0.2,0.6-0.4,1-0.7
	c0.3-0.3,0.6-0.5,0.8-0.8c0.5-0.6,1-1.3,1.4-2.1c0.4-0.8,0.8-1.6,1.1-2.6h4.3c-0.4,1.7-1.1,3.2-2.1,4.5s-2.1,2.5-3.4,3.6l6.6,10.2
	h-5.3l-5.1-8.4H204v8.4H199.5z"/>
<path class="st0" d="M218.2,63.9v-4h4.4v4H218.2z M218.2,85.6V67.3h4.4v18.3H218.2z"/>
<path class="st0" d="M231.6,77.7c0,1.6,0.5,2.8,1.4,3.7c0.9,0.8,2.2,1.2,3.8,1.2c0.6,0,1.1,0,1.6-0.1c0.5,0,1-0.1,1.4-0.2
	c0.5-0.1,1-0.2,1.5-0.4c0.5-0.2,1.1-0.4,1.7-0.6l0.8,3.2c-1.4,0.6-2.7,1-3.8,1.2c-1.2,0.2-2.4,0.3-3.6,0.3c-1.5,0-2.8-0.2-3.9-0.7
	c-1.1-0.5-2.1-1.1-2.9-1.9c-0.8-0.8-1.4-1.9-1.8-3c-0.4-1.2-0.6-2.5-0.6-4c0-1.4,0.2-2.6,0.6-3.8c0.4-1.2,0.9-2.2,1.7-3
	c0.7-0.8,1.6-1.5,2.7-2c1.1-0.5,2.3-0.7,3.8-0.7c1.6,0,3,0.3,4.1,0.9c1.1,0.6,2,1.3,2.6,2.3c0.6,1,1.1,2.1,1.4,3.4
	c0.3,1.3,0.4,2.7,0.4,4.2H231.6z M239.7,74.7c0-1.2-0.3-2.3-1-3c-0.6-0.8-1.6-1.2-3-1.2c-1.3,0-2.3,0.4-3,1.2c-0.7,0.8-1,1.8-1,3.1
	H239.7z"/>
<path class="st0" d="M258,85.6V61.1h9.6c1,0,2,0.2,2.8,0.6c0.9,0.4,1.6,0.9,2.2,1.6c0.6,0.7,1.1,1.5,1.4,2.4
	c0.3,0.9,0.5,1.8,0.5,2.8c0,0.8-0.1,1.5-0.4,2.2c-0.3,0.7-0.6,1.3-1.1,1.8c-0.4,0.5-1,1-1.5,1.4c-0.6,0.4-1.2,0.7-1.9,1l6.7,10.9
	h-5.4l-6-10.1h-2.1v10.1H258z M262.8,72.4h3.8c1.1,0,2-0.4,2.5-1.1c0.5-0.8,0.8-1.7,0.8-2.7c0-1-0.3-2-0.8-2.7
	c-0.5-0.8-1.4-1.2-2.5-1.2h-3.7V72.4z"/>
<path class="st0" d="M289.7,85.6l-0.9-1.2c-0.8,0.4-1.6,0.8-2.5,1.1c-0.9,0.3-1.8,0.5-2.7,0.5c-0.8,0-1.5-0.1-2.2-0.4
	c-0.7-0.3-1.3-0.7-1.7-1.2c-0.5-0.5-0.9-1.1-1.2-1.8c-0.3-0.7-0.4-1.5-0.4-2.3c0-1.3,0.4-2.3,1.1-3.1c0.7-0.8,1.6-1.5,2.7-2
	c1.1-0.5,2.2-0.9,3.4-1.1c1.2-0.3,2.3-0.5,3.2-0.6c0-0.7-0.1-1.2-0.3-1.6c-0.2-0.4-0.5-0.7-0.8-0.9c-0.3-0.2-0.7-0.3-1.2-0.4
	c-0.4-0.1-0.9-0.1-1.4-0.1c-0.8,0-1.7,0.1-2.6,0.4c-0.9,0.3-1.6,0.5-2.3,0.8l-0.6-3.2c1-0.5,2.1-0.8,3.3-1.1
	c1.2-0.2,2.3-0.3,3.4-0.3c0.9,0,1.7,0.1,2.5,0.3c0.8,0.2,1.5,0.5,2.1,1c0.6,0.5,1.1,1.1,1.5,1.8c0.4,0.7,0.6,1.6,0.6,2.6v12.9H289.7
	z M288.6,76.2c-0.6,0.1-1.3,0.2-2,0.3c-0.7,0.1-1.4,0.3-2,0.5c-0.6,0.2-1.1,0.6-1.5,1c-0.4,0.5-0.6,1.1-0.6,1.8c0,0.4,0,0.8,0.1,1.1
	c0.1,0.4,0.2,0.7,0.4,1c0.2,0.3,0.4,0.5,0.7,0.7c0.3,0.2,0.6,0.3,1,0.3c0.7,0,1.4-0.1,2-0.4c0.7-0.3,1.3-0.6,1.9-1V76.2z"/>
<path class="st0" d="M309.4,84.4c-0.5,0.6-1.2,1-2.1,1.3c-0.9,0.3-1.7,0.4-2.4,0.4c-1.5,0-2.7-0.2-3.8-0.7c-1-0.5-1.9-1.2-2.6-2
	c-0.7-0.8-1.2-1.8-1.5-3c-0.3-1.2-0.5-2.4-0.5-3.8c0-1.4,0.2-2.6,0.6-3.8c0.4-1.2,0.9-2.2,1.7-3c0.7-0.9,1.6-1.5,2.7-2
	c1.1-0.5,2.3-0.7,3.8-0.7c0.7,0,1.4,0.1,2.2,0.3c0.8,0.2,1.4,0.5,1.9,0.9v-7l4.4-0.7v25.3h-3.4L309.4,84.4z M309.4,71.5
	c-0.3-0.3-0.9-0.6-1.5-0.8c-0.7-0.2-1.5-0.3-2.5-0.3c-0.9,0-1.6,0.2-2.1,0.6c-0.5,0.4-1,0.9-1.3,1.4c-0.3,0.6-0.5,1.2-0.6,2
	c-0.1,0.7-0.2,1.4-0.2,2.1s0.1,1.4,0.2,2.1c0.1,0.7,0.3,1.4,0.6,1.9c0.3,0.6,0.7,1,1.3,1.4c0.5,0.4,1.2,0.5,2.1,0.5
	c0.8,0,1.5-0.1,2.2-0.3c0.7-0.2,1.3-0.4,1.8-0.7V71.5z"/>
<path class="st0" d="M319.1,63.9v-4h4.4v4H319.1z M319.1,85.6V67.3h4.4v18.3H319.1z"/>
<path class="st0" d="M327.8,76.5c0-1.4,0.2-2.7,0.7-3.9c0.4-1.2,1.1-2.2,1.9-3c0.8-0.8,1.8-1.5,3-2c1.2-0.5,2.4-0.7,3.9-0.7
	c1.5,0,2.8,0.2,3.9,0.7c1.2,0.5,2.1,1.1,2.9,1.9c0.8,0.8,1.4,1.8,1.8,3c0.4,1.2,0.6,2.5,0.6,3.9c0,1.4-0.2,2.7-0.6,3.9
	c-0.4,1.2-1,2.2-1.8,3c-0.8,0.8-1.8,1.5-2.9,2c-1.2,0.5-2.5,0.7-3.9,0.7c-1.4,0-2.7-0.2-3.9-0.7c-1.2-0.5-2.1-1.1-3-2
	c-0.8-0.8-1.4-1.9-1.9-3C328,79.2,327.8,77.9,327.8,76.5z M332.3,76.5c0,0.8,0.1,1.5,0.3,2.2c0.2,0.7,0.5,1.4,0.8,2
	c0.4,0.6,0.9,1,1.5,1.4c0.6,0.4,1.3,0.5,2.2,0.5c0.9,0,1.6-0.2,2.2-0.5c0.6-0.3,1.1-0.8,1.5-1.4c0.4-0.6,0.7-1.2,0.8-2
	c0.2-0.7,0.3-1.5,0.3-2.3c0-0.8-0.1-1.5-0.2-2.3c-0.2-0.7-0.4-1.4-0.8-1.9s-0.9-1-1.5-1.3c-0.6-0.3-1.4-0.5-2.3-0.5
	c-0.9,0-1.6,0.2-2.2,0.5c-0.6,0.3-1.1,0.8-1.5,1.4c-0.4,0.6-0.7,1.2-0.8,1.9C332.4,75,332.3,75.7,332.3,76.5z"/>
<path class="st0" d="M139.7,113.9h-1v11.2h-4.8v-24.5h4.8V111h0.6c1.2-0.3,2.3-0.9,3.2-1.7c0.9-0.8,1.7-1.7,2.4-2.7
	c0.7-1,1.2-2,1.6-3.1c0.4-1.1,0.8-2,1-2.9h4.5c-0.6,2.5-1.5,4.8-2.7,6.8c-1.2,2-3,3.8-5.2,5.4l9.4,12.4h-5.8L139.7,113.9z"/>
<path class="st0" d="M166,125.1l-0.9-1.2c-0.8,0.4-1.6,0.8-2.5,1.1c-0.9,0.3-1.8,0.5-2.7,0.5c-0.8,0-1.5-0.1-2.2-0.4
	c-0.7-0.3-1.3-0.7-1.7-1.2c-0.5-0.5-0.9-1.1-1.2-1.8c-0.3-0.7-0.4-1.5-0.4-2.3c0-1.3,0.4-2.3,1.1-3.1c0.7-0.8,1.6-1.5,2.7-2
	c1.1-0.5,2.2-0.9,3.4-1.1c1.2-0.3,2.3-0.5,3.2-0.6c0-0.7-0.1-1.2-0.3-1.6c-0.2-0.4-0.5-0.7-0.8-0.9c-0.3-0.2-0.7-0.3-1.2-0.4
	c-0.4-0.1-0.9-0.1-1.4-0.1c-0.8,0-1.7,0.1-2.6,0.4c-0.9,0.3-1.6,0.5-2.3,0.8l-0.6-3.2c1-0.5,2.1-0.8,3.3-1.1
	c1.2-0.2,2.3-0.3,3.4-0.3c0.9,0,1.7,0.1,2.5,0.3c0.8,0.2,1.5,0.5,2.1,1c0.6,0.5,1.1,1.1,1.5,1.8c0.4,0.7,0.6,1.6,0.6,2.6v12.9H166z
	 M165,115.6c-0.6,0.1-1.3,0.2-2,0.3c-0.7,0.1-1.4,0.3-2,0.5c-0.6,0.2-1.1,0.6-1.5,1c-0.4,0.5-0.6,1.1-0.6,1.8c0,0.4,0,0.8,0.1,1.1
	c0.1,0.4,0.2,0.7,0.4,1c0.2,0.3,0.4,0.5,0.7,0.7c0.3,0.2,0.6,0.3,1,0.3c0.7,0,1.4-0.1,2-0.4c0.7-0.3,1.3-0.6,1.9-1V115.6z"/>
<path class="st0" d="M179.3,121.1c0,0.4,0.2,0.7,0.5,0.9c0.3,0.2,0.7,0.2,1.1,0.2c0.5,0,1-0.1,1.4-0.2c0.5-0.1,0.9-0.3,1.4-0.5
	l0.7,2.8c-0.8,0.4-1.6,0.7-2.4,0.9c-0.8,0.2-1.6,0.3-2.3,0.3c-0.5,0-1-0.1-1.6-0.2c-0.6-0.2-1.1-0.4-1.5-0.7
	c-0.5-0.3-0.8-0.7-1.1-1.2c-0.3-0.5-0.4-1-0.4-1.7v-11.7h-2.4v-3.1h2.9v-4.2l3.9-0.6v4.9h4.3v3.1h-4.3V121.1z"/>
<path class="st0" d="M186,115.9c0-1.4,0.2-2.7,0.7-3.9c0.4-1.2,1.1-2.2,1.9-3c0.8-0.8,1.8-1.5,3-2c1.2-0.5,2.4-0.7,3.9-0.7
	c1.5,0,2.8,0.2,3.9,0.7c1.2,0.5,2.1,1.1,2.9,1.9c0.8,0.8,1.4,1.8,1.8,3c0.4,1.2,0.6,2.5,0.6,3.9c0,1.4-0.2,2.7-0.6,3.9
	c-0.4,1.2-1,2.2-1.8,3c-0.8,0.8-1.8,1.5-2.9,2c-1.2,0.5-2.5,0.7-3.9,0.7c-1.4,0-2.7-0.2-3.9-0.7c-1.2-0.5-2.1-1.1-3-2
	c-0.8-0.8-1.4-1.9-1.9-3C186.2,118.6,186,117.3,186,115.9z M190.6,115.9c0,0.8,0.1,1.5,0.3,2.2c0.2,0.7,0.5,1.4,0.8,2
	c0.4,0.6,0.9,1,1.5,1.4c0.6,0.4,1.3,0.5,2.2,0.5c0.9,0,1.6-0.2,2.2-0.5c0.6-0.3,1.1-0.8,1.5-1.4c0.4-0.6,0.7-1.2,0.8-2
	c0.2-0.7,0.3-1.5,0.3-2.3s-0.1-1.5-0.2-2.3c-0.2-0.7-0.4-1.4-0.8-1.9c-0.4-0.6-0.9-1-1.5-1.3c-0.6-0.3-1.4-0.5-2.3-0.5
	c-0.9,0-1.6,0.2-2.2,0.5c-0.6,0.3-1.1,0.8-1.5,1.4c-0.4,0.6-0.7,1.2-0.8,1.9C190.6,114.4,190.6,115.2,190.6,115.9z"/>
<path class="st0" d="M221.3,112.2l-3.4,12.9h-6.4l-5.2-18.3h4.8l4.2,15.3l3.6-14.3h5.7l3.5,14.1l4.4-15.1h4l-5.6,18.3h-6.6
	L221.3,112.2z"/>
<path class="st0" d="M239.9,103.3v-4h4.4v4H239.9z M239.9,125.1v-18.3h4.4v18.3H239.9z"/>
<path class="st0" d="M263.8,124c-1.3,0.6-2.5,1-3.4,1.2c-1,0.2-1.9,0.3-2.9,0.3c-1.4,0-2.7-0.2-3.8-0.7c-1.1-0.5-2-1.1-2.7-2
	c-0.7-0.9-1.3-1.9-1.7-3c-0.4-1.2-0.6-2.4-0.6-3.8s0.2-2.6,0.6-3.8c0.4-1.2,0.9-2.2,1.7-3c0.7-0.9,1.6-1.5,2.7-2
	c1.1-0.5,2.3-0.7,3.8-0.7c0.9,0,1.9,0.1,2.9,0.3c1,0.2,2,0.5,3,1l-0.8,3.3c-0.6-0.3-1.4-0.5-2.2-0.7c-0.8-0.2-1.7-0.3-2.5-0.3
	c-0.9,0-1.6,0.2-2.2,0.6c-0.6,0.4-1,0.9-1.4,1.5c-0.3,0.6-0.6,1.3-0.7,2c-0.1,0.7-0.2,1.4-0.2,2.1c0,0.7,0.1,1.3,0.2,2.1
	c0.1,0.7,0.4,1.4,0.7,2c0.3,0.6,0.8,1.1,1.4,1.4c0.6,0.4,1.3,0.6,2.3,0.6c1.7,0,3.5-0.4,5.2-1.1l0.7,3.3L263.8,124z"/>
<path class="st0" d="M270.3,117.1c0,1.6,0.5,2.8,1.4,3.7c0.9,0.8,2.2,1.2,3.8,1.2c0.6,0,1.1,0,1.6-0.1c0.5,0,1-0.1,1.4-0.2
	c0.5-0.1,1-0.2,1.5-0.4c0.5-0.2,1.1-0.4,1.7-0.6l0.8,3.2c-1.4,0.6-2.7,1-3.8,1.2c-1.2,0.2-2.4,0.3-3.6,0.3c-1.5,0-2.8-0.2-3.9-0.7
	c-1.1-0.5-2.1-1.1-2.9-1.9c-0.8-0.8-1.4-1.9-1.8-3c-0.4-1.2-0.6-2.5-0.6-4c0-1.4,0.2-2.6,0.6-3.8c0.4-1.2,0.9-2.2,1.7-3
	c0.7-0.8,1.6-1.5,2.7-2c1.1-0.5,2.3-0.7,3.8-0.7c1.6,0,3,0.3,4.1,0.9c1.1,0.6,2,1.3,2.6,2.3c0.6,1,1.1,2.1,1.4,3.4
	c0.3,1.3,0.4,2.7,0.4,4.2H270.3z M278.5,114.1c0-1.2-0.3-2.3-1-3c-0.6-0.8-1.6-1.2-3-1.2c-1.3,0-2.3,0.4-3,1.2c-0.7,0.8-1,1.8-1,3.1
	H278.5z"/>
<path class="st1" d="M106,53.7H92c-1.6,9.6-6.1,18.4-13.2,25.4c-7,6.9-15.9,11.3-25.5,12.8v13.4c13.3-1.6,25.6-7.4,35.3-16.9
	C98.2,78.8,104.2,66.7,106,53.7z"/>
<path class="st1" d="M86.9,53.7H72.7c-1.2,4.8-3.6,9.1-7.2,12.7c-3.4,3.4-7.6,5.7-12.2,6.9v13.6c8.3-1.4,15.9-5.3,22-11.3
	C81.4,69.5,85.4,61.9,86.9,53.7z"/>
<path class="st1" d="M67.6,53.7H53.3V68c3.2-1,6.2-2.8,8.7-5.3C64.6,60.2,66.5,57.1,67.6,53.7z"/>
<path class="st1" d="M88,95.5c-9.9,8.3-21.9,13.4-34.7,14.7v23.5h60.5L88,95.5z"/>
</svg>
