<svg id="Warstwa_1" xmlns="http://www.w3.org/2000/svg" viewBox="0 0 32.3 22"><style>.st0{fill:#1a1a1a}.st1{fill:#fff}</style><ellipse class="st0" cx="16" cy="11.2" rx="16" ry="10.5"/><path class="st1" d="M26.6 11.7s0-.1 0 0c.6-.2 1-.3 1.6-.5.2-.1.4-.2.6-.4.5-.3.8-.6 1.1-1.1.2-.3.2-.8 0-1-.3-.4-.7-.6-1.1-.6-.5 0-1 .4-1.1.5-.3.2-.6.4-.8.6-.4.3-.7.6-1 1-.4.5-.7.9-.8 1.6 0 0 0 .1-.1.1-.2.2-.5.3-.6.5-.4.3-.9.5-1.4.6h-.3v-.2c.2-.6.4-1.1.7-1.5.4-.4.7-.7 1.1-1 .4-.3.7-.4 1.2-.4.2 0 .3-.1.2-.3-.1-.1-.1-.2-.3-.3L25 9c-.2-.1-.4-.2-.5-.2-.3 0-.6.1-.7.2-.2.1-.4.3-.6.5l-.6.6c-.2.2-.5.4-.6.6-.3.5-.6.9-.6 1.5v.1c-.3.2-.6.5-.9.5l-.1-.1c.1-.3.2-.6.4-.7.1-.3.3-.6.4-.8.2-.4.4-.6.5-1v-.3c-.3-.3-.6-.6-.9-.6-.1 0-.3 0-.4.1l-.3.3-.9.6c-.3.2-.6.4-.8.6h-.3c-.1 0-.1-.1-.1-.1v-.4c0-.2.1-.4 0-.5 0-.1-.2-.3-.3-.4h-.6v.1l-.3.6c-.3.5-.5.9-.7 1.3-.1.2-.3.4-.5.6-.3.4-.7.9-1 1.1-.1 0-.3.1-.5-.1v-.3c.3-.6.7-1.6 1-2.1.1-.2.5-.8.5-.9s-.2-.2-.3-.3c-.1-.1-.3-.1-.4-.2-.2-.1-.3-.1-.5-.1s-.3 0-.3.3c0 0-.4.6-.5.6 0 0-.1 0-.1-.1l-.2-.2c-.4-.1-.6-.2-1-.3-.1 0-.2 0-.3.1-.3.2-.6.5-.9.6-.3.3-.6.6-.8.9.1.1 0 .3-.2.5s-.5.7-.5.7c-.4 0-.6.3-.9.5-.2 0-.4.1-.6.2-.2 0-.2 0-.3-.2.2-.3.2-.5.4-.8.3-.4.7-.7 1-1 .4-.4.8-.6 1.2-1.1.2-.3.6-.6.8-.8.2-.2.4-.3.6-.5.1-.2.2-.4.4-.6l.3-.3c.1-.1.2-.2.3-.4.1 0 .2-.2.2-.3.2-.3.3-.5.2-.7v-.1c.1-.2 0-.3-.1-.4 0-.1-.1-.1-.1-.1-.2-.2-.3-.4-.5-.5-.3-.2-.6-.2-.9-.3-.1 0-.1.1-.2.1s-.1.1-.1.1-.1 0-.2.1c-.3.3-.6.5-.7.7-.8.8-1.3 1.7-1.9 2.6 0 .1-.1.3-.2.4-.2.4-.5.7-.6 1-.1.1-.2.1-.3.1-.2-.3-.4-.3-.7-.4-.2-.1-.3-.1-.5-.2-.4 0-.7.1-1 .2-.4.3-.6.5-1 .6-.5.5-.8.9-1.2 1.4-.4.6-.6 1-.6 1.6 0 .1-.1.2-.1.4v.2c0 .2.1.3.1.5 0 0 0 .1.1.1.2.3.5.5.6.7.1.2.3.2.5.2s.4 0 .6-.1c.3-.1.5-.3.6-.5.2-.3.5-.7.8-1 .1-.2.2-.2.2-.3.2-.1.4-.4.7-.6.1-.1.1-.1.1.1 0 .1.5.9.6 1.1.2.3.5.4.7.4.3 0 .6-.1.7-.3.4-.3.6-.5.8-.7.1-.2.4-.3.6-.4 0 0 .2 0 .2.1.1 0 .2.2.3.3.2.4.6.5.9.6h.1c.1 0 .3 0 .4-.1.2-.1.5-.2.6-.3.2-.1.3-.2.5-.4s.3-.3.5-.6c.1-.1.2-.2.2 0 0 .6.2 1 .5 1.1.3.1 1.7 0 1.9 0 .3 0 .4-.1.6-.4l.1-.1.6-.6c.3-.3.6-.5.8-.7.3-.2.5-.4.7-.6.2-.1.4-.3.6-.4h.1v.1c-.1.4-.2.6-.3 1s-.2 1.4.2 1.4c.1 0 .4.1.5.1.4-.1.6-.1.7-.1.6-.3.7-.5 1.1-.9h.2c.2.3.4.6.6.7.2.1.4.2.6.2.3 0 .6-.1.9-.3.3-.1.6-.4.8-.5.2-.1.4-.2.6-.4.1-.1.2-.1.3.1.2.3.3.5.6.6.4.3.7.3 1.2.3.4 0 .7-.2 1.1-.3.4-.2.7-.3 1-.6.1-.1.3-.4.4-.6v-.2h-.3l.1-.1v-.1h-.1c-.1.1-.3.1-.4.2-.6.6-1.3.9-2.1.9h-.2c-.1 0-.6-.1-.6-.3 0-.3 0-.6.2-.9-.3.5-.2.5-.1.5zm.3-.8l.9-1.2c.2-.2.5-.5.7-.6.2-.1.3-.1.4-.1 0 0 .1 0 .1.1-.1.3-.2.5-.4.6-.5.6-1 1-1.8 1.3h-.2c.2 0 .2 0 .3-.1zM9.7 9.4c0-.1 0-.1 0 0 .1-.2.2-.3.3-.4.1-.1.2-.2.3-.4.2-.4.5-.6.6-1 .3-.4.6-.7.9-1.1.1-.1.2-.2.3-.4.1-.1.2-.2.3-.4 0 0 .1 0 .1-.1v.1c0 .3-.1.6-.2.7 0 0 0 .1-.1.1-.3.4-.6.7-.8 1.1-.1.2-.2.3-.3.4-.2.2-.4.5-.6.6-.2.3-.5.6-.8.8.1 0 .1 0 0 0 0 .1 0 0 0 0zm-2.9 1.7c0 .3-.3.5-.4.6C6 12.1 5.1 13 5 13c-.1 0-.8.9-1.4.8 0-.1 0-.3.1-.4.1-.1.2-.4.3-.6 0 0 0-.1.1-.1 0-.1.1-.2.2-.3l.1-.1c.2-.3.4-.6.6-.8.3-.3.6-.5.9-.7.2-.1.3-.3.5-.3h.3c.1 0 .1.1.1.4v.2zm7-.3c-.2.3-.5.7-.6 1-.3.4-.6.8-1 1.1-.3.1-.3.1-.5.1-.1 0-.3 0-.3-.2v-.2c.1-.5.5-.8.7-1.2l.8-.8c.1-.1.3-.2.4-.2h.3c.1 0 .1 0 .2.1v.3z"/></svg>