<svg id="Warstwa_1" xmlns="http://www.w3.org/2000/svg" viewBox="0 0 36 11.5"><style>.st0{fill:#434343}.st1{fill:#9a9a9a}</style><path class="st0" d="M22 9.1c-.3 0-.5-.3-.5-.4 0-.1 0-.1.2-.1 2.1-.1 4.3-1.4 4.3-2.5 0-.4-.3-.7-.8-.7-.3 0-.7.1-1 .3-.1.1-.2.1-.3.1-.2 0-.3-.1-.3-.3 0-.1 0-.2.1-.4.3-.6.6-1.4.9-2.1.1-.3.4-.4.7-.5 1 0 1.7-.1 2.9-.4h.1c.1 0 .1 0 .1.1 0 .2-.3.6-.6.7-.8.2-1.4.3-2.2.4L25 4.8c.3-.1.7-.2 1-.2 1 0 1.3.6 1.3 1.3 0 1.3-1.7 2.6-4.2 3.1-.4 0-.9.1-1.1.1zm11-6.7c.5.2.7.6.7 1.2 0 1.8-2 4.9-4.5 4.9-.9 0-1.5-.6-1.5-1.6 0-2.3 2.7-4.7 4.9-4.7.2 0 .3.1.3.2.1-.1.1 0 .1 0zm-1.3.4c-1.5.5-2.7 2.6-2.7 3.8 0 .6.3 1 .8 1 1.4 0 2.7-2.3 2.7-3.6 0-.5-.2-.8-.6-.8h-.2c-.2 0-.2-.1-.2-.2.1 0 .1-.1.2-.2zM10.8 4.6c.2-.5.5-1 .8-1.4 0-.2.2-.3.4-.3s.7.1.7.3c0 .1-.1.2-.2.4l-.5.9h1c.1 0 .2.1.2.1 0 .2-.3.6-.5.6h-.9c-.3.6-.6 1.4-.7 1.8 1.1-.4 2.4-1.3 3-1.8h.1c.1 0 .2.2.2.4s-.1.3-.2.4c-1.7 1.2-3.3 2.1-4.2 2.1-.3 0-.5-.2-.5-.6 0-.4.4-1.2.8-2.2h-.8c-.1 0-.2-.1-.2-.1 0-.2.3-.6.5-.6h1z"/><path class="st0" d="M15.8 6.3c-.2-.2-.3-.5-.3-.8 0-.6.4-.8.7-.8.4 0 .7.3.7.8 0 .2 0 .4-.1.5h.3c.6 0 1.1-.2 1.7-.7l.2-.1c.1 0 .1.2.1.4s0 .4-.1.4c-.5.4-1.2.8-2.1.8-.2 0-.3 0-.5-.1-.5.8-1.4 1.4-2.3 1.4-.9 0-1.3-.5-1.3-1.2 0-1.3 1.5-2.3 2.3-2.3.1 0 .2.1.2.3 0 .2-.1.3-.4.4-.4.2-.9.7-.9 1.2 0 .3.2.6.5.6.7.1 1-.3 1.3-.8z"/><path class="st0" d="M19.9 5.4c.5-.4 1.1-.8 1.6-.8.6 0 .9.2.9.8 0 1.1-1.8 2.7-2.6 2.7-.4 0-.5-.2-.5-.4 0-.3.5-.5 1-.5.5-.4.8-.9.8-1.2 0-.2-.1-.4-.3-.4-.5 0-1.3.7-1.5 1.2l-.5.9c-.5.9-1.1 2.6-1.7 3.6-.1.1-.1.1-.2.1-.3 0-.6-.4-.6-.7v-.1c.4-1.1 2.1-4.8 2.8-6.2.1-.2.3-.3.5-.3.3 0 .7.2.7.4v.1c-.1.2-.2.5-.4.8z"/><path class="st1" d="M6.4 1.1H4.8c-.2 1.1-.8 2.2-1.6 3-.8.8-1.9 1.4-3 1.5v1.6c1.6-.2 3-.9 4.2-2 1.1-1.1 1.8-2.6 2-4.1"/><path class="st1" d="M4.2 1.1H2.5c-.2.5-.5 1-.9 1.5-.4.4-.9.6-1.4.8V5c1-.2 1.9-.6 2.6-1.3C3.5 2.9 4 2 4.2 1.1m-2.3 0H.2v1.7c.4-.1.7-.3 1-.6.3-.4.5-.7.7-1.1M4.3 6C3.1 7 1.7 7.6.2 7.8v2.8h7.2L4.3 6z"/></svg>