<svg xmlns="http://www.w3.org/2000/svg" viewBox="0 0 30.5 11.5"><path d="M2.6 4.1H1.2V3h4v1.2H3.8v4.7H2.6V4.1zm6-1.2c1.7 0 3 1.3 3 3s-1.3 3-3 3-3-1.3-3-3 1.2-3 3-3zm0 4.8c1 0 1.7-.8 1.7-1.8s-.8-1.8-1.7-1.8c-1 0-1.7.8-1.7 1.8-.1 1 .7 1.8 1.7 1.8zM12.5 3h2c1.1 0 1.9.7 1.9 1.8 0 1.2-.8 1.9-1.9 1.9h-.8v2.1h-1.2V3zm2 1.1h-.8v1.3h.8c.4 0 .7-.2.7-.7-.1-.3-.4-.6-.7-.6zm5-.9l-.2 1.2C21 4.4 22 5.4 22 7c0 1.9-1.2 2.8-2.9 2.8-.7 0-1.5-.2-2-.5v-2c.5.5 1.1.8 1.9.8.7 0 1.2-.5 1.2-1.1 0-.9-.8-1-1.6-1h-1.1l.5-4.4h4v1.6h-2.5zm9.6 1.2v2.5c0 1.7-1.2 3-3 3s-3-1.2-3-3V4.4c0-1.7 1.3-3 3-3s3 1.3 3 3zm-4.2 0v2.4c0 .8.5 1.3 1.3 1.3s1.2-.6 1.2-1.3V4.4c0-.8-.5-1.3-1.2-1.3-.9 0-1.3.5-1.3 1.3z"/></svg>