<svg xmlns="http://www.w3.org/2000/svg" viewBox="0 0 30.5 11.5"><path d="M25.1 7.1c.6-.1 1-.3 1.5-.5.2-.1.5-.2.7-.3.4-.3.8-.7 1.1-1.1.2-.2.1-.8 0-1-.3-.4-.7-.6-1.1-.6-.4 0-1 .4-1.1.4-.3.2-.6.3-.8.5-.4.3-.7.6-1 1-.4.5-.7.9-.8 1.6 0 0 0 .1-.1.1-.2.1-.4.3-.6.4-.4.4-.9.6-1.4.6h-.2V8c.2-.5.4-1.1.7-1.4.3-.3.7-.7 1.1-1 .3-.3.8-.3 1.2-.3.1 0 .3-.1.2-.2-.1-.1-.1-.2-.2-.3-.2-.1-.3-.2-.5-.2-.2-.1-.3-.2-.5-.2-.3 0-.5.1-.8.2-.2.1-.4.3-.6.5l-.7.7-.6.6c-.3.4-.6.8-.6 1.3v.1c-.3.2-.5.4-.9.5l-.1-.1c.1-.3.2-.5.3-.8.1-.3.2-.5.4-.8.2-.3.3-.6.5-1v-.2c-.2-.4-.4-.6-.8-.6-.1 0-.3 0-.4.1-.1.1-.2.2-.3.2l-.9.6c-.3.1-.6.3-.8.5h-.2l-.1-.1v-.9c0-.1-.2-.2-.3-.3h-.2l-.1-.1c-.1 0-.2 0-.2-.1v.1c-.1.2-.2.3-.3.5-.2.4-.5.9-.7 1.3-.1.2-.2.5-.4.6-.3.2-.6.3-.9.5h-.3v-.3c.2-.4.5-.9.7-1.4.1-.1.1-.3.1-.5 0-.1-.1-.2-.2-.3-.1-.1-.2-.1-.3-.2-.1-.1-.3-.1-.5-.1s-.3 0-.2.2v.1s-.1 0-.1-.1c-.1 0-.1-.1-.2-.1-.3-.1-.7-.2-1-.3h-.3c-.3.2-.6.4-.9.7l-.9.9c-.1.3-.3.6-.5.8-.1.1-.4.3-.4.6 0 0 0 .1-.1.1-.3 0-.5.2-.8.4-.2 0-.4.1-.6.2-.2 0-.2-.1-.2-.2l.3-.9c.1-.4.4-.7.7-.9.4-.4.9-.6 1.2-1.1.2-.3.5-.5.8-.8.2-.2.3-.3.5-.4l.6-.6c.1-.1.2-.2.2-.3l.3-.3c.1-.1.1-.3.2-.4.1-.3.3-.5.2-.8v-.1c.1-.1 0-.2-.1-.3l-.1-.1c-.1-.2-.3-.3-.4-.5-.3-.2-.6-.3-.9-.4-.1 0-.1.1-.2.1l-.1.1s-.1 0-.1.1c-.4.3-.7.5-.9.8-.7.8-1.2 1.6-1.7 2.5-.1.2-.2.3-.2.4-.3.4-.5.7-.7 1-.1.2-.1.2-.3.1-.2-.3-.5-.3-.7-.4-.2-.1-.3-.1-.5-.1-.3 0-.6.1-1 .2-.3.2-.6.4-1 .6-.4.4-.8.9-1.2 1.4-.3.4-.5.9-.6 1.5 0 .1-.1.2-.1.3V9c0 .1.1.3.1.4 0 0 0 .1.1.1l.7.7c.1.2.3.2.4.2h.5c.2-.1.5-.3.7-.5.3-.2.6-.5.9-.9l.1-.1c.2-.2.4-.4.7-.6.1 0 .1-.1.1.1v.2c-.1.2 0 .2.1.3.2.1.3.3.5.5.2.3.4.4.7.4.3 0 .5-.1.8-.3.3-.3.5-.4.7-.8.1-.2.3-.3.5-.4 0 0 .2 0 .2.1.1.1.2.3.3.4.2.3.6.5.9.6h.1c.1 0 .2 0 .4-.1s.5-.2.7-.3c.2-.1.4-.2.5-.4.1-.2.4-.2.4-.5 0-.1.1-.1.2 0 .2.2.4.5.7.6.3.1.6.1.8-.1.1-.1.2-.2.3 0 .1.1.2.3.3.4.2.3.5.2.7-.1 0 0 0-.1.1-.1l.6-.6c.3-.2.6-.5.8-.7.2-.2.5-.4.7-.5.2-.1.4-.2.6-.4h.1v.1c-.1.3-.2.7-.2 1-.1.4.2.8.5.9h.2c.1 0 .2.1.3.1.5 0 .9 0 1.3-.3h.2c.1.3.3.6.6.7.2.1.4.2.5.2.3 0 .6-.1.9-.2.3-.1.6-.3.8-.5l.6-.3c.1-.1.2-.1.2 0 .1.3.3.5.6.7.4.2.7.3 1.2.3.4 0 .7-.1 1.1-.3.4-.2.7-.3 1-.6.1-.4.2-.6.3-.9v-.1h-.3l.1-.1v-.1h-.1c-.1 0-.2.1-.3.1-.5.6-1.3.9-2.1.9h-.2c-.1 0-.6-.1-.6-.2 0-.3 0-.6.2-.9h.2zm.3-.8l.9-1.2c.2-.2.5-.4.7-.6.1-.1.2-.1.4-.1h.1c-.1.3-.2.5-.3.6-.5.5-1 1-1.7 1.2h-.2c0 .2 0 .2.1.1zM8.5 4.8c.1-.2.2-.3.3-.4 0-.1.1-.2.2-.3.2-.3.4-.7.7-1 .3-.4.6-.7.9-1.1l.3-.3.3-.3s.1 0 .1-.1v.1c0 .3-.1.5-.2.7 0 0 0 .1-.1.1-.3.4-.5.8-.8 1.1-.2.1-.2.2-.3.3l-.6.6c-.3.2-.5.4-.8.6.1.1.1.1 0 .1h-.1c.1 0 .1 0 .1-.1zM5.6 6.5c0 .3-.2.4-.4.6-.4.4-.8.8-1.1 1.2h-.3l.1-.1V8c.3 0 .5-.2.7-.5v-.1h-.1c-.1.2-.3.4-.5.6-.1.1-.2.2-.4.3-.3.3-.5.5-.8.7-.1.1-.2.1-.3.2v-.3c.1-.2.2-.5.3-.7 0 0 0-.1.1-.1.1-.1.1-.2.2-.3l.1-.1c.2-.3.5-.6.7-.8.3-.3.6-.5.9-.7.1-.1.2-.3.4-.3h.2c.1 0 .1.1.1.3.1.1.1.2.1.3zm6.7-.4c-.2.2-.2.5-.4.7l-.9.9s-.1.1-.2.1l-.1.1c-.1.1-.2.1-.3.2l-.1.1h-.1V8c.1-.1.2-.3.2-.4 0 0 0-.1.1-.1l.1-.1c.4-.5.9-.9 1.3-1.4 0 0 .1 0 .2-.1.1 0 .2-.1.2-.1.1 0 .1.1.1.2-.1 0-.1.1-.1.1z"/></svg>