<svg id="Warstwa_1" xmlns="http://www.w3.org/2000/svg" viewBox="0 0 36 11.5"><style>.st0{fill:#434343}.st1{fill:#9a9a9a}</style><path class="st0" d="M11.4 3.1c.7 0 1.1.2 1.3.4-.1.3-.2.8-.2 1.6v1.8c0 .2.1.3.1.4v.1c0 .2-.4.5-.9.5-.4 0-.7-.2-.9-.4-.1.3-.5.5-1 .5-.8 0-1.4-.8-1.4-1.9 0-1.3.8-2 1.8-2 .2 0 .5.1.6.2v-.2c0-.1-.1-.4-.3-.4 0-.4.4-.6.9-.6zm-.7 2.1c0-.2-.1-.4-.3-.4-.2 0-.3.5-.3 1 0 1.1.2 1.3.4 1.3.1 0 .1 0 .2-.1V5.2zm6.1.3v1.4c0 .3.1.5.2.5l.1.1c-.1.3-.7.5-.9.5-.5 0-.7-.2-.9-.4-.2.2-.7.4-1.2.4-.7 0-1.2-.2-1.2-.8 0-.5.4-.8.8-.9.4-.2.8-.3 1.4-.3 0-.9-.2-1.4-.3-1.4-.2 0-.2.2-.2.5 0 .2.1.5.1.5-.2.2-.6.4-1 .4s-.6-.2-.6-.7c0-.8.9-1.2 1.9-1.2 1 0 1.8.4 1.8 1.4zm-2 1.9c.1 0 .2-.2.3-.3v-.7c-.3 0-.5.3-.5.5 0 .3.1.5.2.5zm5.3-3.3c.7 0 1.2.5 1.2 1.1v1.7c0 .5.1.7.1.8 0 .1 0 .2-.1.2-.2.1-.5.1-.9.1s-.7 0-.8-.1c0 0-.1 0-.1-.1V5.6c0-.3-.1-.5-.3-.5-.1 0-.1 0-.2.1v1.6c0 .4.1.7.1.9 0 .1-.1.1-.1.2-.2.1-.5.1-.8.1-.2 0-.6 0-.8-.1-.1 0-.1-.1-.1-.2s.1-.3.1-.5V5.3c0-.3-.1-.4-.2-.5 0-.2.5-.5.9-.5s.7.2.9.4c.2-.4.6-.6 1.1-.6zm4.3 2.3c.4 0 .8.2.8.6 0 .5-.5.9-1.5.9-1.1 0-2-.7-2-1.9 0-1.1.8-2 2-2 1.1 0 1.6.5 1.6 1s-.4.8-.7.8c-.2 0-.4-.1-.6-.1v-.5c0-.2-.1-.4-.2-.4-.2 0-.3.4-.3 1 0 .9.2 1.4.4 1.4.1 0 .2-.2.2-.4v-.3s.1-.1.3-.1zm4.7-.5c0 .2-.4.3-.9.3-.4 0-.9 0-1.1-.1 0 .7.2 1.2.4 1.2.1 0 .2-.1.2-.3v-.3c.1-.1.3-.1.4-.1.4 0 .7.3.8.6-.3.5-.8.8-1.6.8-1.1 0-1.9-.6-1.9-1.9 0-1.2.8-2 2-2 1 0 1.7.4 1.7 1.8zm-2-.1c.2 0 .4 0 .5-.1 0-.7-.1-1-.3-1-.1 0-.2.5-.2 1.1z"/><path class="st1" d="M6.4 1.1H4.7c-.2 1.1-.7 2.2-1.6 3-.8.8-1.9 1.4-3 1.5v1.6c1.6-.2 3-.9 4.2-2 1.1-1.1 1.8-2.6 2.1-4.1"/><path class="st1" d="M4.1 1.1H2.4c-.2.5-.4 1-.9 1.5-.4.4-.9.6-1.4.8V5c1-.2 1.9-.6 2.6-1.3.7-.8 1.2-1.7 1.4-2.6m-2.3 0H.1v1.7c.4-.1.7-.3 1-.6.3-.4.5-.7.7-1.1M4.2 6C3 7 1.6 7.6.1 7.8v2.8h7.2L4.2 6z"/></svg>