<svg id="Warstwa_1" xmlns="http://www.w3.org/2000/svg" viewBox="0 0 36 11.5"><style>.st0{fill:#9a9a9a}.st1{fill:#1d1d1b}</style><path class="st0" d="M6.4 1.1H4.8c-.2 1.1-.8 2.2-1.6 3S1.3 5.5.2 5.6v1.6c1.6-.2 3-.9 4.2-2 1.1-1.1 1.8-2.6 2-4.1"/><path class="st0" d="M4.2 1.1H2.5c-.2.5-.5 1-.9 1.5-.4.4-.9.6-1.4.8V5c1-.2 1.9-.6 2.6-1.3C3.5 2.9 4 2 4.2 1.1m-2.3 0H.2v1.7c.4-.1.7-.3 1-.6.3-.4.5-.7.7-1.1M4.3 6C3.1 7 1.7 7.6.2 7.8v2.8h7.2L4.3 6z"/><path class="st1" d="M9.2 5.9H9v2h-.9V3.5H9v1.9h.1l.6-.3c.2-.1.3-.3.4-.5.1-.2.2-.4.3-.5.1-.2.1-.4.2-.5h.8c-.1.4-.3.8-.5 1.2-.2.4-.5.7-.9 1L11.7 8h-1L9.2 5.9zm4.7 2l-.2-.2c-.1.1-.3.1-.4.2-.2 0-.4.1-.5.1-.1 0-.3 0-.4-.1-.1-.1-.2-.1-.3-.2-.1-.1-.2-.2-.2-.3-.1-.1-.1-.3-.1-.4 0-.2.1-.4.2-.6.1-.1.3-.3.5-.3.2-.1.4-.2.6-.2.2 0 .4-.1.6-.1 0-.1 0-.2-.1-.3 0-.1-.1-.1-.1-.2-.1 0-.1-.1-.2-.1h-.2c-.1 0-.3 0-.5.1-.2 0-.3.1-.4.1l-.2-.6c.2-.1.4-.2.6-.2.2 0 .4-.1.6-.1.2 0 .3 0 .4.1.1 0 .3.1.4.2l.3.3c.1.1.1.3.1.5v2.3h-.5zm-.2-1.7c-.1 0-.2 0-.4.1-.1 0-.2.1-.4.1-.1 0-.2.1-.3.2-.1.1-.1.2-.1.3v.2c0 .1 0 .1.1.2 0 .1.1.1.1.1h.2c.1 0 .2 0 .4-.1.1-.1.2-.1.3-.2v-.9zm2.5 1c0 .1 0 .1.1.2h.5c.1 0 .2-.1.2-.1l.1.5c-.1.1-.3.1-.4.2H16c-.1 0-.2-.1-.3-.1-.1-.1-.2-.1-.2-.2-.1-.1-.1-.2-.1-.3V5.2H15v-.6h.5v-.7l.7-.1v.9h.8v.6h-.8v1.9zm1.2-.9c0-.3 0-.5.1-.7.1-.2.2-.4.3-.5.1-.2.3-.3.5-.3.2-.1.4-.1.7-.1.3 0 .5 0 .7.1.3 0 .5.1.6.2.1.1.3.3.3.5.1.2.1.4.1.7 0 .3 0 .5-.1.7-.1.2-.2.4-.3.5-.1.2-.3.3-.5.3-.2.2-.4.3-.7.3-.3 0-.5 0-.7-.1-.2-.1-.4-.2-.5-.4-.1-.2-.3-.3-.3-.5-.1-.3-.2-.5-.2-.7m.8 0v.4c0 .1.1.2.2.3.1.1.2.2.3.2.1.1.2.1.4.1s.3 0 .4-.1c.1-.1.2-.1.3-.2.1-.1.1-.2.1-.3v-.8c0-.1-.1-.2-.1-.3-.1-.1-.2-.2-.3-.2-.1-.1-.2-.1-.4-.1s-.3 0-.4.1c-.1.1-.2.1-.3.2-.1.1-.1.2-.2.3.1.1 0 .2 0 .4m5.5-.7l-.6 2.3H22l-1-3.3h.9l.8 2.8.6-2.6h1l.6 2.5.8-2.7h.7l-1 3.3h-1.1zm3.4-2.3h.8V4h-.8v-.7zm0 1.3h.8v3.3h-.8V4.6zm4.2 3.1c-.2.1-.4.2-.6.2-.2.1-.3.1-.5.1-.3 0-.5 0-.7-.1-.2-.1-.4-.2-.5-.4-.1-.2-.2-.3-.3-.5-.1-.2-.1-.4-.1-.7 0-.2 0-.5.1-.7.1-.2.2-.4.3-.5.1-.2.3-.3.5-.4.2-.1.4-.1.7-.1h.5c.2 0 .4.1.5.2l-.1.6c-.1 0-.2-.1-.4-.1-.1 0-.3-.1-.4-.1-.2 0-.3 0-.4.1-.1.1-.2.2-.2.3-.1.1-.1.2-.1.4v.8c0 .1.1.2.1.3.1.1.1.2.2.3.1.1.2.1.4.1.3 0 .6-.1.9-.2l.1.4zm1.2-1.2c0 .3.1.5.2.7.2.1.4.2.7.2h.6c.1 0 .2 0 .3-.1.1 0 .2-.1.3-.1l.1.6c-.2.1-.5.2-.7.2h-.7c-.3 0-.5 0-.7-.1-.2-.1-.4-.2-.5-.3l-.3-.6c-.1-.2-.1-.5-.1-.7 0-.2 0-.5.1-.7l.3-.6c.1-.2.3-.3.5-.4.2-.1.4-.1.7-.1.3 0 .5.1.7.2.2.1.4.2.5.4.1.2.2.4.2.6 0 .2.1.5.1.7h-2.3zm1.5-.6c0-.2-.1-.4-.2-.5-.1-.1-.3-.2-.5-.2s-.4.1-.5.2c-.1.1-.2.3-.2.5H34z"/></svg>