<svg xmlns="http://www.w3.org/2000/svg" viewBox="0 0 30.5 11.5"><path d="M26.7 4v1.5c0 .1-.1.2-.2.2-.6 0-1.1.1-1.8.1v1c.2 0 .4.1.6.1h2.3c.4 0 .4.1.4.4-.1.6-.1 1.2-.2 1.8-.6 0-1.2.1-1.7.1h-3.3c-.5 0-.7-.4-.7-.9.1-.5.1-1.1.1-1.6 0-.7.1-1.5.1-2.2V2.3c0-.3 0-.6.1-.9 0-.1.2-.2.3-.2h4.9c.3 0 .5.1.7.4.2.3 0 .4-.1.6-.1.3-.3.6-.4.9-.1.3-.3.4-.6.3-.1 0-.2-.1-.3-.1h-1.7c-.4 0-.3.3-.3.5-.3.2-.1.2.1.2h1.7zM6.1 1.7c-.2 2-.3 3.8-.4 5.8.4 0 .9-.1 1.3-.1h1.2c.3 0 .4.1.3.4-.1.7-.1 1.3-.2 2 0 .3-.3.5-.5.6-1.2.1-2.4.1-3.6.2-.4 0-.8.1-1.2.2-.4.1-.7-.2-.6-.6.1-1.6.2-3.3.3-4.9.1-1 .2-1.8.3-2.7 0-.1.1-.3.2-.3.9-.3 1.8-.7 2.9-.6zm12 4c.2-.5.4-1 .5-1.5l.6-1.8c0-.1.1-.2.1-.3.1-.5.1-.5.7-.6.1 0 .3 0 .4-.1.5-.1.8.1.9.6.1.7 0 1.3-.3 2-.3.9-.6 1.7-.9 2.5-.2.5-.4 1-.6 1.6v.1c-.1.9-.9.9-1.4 1.1-.1.1-.3.1-.5.1-.4.2-.7.1-.8-.3-.4-.8-.8-1.6-1.1-2.4-.5-1.3-.9-2.6-1.4-3.8-.2-.1-.3-.4-.3-.7 0-.2.1-.4.3-.4.7-.1 1.3-.2 2-.3.2 0 .3.2.4.4.4 1.3.9 2.5 1.4 3.8-.1 0-.1 0 0 0zm-8.3 4.4c.1-1.5.1-3.1.2-4.6 0-.8.2-1.6.2-2.4V2c0-.2.1-.3.4-.3.6 0 1.3-.1 1.9-.1.4 0 .6.2.6.6-.1.6-.1 1.2-.1 1.9 0 .8-.1 1.6-.1 2.4-.1.9-.1 1.8-.2 2.6 0 .3-.4.6-.7.7-.6.2-1.2.3-1.8.4-.1 0-.2 0-.4-.1z"/></svg>