<svg id="Warstwa_1" xmlns="http://www.w3.org/2000/svg" viewBox="0 0 36 11.5"><style>.st0{fill:#9a9a9a}.st1{fill:#434343}</style><path class="st0" d="M6.4 1.1H4.8c-.2 1.1-.8 2.2-1.6 3-.8.8-1.9 1.4-3 1.5v1.6c1.6-.2 3-.9 4.2-2 1.1-1.1 1.8-2.6 2-4.1"/><path class="st0" d="M4.2 1.1H2.5c-.2.5-.5 1-.9 1.5-.4.4-.9.6-1.4.8V5c1-.2 1.9-.6 2.6-1.3C3.5 2.9 4 2 4.2 1.1m-2.3 0H.2v1.7c.4-.1.7-.3 1-.6.3-.4.5-.7.7-1.1M4.3 6C3.1 7 1.7 7.6.2 7.8v2.8h7.2L4.3 6z"/><path class="st1" d="M9.2 8.5V3.1h1l.8 4 .7-3.9h1v5.4H12V4.8l-.7 3.8h-.7l-.7-3.9v3.8h-.7zm5.5.1c-.4 0-.7-.1-.9-.4-.2-.3-.3-.6-.3-1.1V5.3c0-1 .4-1.5 1.1-1.5s1.1.5 1.1 1.5V7c0 .8-.2 1.2-.6 1.4 0 .1-.2.2-.4.2zm0-.7c.1 0 .2-.1.3-.2V5.2c0-.2 0-.4-.1-.5s-.1-.2-.3-.2-.2.1-.3.2 0 .3 0 .5v2.1c0 .3.1.5.2.6h.2zm2.1 1.2h-.2c-.1 0-.2 0-.3-.1v-.5h.1c.1 0 .2-.1.2-.2V3.9h.8v4.4c0 .3-.1.5-.2.6s-.2.2-.4.2zm-.1-5.6v-.7h.8v.7h-.8zm2.7 5.1c-.5 0-.8-.2-1-.6-.1-.3-.1-.6-.1-1V5.3c0-.9.4-1.4 1.2-1.4.4 0 .7.1.9.4.2.2.2.6.2 1.1v1H19v.9c0 .3 0 .5.1.6.1.1.1.1.2.1s.2 0 .2-.1c.1-.1.1-.2.1-.3v-.8h.8V7c0 .4 0 .7-.1.9s-.1.3-.2.4c-.1.2-.4.3-.7.3zM19 5.8h.7v-.6c0-.3 0-.4-.1-.5 0-.1-.1-.2-.2-.2-.2 0-.3.2-.3.5v.8zm4.4.2h-.3v2.5h-.8V3.1h1.4c.3 0 .5.1.6.2s.2.3.3.5.1.5.1.8 0 .6-.1.7c-.1.2-.2.3-.4.3.2 0 .3.2.4.4.1.2.1.7.1 1.4v1.1h-.8V6.6c0-.2 0-.4-.1-.5-.1-.1-.2-.1-.4-.1zm-.2-.7h.3c.1 0 .2 0 .2-.1 0 0 .1-.1.1-.2v-.5c0-.3 0-.5-.1-.6s-.2-.1-.3-.1h-.3v1.5zm3 3.3c-.3 0-.5-.1-.6-.3-.1-.2-.2-.5-.2-.9V7c0-.4.1-.7.3-.9.1-.1.3-.2.7-.4.1 0 .1-.1.2-.1s.2-.1.2-.1v-.3c0-.2 0-.4-.1-.5 0-.1-.1-.1-.2-.1s-.2 0-.3.1c0 .1-.1.3-.1.5v.2h-.8v-.2c0-.4.1-.8.2-1s.5-.3.9-.3.7.1.9.3c.2.2.3.6.3 1v3.3h-.8v-.4c0 .1-.1.3-.2.4s-.2.1-.4.1zm.6-2.6c-.3.1-.4.2-.5.3s-.1.3-.1.5v.5c0 .2 0 .4.1.5 0 .1.1.1.2.1s.2 0 .2-.1c.1-.1.1-.1.1-.2V6zm2.4 2.6c-.2 0-.4-.1-.6-.2-.1-.1-.2-.3-.2-.5s-.1-.5-.1-.8V5.2c0-.4.1-.7.2-.9.2-.3.5-.4.8-.4.1 0 .2 0 .3.1.1.1.2.1.2.2V3.1h.8v5.4h-.8v-.4c0 .3-.3.5-.6.5zm.1-.9c0 .1.1.2.3.2s.2-.1.3-.2c0-.1.1-.3.1-.6V5.3c0-.4-.1-.6-.2-.7h-.2c-.1 0-.2.1-.3.2s-.1.2-.1.5v1.9c0 .2 0 .4.1.5zm2.2-4.2v-.7h.8v.7h-.8zm0 5V3.9h.8v4.6h-.8zm2.7.1c-.4 0-.7-.1-.9-.4-.2-.3-.3-.6-.3-1.1V5.3c0-1 .4-1.5 1.1-1.5s1.1.5 1.1 1.5V7c0 .8-.2 1.2-.6 1.4 0 .1-.2.2-.4.2zm0-.7c.1 0 .2-.1.3-.2s.1-.3.1-.5v-2c0-.2 0-.4-.1-.5s-.1-.2-.3-.2-.2.1-.2.2-.1.3-.1.5v2.1c0 .3.1.5.2.6h.1z"/></svg>