<?xml version="1.0" encoding="utf-8"?>
<!-- Generator: Adobe Illustrator 23.0.1, SVG Export Plug-In . SVG Version: 6.00 Build 0)  -->
<svg version="1.1" id="Warstwa_1" xmlns="http://www.w3.org/2000/svg" xmlns:xlink="http://www.w3.org/1999/xlink" x="0px" y="0px"
	 viewBox="0 0 200 200" style="enable-background:new 0 0 200 200;" xml:space="preserve">
<style type="text/css">
	.st0{fill:none;}
	.st1{fill:#F1F1F1;}
</style>
<title>okladka_nuta</title>
<rect y="0" class="st0" width="200" height="200"/>
<rect x="-5" y="-5" class="st0" width="210" height="210"/>
<image style="overflow:visible;enable-background:new    ;" width="439" height="439" xlink:href="3A602724.png"  transform="matrix(0.48 0 0 0.48 -5.44 -5.28)">
</image>
<path class="st1" d="M127.7,63.8c-9.5-9.5-18.8-14.6-31.8-17v74.9c-4.4-2.1-9.1-3.1-13.9-3c-14.4,0-24.2,7.9-24.2,17.7
	S67.5,154,81.9,154c13.9,0,23.5-7.4,24.1-16.7h0.1V69c10.2,5.6,17.6,15.2,20.5,26.5h18.1C142.5,82.4,134.8,70.9,127.7,63.8z"/>
</svg>
