<?xml version="1.0" encoding="utf-8"?>
<!-- Generator: Adobe Illustrator 23.0.1, SVG Export Plug-In . SVG Version: 6.00 Build 0)  -->
<svg version="1.1" id="Warstwa_1" xmlns="http://www.w3.org/2000/svg" xmlns:xlink="http://www.w3.org/1999/xlink" x="0px" y="0px"
	 viewBox="0 0 50 70" style="enable-background:new 0 0 50 70;" xml:space="preserve">
<title>program</title>
<path d="M11,10.3c5.8,2.4,10.6,6.2,11.6,12.8c1.2,7.4-4.1,15.5-11.5,17.1c1.8,5.5,4.6,10.8,6.8,16.1c0.7,1.7,3,5.9,0.3,6.7
	c-2,0.6-2.4-2.1-3-3.5c-1.7-4.3-3.6-8.6-5.3-12.9c-0.8-2.1-2-4.2-2.7-6.4c-0.8-2.8,0-3.4,2.6-4.2c10-3,11.7-15,2.5-20.3
	c-1.7-1-6.2-1.3-6.7-3.3S8,7.8,9.1,6.7c3.5-3.6,8.1-5.8,13.1-6.3c11.7-1,22.7,9.7,22.6,21.4c-0.1,5-1.3,10-3.6,14.5
	c-2.5,4.8-6.8,8.4-9.1,13.3c-2.6,5.3-2.3,11.5-5.8,16.5c-1.2,1.6-8.9,6.4-8,1.4c0.3-1.8,2.9-1.9,4.1-3.2c1.8-1.7,2.8-4.5,3.5-6.9
	c1.7-5.9,2.6-10.5,6.6-15.5s7-9.1,8-15.5c0.8-5.1-0.3-10.2-3-14.5C34.9,7.8,30.6,5,25.7,4.2C21.4,3.6,13.2,5.7,11,10.3z"/>
<path d="M27.3,27.5c0.5-4.6-0.8-9.1-3.8-12.6c-1.2-1.3-2.6-2.2-3.8-3.4C18,9.7,18.3,8,21.1,8.6c4.4,0.9,7.8,6,9.1,9.7
	c1.4,3.8,1.7,7.9,0.8,11.8c-0.8,3.1-2.2,6-4.2,8.5c-1.6,1.9-6.9,7.1-9.8,5.7c-4.1-1.9,4.8-5.9,5.9-7C25.5,34.6,27,31.2,27.3,27.5z"
	/>
<path d="M37.9,24.6c-0.3,3.9-0.7,7.9-2.7,11.3c-1.1,1.9-5.3,5.8-4.6,1.1c0.4-2.9,2.7-5.5,3.2-8.6c0.6-3.1,0.5-6.3-0.2-9.3
	c-0.7-2.6-1.9-4.9-3.5-7c-1-1.3-3.8-4.9,0-3.8c2,0.6,4.2,3.7,5.3,5.4C37.3,17,37.8,20.8,37.9,24.6z"/>
<path d="M7,17c4.8,0.6,8.7,5.2,8,10.1c-0.4,2.6-6.7,10.1-9,5.8c-1.1-2.1,1.8-2.4,3-3.1c1.9-1.1,3.1-2.5,2.6-4.9c-0.4-2-1.6-3-3.2-4
	c-0.9-0.5-2.9-0.9-3.3-2S6,16.9,7,17z"/>
<path d="M20.5,49.9c-2.3,0-3-1.6-1.3-3.1c1.8-1.2,3.7-2.2,5.8-3C29.8,43.8,23.7,50.4,20.5,49.9z"/>
<path d="M21.6,56.4c-4.4,0-0.8-4.5,1.5-4.5c1.3,0,2,0.7,1.7,2.2C24.7,54.9,21.6,56.9,21.6,56.4z"/>
<path d="M8.8,25.3C8.9,28,5,28.4,5.2,25.2c0.1-1.2-0.4-1.9,1.2-2.1C7.6,23.1,8.7,24.1,8.8,25.3z"/>
</svg>
