<svg xmlns="http://www.w3.org/2000/svg" viewBox="0 0 200 200">
  <defs>
    <style>
      .cls-1 {
        fill: #f1f1f1;
      }
    </style>
  </defs>
  <title>okladka_mikrofon_m</title>
  <g id="Warstwa_1" data-name="Warstwa 1">
    <path class="cls-1" d="M101.86,124.25a45,45,0,0,0,21.94-7.6l-8.43-8a34.56,34.56,0,0,1-17.28,4.53,35.12,35.12,0,0,1-17.42-4.53l-8.3,8c6.79,4.82,15,7,21.94,7.6v12.27H86.24v9.81h23.69v-9.81h-8.07Z"/>
    <path class="cls-1" d="M99.2,56.19H97c-7.61,0-14.53,6.17-14.53,13.78V95.59c0,7.61,6.92,11.51,14.53,11.51H99.2c7.61,0,14.53-3.9,14.53-11.51V70C113.73,62.36,106.81,56.19,99.2,56.19Zm5.61,39.4A1.36,1.36,0,0,1,103.45,97H92.59a1.36,1.36,0,0,1-1.36-1.36V92.2a1.36,1.36,0,0,1,1.36-1.36h10.86a1.36,1.36,0,0,1,1.36,1.36Zm0-11.31a1.36,1.36,0,0,1-1.36,1.36H92.59a1.36,1.36,0,0,1-1.36-1.36v-3.4a1.35,1.35,0,0,1,1.36-1.35h10.86a1.35,1.35,0,0,1,1.36,1.35Zm0-11.32a1.36,1.36,0,0,1-1.36,1.36H92.59A1.36,1.36,0,0,1,91.23,73V69.57a1.36,1.36,0,0,1,1.36-1.36h10.86a1.36,1.36,0,0,1,1.36,1.36Z"/>
  </g>
</svg>
