<svg id="Warstwa_1" data-name="Warstwa 1" xmlns="http://www.w3.org/2000/svg" viewBox="0 0 360 160">
  <defs>
    <style>
      .cls-1 {
        fill: #b5b5b5;
      }
    </style>
  </defs>
  <title>stacja_dance</title>
  <g>
    <path class="cls-1" d="M354.3,83.08H333.43A68.75,68.75,0,0,1,276,139.81v19.85a89.8,89.8,0,0,0,78.3-76.58"/>
    <path class="cls-1" d="M324.2,81.4H303.13a39.86,39.86,0,0,1-28.81,29V130.6A61.27,61.27,0,0,0,324.2,81.4"/>
  </g>
  <path d="M48.8,35.33c8.35,0,13.06,2.73,15,5.09-1.07,4-2.28,8.73-2.28,18.45V80.22a6.59,6.59,0,0,0,1.6,4.63,2.16,2.16,0,0,1,.37,1.37c0,2.81-4.55,6.07-9.94,6.07-4.56,0-8.66-2.05-10.26-4.56-2.35,2.66-6.61,4.56-12.08,4.56-9.94,0-16.63-9.34-16.63-21.8,0-14.73,9-23.77,20.51-23.77,2.81,0,5.62,1,6.45,1.82V46.8a7.08,7.08,0,0,0-3.26-5.09C38.24,38.14,43.63,35.33,48.8,35.33ZM41.5,59.94c-.15-2.89-1.21-4.48-3-4.48-2.12,0-4,5.54-4,12,0,12.91,1.9,15.26,4.86,15.26a2.28,2.28,0,0,0,2.12-1.06Z"/>
  <path d="M117.75,63.2V79.3c0,3.19,1.14,5.78,1.82,6a1.53,1.53,0,0,1,.61,1.3c0,3.94-6.76,5.69-9.5,5.69-6.07,0-8.43-1.82-10.25-4.86-2,3.11-7.82,4.86-14.05,4.86-7.59,0-13.67-2.81-13.67-9.11s4.56-9.34,9.34-10.94a47.11,47.11,0,0,1,15.72-2.66C97.77,58.8,96,53.86,94,53.86s-2.81,1.82-2.81,5.39a14.29,14.29,0,0,0,1.36,6.38c-1.75,1.75-6.38,3.19-10.56,3.19s-7.36-2.73-7.36-8.2c0-8.81,10.94-13.9,22.63-13.9S117.75,51.35,117.75,63.2ZM94.58,85.08c1.22,0,2.74-1.9,3.19-3.65V74c-3,0-5.77,3.11-5.77,5.92C92,83.25,93.14,85.08,94.58,85.08Z"/>
  <path d="M162.92,46.72c8.13,0,14,6,14,12.91V79.3c0,6.16.76,8,.76,9.35a2,2,0,0,1-1,2c-2.13.76-5.85.91-9.95.91a40.6,40.6,0,0,1-9-.83,1.38,1.38,0,0,1-1.06-1.45c0-1.29.3-4.4.3-5.69V65.1c0-3.26-1.21-5.92-3.64-5.92a3.17,3.17,0,0,0-2,.68V78.77c0,4.64.69,8.58.69,10.1a2.46,2.46,0,0,1-1.45,1.83c-2,.68-5.77.83-9.49.83a39.6,39.6,0,0,1-8.73-.76c-1-.3-1.6-.76-1.6-1.74a63.76,63.76,0,0,0,.61-6.38v-22a8.29,8.29,0,0,0-2.51-6.31c0-2.81,5.77-6.15,10.49-6.15s8.2,1.82,9.94,5.09C151.68,49.38,156.85,46.72,162.92,46.72Z"/>
  <path d="M217.83,74.44c4.55,0,9.72,2.51,9.72,7.14,0,5.62-5.47,10.71-17.4,10.71-13.21,0-23.31-8.35-23.31-22.1,0-12.91,8.73-23.47,22.86-23.47,12.68,0,18.53,6.31,18.53,11.7a8.6,8.6,0,0,1-8.66,9A16.91,16.91,0,0,1,213,66.09a31.64,31.64,0,0,0,.61-6.46c0-2.58-1.37-4.25-2.89-4.25-2.13,0-3.95,4.79-3.95,12.15,0,10,2,16.18,4.33,16.18,1.59,0,2.51-2,2.51-4.41a18,18,0,0,0-.31-3.79A9.11,9.11,0,0,1,217.83,74.44Z"/>
  <path d="M278.73,68.75c0,2.35-4.71,3.79-10.56,3.79a82.16,82.16,0,0,1-12.38-1c.3,8.35,2.58,14,5,14,1.68,0,2.28-1.67,2.28-3.72a13.67,13.67,0,0,0-.53-3.57A7.11,7.11,0,0,1,267,76.87c4.25,0,8.43,3.35,9.8,7.3-3,5.08-9.19,8.12-18.91,8.12-13.14,0-22.33-7.29-22.33-21.8,0-13.9,9.26-23.77,23.31-23.77C270.75,46.72,278.73,52.11,278.73,68.75ZM255.56,67a17.18,17.18,0,0,0,6.23-1c0-7.67-1.37-12.15-3.19-12.15C256.62,53.86,255.56,59.56,255.56,67Z"/>
</svg>
