<svg id="Warstwa_1" data-name="Warstwa 1" xmlns="http://www.w3.org/2000/svg" viewBox="0 0 360 160">
  <defs>
    <style>
      .cls-1 {
        fill: #b5b5b5;
      }
    </style>
  </defs>
  <title>stacja_top50</title>
  <g>
    <path d="M155.72,107.17c-3.09,0-6.18-3-6.18-4.91,0-.85.56-1.41,2-1.55,24.59-1,50-16,50-29.09,0-5.06-3.65-8.71-9.7-8.71A27,27,0,0,0,180,66.28a8.09,8.09,0,0,1-3.94,1.12c-2.25,0-3.51-1.4-3.51-3.79a10.08,10.08,0,0,1,1.12-4.5c3.37-7.45,6.6-16.16,10.12-24.31,1.26-2.95,4.92-5.2,8.29-5.34a175.41,175.41,0,0,0,33.45-4.22,2.73,2.73,0,0,1,1-.14c1.13,0,1.69.56,1.69,1.55,0,2.39-3.23,6.88-6.89,7.87a116.48,116.48,0,0,1-25.15,4.64l-6.47,17.42a34.92,34.92,0,0,1,11.39-2.11c11.1,0,15.6,7.31,15.6,14.9,0,15-19.82,30.22-49.33,36.12A97.2,97.2,0,0,1,155.72,107.17Z"/>
    <path d="M283.33,29.6c5.9,1.83,8.43,7,8.43,13.77,0,20.8-23.75,56.78-52,56.78-10.4,0-17.28-7.17-17.28-19.12,0-27.26,31.05-55.23,57.19-55.23,2.81,0,4.08,1.13,4.08,2.53A2.26,2.26,0,0,1,283.33,29.6ZM269,34.09c-18.13,5.91-31.9,30.22-31.9,45,0,6.88,2.95,11.66,9.84,11.66,16.86,0,31.76-26.84,31.76-41.46,0-5.34-2.11-9.13-6.75-9.13a19.32,19.32,0,0,1-2,.14c-1.83,0-2.81-.84-2.81-2.11A7.85,7.85,0,0,1,269,34.09Z"/>
  </g>
  <g>
    <path class="cls-1" d="M358.3,81.08H337.43A68.75,68.75,0,0,1,280,137.81v19.85a89.8,89.8,0,0,0,78.3-76.58"/>
    <path class="cls-1" d="M328.2,79.4H307.13a39.86,39.86,0,0,1-28.81,29V128.6A61.27,61.27,0,0,0,328.2,79.4"/>
  </g>
  <g>
    <path d="M24.44,54.85c2.88-5.61,6.06-11.21,8.93-16.36a6.43,6.43,0,0,1,5.76-2.88c2.73,0,8,1.21,8,3.79,0,.76-.61,2.27-1.82,4.85l-5.45,10.6H50.33c1.22,0,1.82.6,1.82,1.66,0,2.43-3,6.67-5.3,6.67H36c-3.63,7.57-7.12,15.75-8,20.75,12.26-4.09,28-14.84,35.27-20.9a2.48,2.48,0,0,1,1.22-.46c1.36,0,2.12,2,2.12,4.25,0,2-.61,3.93-1.82,4.84C44.88,85.9,26.56,95.75,16.27,95.75c-3.79,0-5.91-2.12-5.91-6.67,0-4.09,4.24-14.39,9.84-25.9H9.3c-1.51,0-2.12-.61-2.12-1.67,0-2.42,3.49-6.66,5.45-6.66Z"/>
    <path d="M83,75.45a13.39,13.39,0,0,1-3.93-9.54c0-6.82,4.54-9.55,8.48-9.55,4.84,0,8.17,3,8.17,9.55a22.11,22.11,0,0,1-1.06,6.21,19.52,19.52,0,0,0,3,.15c6.51,0,12.87-2.88,19.83-8.18,2-1.52,2.28-1.67,2.58-1.67,1.06,0,1.51,2,1.51,4.09,0,2-.45,4.09-1.36,4.85-5.6,4.54-14.08,9.09-23.92,9.09a21.66,21.66,0,0,1-5.45-.76C85,88.63,74.41,96.2,64.12,96.2S48.83,90.14,48.83,82.72c0-15.45,17-27,27.25-27,1.66,0,2.72,1.06,2.72,3.18s-1.2,3.79-4.23,5.15c-4.85,2.27-10.45,7.72-10.45,14.24,0,3.48,2.12,6.66,5.9,6.66C75.78,85,80,80.75,83,75.45Z"/>
    <path d="M130.9,65c5.91-5.15,12.72-9.24,18.77-9.24,6.82,0,10.6,2.88,10.6,9.39,0,13.18-21.19,31.05-30.28,31.05-4.09,0-5.75-2.73-5.75-4.85,0-3.93,5.75-6.36,12-6.36,6.36-5.15,8.93-10.15,8.93-13.63,0-2.58-1.51-4.24-3.78-4.24-5.61,0-14.84,8.48-18,14.54l-5.3,10c-5.75,10.9-13.17,30-19.68,41.65a3,3,0,0,1-2.58,1.52c-3,0-6.81-4.4-6.81-8.18a4.32,4.32,0,0,1,.31-1.52c4.69-13.33,24.37-56,32.55-72.7,1.21-2.43,3.63-3.34,6.35-3.34,3.94,0,8,2.12,8,4.4a2.13,2.13,0,0,1-.3.9C134.38,57.42,132.87,61.06,130.9,65Z"/>
  </g>
</svg>
