<svg id="Warstwa_1" data-name="Warstwa 1" xmlns="http://www.w3.org/2000/svg" viewBox="0 0 360 160">
  <defs>
    <style>
      .cls-1 {
        fill: #b5b5b5;
      }
    </style>
  </defs>
  <title>stacja_live</title>
  <g>
    <path class="cls-1" d="M358.3,82.08H337.43A68.75,68.75,0,0,1,280,138.81v19.85a89.8,89.8,0,0,0,78.3-76.58"/>
    <path class="cls-1" d="M328.2,80.4H307.13a39.86,39.86,0,0,1-28.81,29V129.6A61.27,61.27,0,0,0,328.2,80.4"/>
  </g>
  <g>
    <path d="M78.86,97.35c-1.5-3.65-3-4.12-21.69-4.12h-26V92.3h2.16c4.67,0,5.6-2.34,5.6-5.61V34.32c0-3.27-.93-5.61-5.6-5.61H31.17v-.93H62v.93H60c-4.67,0-5.61,2.34-5.61,5.61v58h5.33c8.32,0,17.49-9.73,21.13-34.41h.94c-1.78,9.25-2.9,27.4-2.52,39.36Z"/>
    <path d="M97.89,92.3h2.16c4.67,0,5.6-2.34,5.6-5.61V34.32c0-3.27-.93-5.61-5.6-5.61H97.89v-.93h30.86v.93h-2.06c-4.67,0-5.61,2.34-5.61,5.61V86.69c0,3.18.94,5.61,5.61,5.61h2.06v.93H97.89Z"/>
    <path d="M149.86,36.43c-2.06-5-3.46-7.69-8.33-7.69h-1v-1h36v1h-2.8c-3.46,0-5.71,1.35-5.71,4.33a9.21,9.21,0,0,0,.66,3.27L182.3,73.73h.47L194.64,39a13.26,13.26,0,0,0,.84-4.32c0-3.65-2.15-6-5.42-6h-2.8v-1h19.16v1h-.93c-4.39,0-7.58,4.52-9.91,11.34L175.94,97H175Z"/>
    <path d="M259.6,97.35c-1.49-3.65-3.37-4.12-22.07-4.12H212V92.3h2.15c4.67,0,5.61-2.34,5.61-5.61V34.32c0-3.27-.94-5.61-5.61-5.61H212v-.93h27.3c15.71,0,17.95-.47,19.73-3l.37.46c-.84,5.15-1.3,16.18-.56,25.72l-.65.47c-2.34-15.81-3.65-22.73-16.37-22.73h-6.64V57.42c10.48.1,12.26-2.62,14.31-10.75l.56.28c-.84,5.14-.84,15.24.38,24.78l-.56.46c-2-10.75-3.93-13.83-14.69-13.83V92.3h5.52c9.26,0,18-6.17,21.6-28.33h.75a184.45,184.45,0,0,0-3,33.28Z"/>
  </g>
</svg>
