<svg id="Warstwa_1" data-name="Warstwa 1" xmlns="http://www.w3.org/2000/svg" viewBox="0 0 300 600"><title>grajek</title><g id="gruby"><path d="M103.23,263.71a6,6,0,0,0-1.64,4.79c.06.55.65,2.76.53,2.73a7.23,7.23,0,0,0,1.15.11A15.88,15.88,0,0,1,103.23,263.71Z"/><path d="M65.5,236.2c1.15-.64,2.4-1.12,3.52-1.83.91-.58,1.63.18,2.45,0,.56-.14.44.51.68.76.46.46.71.59,1.16.28A23.12,23.12,0,0,0,76.62,233a9.3,9.3,0,0,1,2.18-1.45,7.57,7.57,0,0,0,.84-.55c-.19.15,2.56,3,3,3.31,1.2.73,3.84,1.1,4.83-.36,1.28-1.91-2.29-7.66.84-8.88a3,3,0,0,1,1.49,0c3,.41,8.33-3,11.13-4.23,1.76-.74-.6-2.63-1.5-3-1.87-.79-4.67-.6-6.75-1.23a2.18,2.18,0,0,1-.93-3.69c.66-.77,1.2-1.66,2.34-1.82a.75.75,0,0,0,.46-.34c1.19-2,4.9-3.78,6.76-5.2,3.73-2.87,8.1-7.59,12.67-9.06a2.39,2.39,0,0,1,1.32-.29,8.72,8.72,0,0,1,3,.94c1.68,1.23,3.42,1,5.17.58,6.23-1.5,12.21-3.27,18.53-4.52,2-.41,3.46-.93,4.35-2.92a52.45,52.45,0,0,1,2.79-5c1.65-2.83,3-5.83,4.54-8.7,2-3.73,4.11-7.3,5.37-11.39a31,31,0,0,0,1.63-6.29,1.25,1.25,0,0,0-.37.28,9.93,9.93,0,0,1-3.27,2c-1.08.48-2.2.77-3.3,1.15-1.28.43-2.69.52-3.81,1.38a.34.34,0,0,1-.12.06,1.25,1.25,0,0,1-.43.07,11.29,11.29,0,0,0-3.86,1.25c-6.89,3.19-14.54,4.72-22,6a79.67,79.67,0,0,0-13.42,3,27.66,27.66,0,0,0-6.19,3c-1.1.74-3.89,4.38-5,4.5-.87.08-1.34.78-1.92,1.28-1.8,1.58-3.62,3.17-5.34,4.84a52.08,52.08,0,0,0-6.84,9.05,51.17,51.17,0,0,1-2.9,4.24c-1,1.25-2.56,2-3.34,3.48a2.27,2.27,0,0,1-.7,1,2.1,2.1,0,0,1-.7.21,13.61,13.61,0,0,0-3.62,1.75,29.48,29.48,0,0,1-3.8,1.72c-1.09.42-2.2.79-3.3,1.2a.79.79,0,0,0-.58.9c.08.58.13,1.16.19,1.75.29,2.77,1,6.8-.27,9.42a39.07,39.07,0,0,1-2.5,3.9c-1,.46-1.22,1.42-1.48,2.35l0,.08c-.11.39-.28.76-.42,1.14h-.06l0,0a.48.48,0,0,0-.24,0,.47.47,0,0,0-.27.25c-.3,0-.6.09-.74.42-5.91,2.95-11.52,6.58-17.19,9.95a6.42,6.42,0,0,0-1.7,1.29,2.11,2.11,0,0,1-2.45.67l-1.14-.26c-7.6-1.79-17.11,2.26-14.64,11.64a10.16,10.16,0,0,0,3.58,5.38,10.6,10.6,0,0,0,10.94,1.1,11.52,11.52,0,0,0,2.37-1.58,10.64,10.64,0,0,0,3.91-8c0-2.33.1-3.6,2.33-4.7C49.39,244.43,65,236.46,65.5,236.2Z"/><path d="M282,42.74c-3.44-.48-6.92-.34-10.38-.64-.45,0-.9-.13-1.35-.13l-10.75,0c-1.17,0-2.35-.14-3.52-.13-2.92,0-5.85.11-8.78.17l-2.73,0c-1,0-1.91-.1-2.87-.1a7.49,7.49,0,0,0-1.24.1l-.3,0H236.6L232.83,42h-.06c-.37,0-.72,0-.93-.4,0-1,0-2.08,0-3.12,0-.52,0-1,0-1.55,0-.91,0-1.82,0-2.73,0-.59.25-.8.84-.84.32,0,.64,0,1,0,.57,0,1.17.18,1.67-.29a5.82,5.82,0,0,1,2,0c.29.36.53.3.75-.06l0-.08,2,.21a.82.82,0,0,0,.78.19,5.17,5.17,0,0,0,1.88-.08c.59,0,1.17,0,1.76,0,1.73.07,3.5-.16,5.18.51a1.68,1.68,0,0,0,1,0,17.44,17.44,0,0,1,4.45-.16,2,2,0,0,0,1.13-.22c1.38.25,2.74.95,4.16.16,0,0,.12,0,.19,0,2,.41,4.05,0,6,.57a3.39,3.39,0,0,0,1.76,0c1.79.08,3.58.16,5.37.4a11,11,0,0,0,1.72,0c.59,0,1.17.08,1.77.06s1.15.2,1.68-.16a1.61,1.61,0,0,0-.93-1,18.14,18.14,0,0,0-2-.87,54.1,54.1,0,0,0-6.25-1.5c-2.08-.52-4.22-.82-6.33-1.19-1.8-.32-3.6-.64-5.4-.92-1.4-.22-2.85-.27-4.24-.6-3.81-.88-7.67-1.5-11.52-2.17-1.29-.22-2.56-.48-3.85-.68a1.3,1.3,0,0,1-1.18-.86c-.09-.24-.28-.44-.39-.68s-.13-.26-.2-.38a7.19,7.19,0,0,0-6-4.1,1.41,1.41,0,0,1-1.32-.94c-.31-.75-.67-1.46-1-2.18-.11-.21-.22-.43-.32-.64a.72.72,0,0,0-.43-.33.3.3,0,0,0-.29.11.61.61,0,0,0-.13.22c-.36,1-.74,1.95-1.07,2.94a1.16,1.16,0,0,1-1.1.92,10.41,10.41,0,0,0-3.2.87,6.48,6.48,0,0,0-2.83,2,.58.58,0,0,0-.16.62c-.28,0-.4.2-.47.4a1.69,1.69,0,0,1-1.61,1.18,6.56,6.56,0,0,1-1.72.14,4.67,4.67,0,0,0-1.75,0,21.38,21.38,0,0,1-4.43.61c-1.63.07-3.24.35-4.87.45-2.16.15-4.32.22-6.48.35l-1.14.07a9.22,9.22,0,0,0-2.89.48,4.2,4.2,0,0,0-1.49-.14c-.46,0-.91.09-1.37.14a17.63,17.63,0,0,1-1.92.22,33.36,33.36,0,0,0-5.18.47l-.8,0a1.6,1.6,0,0,0-1.26.33h-3.26a1,1,0,0,0-1,.47l-3.84.31-.4,0a9.75,9.75,0,0,0-2.46.6,25.82,25.82,0,0,0,4.26.53c1.09.06,2.16.07,3.24.09a8.93,8.93,0,0,0,4,.26l1.55.21c.12.14.22.13.31,0h.82a3.29,3.29,0,0,0,1.91.24,36.37,36.37,0,0,1,4.31.14,30.37,30.37,0,0,0,3.3.27c1.95.07,3.91-.21,5.84.35a2.88,2.88,0,0,0,.78,0l6.27,0a5.06,5.06,0,0,1,1.56.07,13.06,13.06,0,0,0,3.89.28l3.92.06.08.11a1.9,1.9,0,0,0,1.69.11c1,0,2,.06,2.94.13a1.21,1.21,0,0,1,1.3,1.17,9.35,9.35,0,0,1,0,3.69,11.86,11.86,0,0,0-.66,3.83.55.55,0,0,1-.59.62h-1.37l-1.3,0-6-.18-1,0c-2.74-.07-5.47-.11-8.21-.16l-2.25,0-1.71,0-1.35,0-14.74-.31H183a7.71,7.71,0,0,0-1,0h0l-1.5.13-.78.07-1.66.14q-3.6.3-7.2.64a7.34,7.34,0,0,0-2.33.51c1,.07,1.43.77,2.15.86s1.44.13,2.15.21a3.9,3.9,0,0,1,.57.13l8.5,2.2.28.06a5,5,0,0,1,1.41.4,7.78,7.78,0,0,0,2.36.77l.5.09,1.47.26c1.6.3,3.24.38,4.85.64,2.5.41,5,1.08,7.57.93a1.92,1.92,0,0,1,.58.07c.58.14,1.17.26,1.76.37a44.25,44.25,0,0,0,7.36.74,6.1,6.1,0,0,1,3.19.82,3.88,3.88,0,0,0,1.83.58,4.09,4.09,0,0,1,2.7,1.37c.67.62,1.31,1.27,2,1.87a1.75,1.75,0,0,1,.51,1.17,27.64,27.64,0,0,1,.18,5.45c-.19,9.92-.76,19.83-1.41,29.73-.58,9-.16,18.64-1.62,27.44a32.25,32.25,0,0,0-.29,4.59v.28c0,.28,0,.58,0,.86a1.67,1.67,0,0,1,0,.31,14.36,14.36,0,0,0-.35,4.08,3.41,3.41,0,0,1-.08,1.16,7.74,7.74,0,0,0-.29,3.09,6.93,6.93,0,0,1-.05,1.37c-.42,2-.5,1.93-2.22,2.05-.56,0-1.16-.25-1.69,0l-.19.13c-2.89,2.5-9.05.17-12.51,1.94a1.77,1.77,0,0,1-.77,0,8,8,0,0,0-1.55,0c-1.68.35-1.46-2.33-1.4-3.23.25-3.74-.17-8.16.52-11.76.88.41,1.74.89,2.65,1.22A65.91,65.91,0,0,0,210,127.34l1.29.23.33.06a.36.36,0,0,0,.45-.26,1.23,1.23,0,0,0,0-.19A.29.29,0,0,0,212,127l-.54-.62a12.13,12.13,0,0,0-2.38-2.2c-.17-.2-.33-.41-.51-.6a56.23,56.23,0,0,0-7.67-6.35c-1.14-.87-2.26-1.76-3.36-2.69-.47-.39-.48-.73-.05-1.34A3,3,0,0,0,198,112c1.5-8.18,3.2-16.62,4.74-24.91a5.66,5.66,0,0,0-1.33-4.75c-.24-.3-.55-.66-1-.54a12,12,0,0,1-4.22.37,1.24,1.24,0,0,0-.38.09c-2,.59-8,2.65-9.38.76-1.77-2.44-4-4.44-6-6.74a1.19,1.19,0,0,0-.23-.22,1.09,1.09,0,0,0-.91-.24,1.05,1.05,0,0,0-.24,0,15.09,15.09,0,0,0-3.24,1.35c-1.91.91-4,1.46-5.75,2.76C168,81.48,166,83.12,164,84.83s-3.64,3.61-5.43,5.44c5.28,3,20.76,11.72,26.08,14.37,6.46,3.21,10.82,5.21,10.82,5.21s-.11,3.29-.92,4.44c-.93,1.31-17.68-7.44-19.13-8.11-10-4.66-19.8-9.37-30.22-13a48.7,48.7,0,0,0-7-2.06c-3.5-.67-4.32-.38-2.7,2.88.37.74,3.07,1.76,3.84,2.32,2,1.46,3.95,2.85,6,4.14,4.18,2.61,7.58,5,9.94,9.41l23.33,7.56s4.66,1.84,3.7,4.6c-1.24,3.6-.76-1.16-5-2.23L158,113.88l-6.46-1.15a38.35,38.35,0,0,1-2.86,6c-2.47-.18-4.46-3.4-4.46-3.4a21.14,21.14,0,0,1-.21-2.25,1.94,1.94,0,0,1-.26.23c-1.35,1-2.66,2.13-4,3.13a1.85,1.85,0,0,0-.71,2.06,3.9,3.9,0,0,0,.71,1.39l.79,1.13c.62.89,1.24,1.79,1.84,2.68.16.24.33.47.48.71a1.44,1.44,0,0,1-.22,2.23,16.65,16.65,0,0,0-1.52,1.73c-.13.17-.27.33-.39.5l-.06.1c-.39.61-.41,1,.17,1.46a1.36,1.36,0,0,1,.36,2c-.13.22-.16.5-.27.73a1.26,1.26,0,0,0,.4,1.58,3,3,0,0,0,.82.52,2.19,2.19,0,0,1,1.46,2.63,3.76,3.76,0,0,0,.25,2.11,4.23,4.23,0,0,0,1.37,1.66.54.54,0,0,1,.54,0,24.83,24.83,0,0,0,12,1.73c.88-.06.83,1.31-.05,1.37a33.6,33.6,0,0,1-5.31,0l1.09.3a3.31,3.31,0,0,1,1.1.48,3.81,3.81,0,0,1,.56.45,53.39,53.39,0,0,1,4.43,4.83,10.5,10.5,0,0,1,2,2.85c.17.61-.18,1.48,0,2,1.73,4.58-1.38,11.06-3.2,15.17-1.91,4.28-4.63,8.21-6.61,12.48-1.12,2.42-2.77,4.6-3.93,7a.65.65,0,0,1-.11.39l-.21.31a13,13,0,0,0-.84,2.58.57.57,0,0,1-.8.43,9.65,9.65,0,0,1-1.23,2.28c-.82,2.51-1.61,5-2.18,7.6a8.61,8.61,0,0,0,.4,5.4l.15.34c.11.22.2.44.29.67s.21.52.33.77a1.16,1.16,0,0,1-.37,1.56c-6.57,5.06-15.08,6.53-22.8,9.57A115.35,115.35,0,0,0,88.8,241.26c-13.93,11.53-22.07,25.71-27.18,43-.26.89-.52,1.78-.77,2.67-.94,3.4-1.67,6.84-2.29,10.33a29.44,29.44,0,0,0,.21,11.68,53.74,53.74,0,0,0,1.58,5.58c.38,1.13.79,2.27,1.22,3.39.83,2.2,1.84,4.32,2.79,6.48,4.28,9.83,12.07,19.35,19.54,27,8.64,8.82,19.67,15.27,31.94,17.38.35.06.71.13,1.06.21a26,26,0,0,1,3.83,1.17,65.22,65.22,0,0,1,7.41,3.38c-.2.49-.62.57-1,.74a39.41,39.41,0,0,0-5.44,3.51c-1.66,1.28-3.23,2.64-4.75,4.07-6.64,6.25-12.33,13.42-17.94,20.58-5.47,7-11.26,13.76-16.51,20.93a36.61,36.61,0,0,0-6,12.69q-1.65,6.46-2.8,13c-.44,2.55-.58,1.9,1.17,3.74,3.51,3.72,7.06,7.39,10.56,11.11A20.05,20.05,0,0,0,89.07,467c14.24,9.51,30.48,14.78,45.78,22.21l3.31,1.62,2.31,1.14a240.71,240.71,0,0,1,22,12.05,54.45,54.45,0,0,1,5.25,3.69,32.34,32.34,0,0,1,9.89,14.18,33.19,33.19,0,0,1,1.87,9c.19,2.9-.86,5.79-.67,8.54a1.23,1.23,0,0,1-.91,1.49,4.13,4.13,0,0,0-1.26.9,28,28,0,0,0-2.57,2.54c-1,1-1.86,2.12-2.77,3.18-2.56,3-5.29,5.78-8.11,8.5a3.54,3.54,0,0,1-1.85,1,11.08,11.08,0,0,0-3.71,1.17,18.48,18.48,0,0,0-4.74,1.63s-.07.11-.1.17l-.31.13c-.49-.05-.65.22-.59.65a1.14,1.14,0,0,0,.57.88c.21.37.41.74.64,1.1a7.65,7.65,0,0,0,1.86,2.08,4.49,4.49,0,0,0,3.88.74,5.36,5.36,0,0,0,1.08-.45,38.84,38.84,0,0,1,18.21-3.57c3.3.22,7,1.12,10.26,1,3.08-.11,9.49-4.68,11.92-3.07a2.93,2.93,0,0,0,2,.57,3.89,3.89,0,0,0,3.06-.94c2.39-1.65,2.67-4.17,2.5-6.92a36.11,36.11,0,0,0-5.14-16.36l-.37-.62a10.26,10.26,0,0,1-1.17-4.47c-.17-2.14,1.54-5.73,2.22-7.78l1-3,1-3.08c1.56-6.24,4.09-12.34,6-18.5,1.1-3.64,2.24-7.27,3.38-10.89.37-1.19.74-2.38,1.12-3.57,4.58-14.57,10.26-29.31,13.64-44.2,1-4.33,1.94-8.67,2.94-13q3.88-16.79,7.86-33.55c.59-2.51,1.25-5,1.78-7.47.46-2.17,1-4.32,1.53-6.48.18-.76.25-.83,1.08-.76,5.41.47,10.8,1.2,16.2,1.81,1.74.2,1.61-1,1.83-2.31s1.42-3.93-.43-4.17L248,371.91a24,24,0,0,0-4.55-.31c-1.48.08-5.41.55-4.28-1.87a2.32,2.32,0,0,0,.25-.53c.5-2.26,2.54-2.76,3.21-4.75a6.41,6.41,0,0,1,.75-2.1,5,5,0,0,1,1.77-1.1c1.59-.83,2.7-3.35,3.86-4.69.21-.24.47-.59.43-.85a1.16,1.16,0,0,1,.58-1.28l.21-.12.12-.06a2.18,2.18,0,0,0-1.56.16c-4.49,1.44-9.07,2.65-13.6,4l-5.13,1.5-4.2,1.23c-1.35.39-11.87,3.87-11.83,2.53,0-.14,0-.28,0-.41,0-.28,0-.57,0-.85l0-.85.06-1.4c0-1.11.08-2.22.13-3.33.29-8,.82-16.09.93-24.12,0-.64,0-1.29,0-1.94,0-.43-.06-.85-.11-1.28,1-3.37.49-7.71.62-11.19l.48-13.2c.25-9.17,1.22-18.48.9-27.64a5.25,5.25,0,0,1,0-1c.08-.67.15-1.34.23-2,0-.25.05-.5.08-.75a99.21,99.21,0,0,0,.69-10.9.56.56,0,0,1,.4-.59c3.34-1.06,5.89-4,8.52-6.2a93.66,93.66,0,0,1,9.85-6.8,1.14,1.14,0,0,0,.48-.82.46.46,0,0,0,.41-.34,2.7,2.7,0,0,0,.78-1.1,1.82,1.82,0,0,0,.11-.3,17.29,17.29,0,0,0,.84-3.46c0-.2.05-.39.08-.58a14.67,14.67,0,0,0-.86-7.69,17.33,17.33,0,0,0-.74-1.58,140,140,0,0,0-8.22-12.9c-1.22-1.71-2.44-3.4-3.69-5.08q-2.12-2.83-4.33-5.59l0,0a2.8,2.8,0,0,1-.69-2.48,14.32,14.32,0,0,0,.26-2.91c.18-3.34.34-6.68.52-10,.13-2.62.28-5.23.42-7.84.2-3.53.43-7.06.61-10.59.88-16.83,1.86-33.66,2.75-50.48.79-14.72,1.52-29.43,2.35-44.14.23-4.16,1.72-10.13.66-14.16l.15-2.28a3.4,3.4,0,0,0,.18-2.43c0-.34,0-.69,0-1a1.08,1.08,0,0,0,.11-.91,19.39,19.39,0,0,1,1.7-4.14,2.18,2.18,0,0,1,.56-.77c1.25-.94,2.48-1.91,3.69-2.89a7.13,7.13,0,0,1,2.42-1.24,104,104,0,0,1,10.42-2.66l1.68-.38c2-.46,4.11-.93,6.19-1.21,2.44-.32,4.83-.94,7.28-1.23,1.21-.15,2.41-.37,3.61-.57l1.74-.26c1.23-.15,2.46-.27,3.68-.43q4.08-.52,8.16-1.1c1-.13,1.91-.31,2.87-.47A2.53,2.53,0,0,0,282,42.74Zm-138.55,78.7Zm2.22.8c-1,.1-1.73-1-2-1.42s.11-1.25.11-1.25c.6-.6,1.63.45,2.44,1.28S146.67,122.14,145.64,122.24ZM153,139c-1,.31-2.92-.26-3.56-5.37s-1.53-10-.19-10,1.18,4.81,1.48,6.79.1,4.31,2.27,7.32C153,137.69,154,138.69,153,139Zm.67-19.48c-.79.39-1.44-.81-.65-1.2,1.36-.67,1.15-1.83.78-3.09-.25-.85,1.09-1.16,1.34-.32C155.69,116.78,155.61,118.58,153.68,119.52ZM67.62,316.76a.69.69,0,0,1-1.16.26,9.55,9.55,0,0,1-.71-.84.52.52,0,0,1-.4-.26l-.26-.06a3.7,3.7,0,0,0-.91-.34.72.72,0,0,1-.63-.54,2.38,2.38,0,0,1-.82-1,2.52,2.52,0,0,1,.15-2.18.75.75,0,0,1,.46-.75,8,8,0,0,1,.74-.87.67.67,0,0,1,1.13.53,1.09,1.09,0,0,1,.25,0l.05,0,.08,0,.15.1c.79.67,2.18,1.92,2,3.14A4.81,4.81,0,0,1,67.62,316.76ZM214.77,146.6c.42-.16.6-.73,1.26-.59a8.74,8.74,0,0,1,.08,1.85c-.13,3.15-.2,6.29-.25,9.44L215.8,161c0,.53,0,1.05,0,1.58,0,2.58,0,5.17-.07,7.75a7.77,7.77,0,0,1-.1,1,.66.66,0,0,1-.35,0c-.3-.1-.29-.4-.36-.64-.71-2.24-1.45-4.47-2.08-6.73,0-.08-.05-.15-.07-.23-.1-.34-.21-.68-.32-1a18,18,0,0,0-2.14-4.44c-1.2-1.78-2.11-3.75-3.45-5.44A.57.57,0,0,1,207,152a2.35,2.35,0,0,1,.62-.48,8.84,8.84,0,0,0,2.94-2.2A11.48,11.48,0,0,1,214.77,146.6Zm-13.7-3c2.59-.6,5.17-1.27,7.74-1.91.39-.09.77-.16,1.15-.21a.36.36,0,0,1,.3.17.71.71,0,0,1,0,.38c-.09.42-.46.61-.76.86-1.87,1.52-3.76,3-5.59,4.59a1.78,1.78,0,0,1-2.29.27c-.26-.4-.55-.8-.81-1.21a1,1,0,0,0-.78-.4.68.68,0,0,1-.09-.17C199.17,144.22,199.3,144,201.07,143.61Zm-.66,22.22h0S200.41,165.82,200.41,165.83Zm-28.63,12c1.79-6,5.74-11.87,11.84-14a.55.55,0,0,1,.74.35c-.67.46-.83,1-1.38,1.59-5.34,2.64-9.19,9.07-9.73,14.85a40.38,40.38,0,0,0,1.57,13.34,15.84,15.84,0,0,0-.5,4.8C172,192.18,169.79,184.54,171.78,177.85ZM160.13,127.9c-.48-.74,1.16-1.38,1.63-.65,1.92,3,2.8,6.37,3.93,9.69,1.28,3.79,2.57,7.58,4,11.32.32.83-1.45,1.14-1.76.32q-2.13-5.61-4-11.32C162.88,134.05,162,130.77,160.13,127.9Zm6.49,351.51a1.18,1.18,0,0,1-.32-.21c-5.62-6-11.08-12.36-16.65-18.48s-11.4-12.81-18.37-17.4c-1.21-.8-5.19-2.37-2.63-3.86l10.13-5.89c1.44-.84,2.92-1.63,4.31-2.56.92-.61,2.42-1.14,3.19-1.76a7.81,7.81,0,0,1,1.25-.56c.27-.09.6.11.59.34-.08,1.59,1.22,3.64,1.8,5.07,3,7.38,6.11,14.93,9.11,22.39q2.28,5.68,4.51,11.39,1.1,2.85,2.18,5.72c.57,1.52,1.72,3.5,1.79,5.15A.68.68,0,0,1,166.62,479.41Zm-27.56-187a1.7,1.7,0,0,0,2.27-.24c.5-.73,1.58.17,1.16.95a2.4,2.4,0,0,1-.52.65l-.28.31a7.92,7.92,0,0,0,1.45.41c0-.12,0-.25,0-.38a.69.69,0,0,1,1.29-.31c.07.15.11.27.16.39,1.39.78,2.14.6,2.26-.55l.22-.63a6.94,6.94,0,0,1,.38-.71,3.77,3.77,0,0,1,1.39-1.27,3.38,3.38,0,0,1,3.79-.24c.78.42,0,2-.73,1.59-3.73-2-3.13,4.22-6.29,4.16a2.63,2.63,0,0,1-1.92-.66,10.78,10.78,0,0,1-3.34-.84.79.79,0,0,1-.49-.6,4.7,4.7,0,0,1-1.9-.6c-2-1.15-2.53-2.66-2.15-4.83.15-.86,2.1-.66,1.94.2C137.49,291.08,137.65,292,139.06,292.44ZM150.15,283a13.59,13.59,0,0,1-7.68,2.39c-.88,0-.83-1.81.05-1.8a11.41,11.41,0,0,0,6.76-2C150,281.07,150.88,282.49,150.15,283Zm35.63,6.14c-1.52.79-6.71,2.57-6.88,4.33-.23,2.3-2.83,4.68-4.2,6.34-1.83,2.22-4.06,4.06-5.52,6.58-.63,1.1-2.34.78-3.22.41-2.21-.91-7.46-4.4-7.3.33,0,1.36-2.66,3.7-3.47,4.48-1.43,1.4-3.15,2.8-3.71,4.81a25.76,25.76,0,0,1-1.42,3.55.7.7,0,0,1-1.16.26,2.77,2.77,0,0,1-.79-1.17.62.62,0,0,1-.25-.53c0-.2,0-.39,0-.59a7.57,7.57,0,0,1,.06-1.42c.24-3.62,2.71-10.88,3-10.84.2-.47.4-.93.63-1.38.15-.3,1.61-2.84.64-2.78a6.68,6.68,0,0,0-4,1.5c-2.26,2-4.94,1.69-5.92-1.45-.42-1.31-2.38-1.53-3.4-2.63a4.79,4.79,0,0,1-.93-3.75c.08-.88,1.45-.83,1.37.05a3.53,3.53,0,0,0,1.12,3c1.2-.12,2.19-.85,3.39-.92a12.86,12.86,0,0,0,5.38-1c1.9-1,3.63-2,5.82-1.82.88.07.83,1.44-.05,1.37-3-.25-5.49,2.3-8.48,2.67a17.76,17.76,0,0,0-4.35.73l.44.16a1.24,1.24,0,0,1,.48.37,1.82,1.82,0,0,1,.31.7c.71,2.26,2.82,2.35,4.61.9,1-.78,3.47-1.71,5-1.19.31-.4.66-.76,1-1.13a10.26,10.26,0,0,1,1.14-1.34.77.77,0,0,1,1.19.05,5.75,5.75,0,0,1,.6,1.67,3,3,0,0,1,.22,1.44c-.22.89-1.9,1.26-2.9,1.33a.94.94,0,0,0,0,.29.73.73,0,0,1-.5.77c-.5,1.31-1.38,2.66-1.62,3.35-.36,1-1.48,3.68-2.22,6.37a.63.63,0,0,1,.13.37,2.16,2.16,0,0,0,.46,1.31,7.57,7.57,0,0,1,1.24-1.92c1.26-1.37,2.47-2.59,3.7-4s1.15-2,1.38-3.63c.19-1.41,2.27-2.28,3.37-2.44,2.77-.43,4.31,1.66,6.8,2.23.66.16,2.32-2.38,2.8-2.91,1.32-1.45,2.73-2.8,3.94-4.36.93-1.2,3.18-3.37,3-5a2.28,2.28,0,0,1,.7-1.51c.56-.7,2-1.05,2.73-1.42q2.39-1.2,4.76-2.44c3.25-1.71,6.33-3.7,9.47-5.6.76-.45,1.62,1.39.86,1.85C192.11,285.41,189,287.42,185.78,289.12Zm-28.25,1.23a5.5,5.5,0,0,1,2.23-1.45c.79-.39,1.66,1,.86,1.42-.35.18-.71.33-1.06.51a1.83,1.83,0,0,0-.66.46C158.38,292,157,291.06,157.53,290.35Zm79.95,90.2c-.15.11-.13.48-.13.74,0,2.43-1.11,4.77-1.54,7.14-.49,2.73-1,5.46-1.54,8.18-1.25,6.31-2.65,12.55-4.35,18.72-2.41,8.75-4.73,17.72-7.35,26.49-1.34,4.49-2.74,9-4.3,13.38s-3.49,8.41-4.6,12.85a115.09,115.09,0,0,1-4.33,14.36c-2.39,6-4.19,12.16-6.21,18.33-.4,1.24-.82,2.47-1.23,3.71-.08.27-.24.53-.49.55a.49.49,0,0,1-.44-.18,1.71,1.71,0,0,1-.2-.43c-.35-.91-.7-1.82-1.06-2.73-.25-.61-.56-1.19-.75-1.81-.3-1-.91-1.57-1.08-2.77-.4-2.84-1.34-6-.8-8.87.15-.79.29-1.58.43-2.37.2-1.14.38-2.28.52-3.43a13.09,13.09,0,0,0-.07-2.93c-.42-4.11-.87-8.42-1.25-12.62-.2-2.25-.38-4.51-.51-6.78a41.22,41.22,0,0,0-.24-6v0a6.57,6.57,0,0,1,1.15-5.16c.66-1,.84-2.15,1.55-3.11a22.17,22.17,0,0,0,1.55-2.94c.54-1,1.1-2.07,1.61-3.13.23-.45.62-.85.58-1.43l0,0,0,0,0,0a18.29,18.29,0,0,0,2-3.53c5.45-10.44,10.65-21,15.91-31.54q2-4.1,4.06-8.18c1.31-2.68,3-5.08,4.39-7.73.4-.81.91-1.56,1.33-2.36,1.15-2.2,2.26-4.4,3.4-6.6a9.19,9.19,0,0,1,.57-1,.54.54,0,0,1,.68-.25,3.75,3.75,0,0,0,1.91.11c.69-.09,1.06.27,1.1,1S238.44,379.85,237.48,380.55Zm-21-11.65a11.84,11.84,0,0,1,1.48-.52q5.64-1.62,11.3-3.22l.69-.2a8.41,8.41,0,0,0,1.89-.7,3.75,3.75,0,0,1,.93-.3,32,32,0,0,0,4.75-1.19,2.87,2.87,0,0,1,.78-.09c.22,0,.45.36.32.57-.23.39-.48.77-.74,1.14-1.16,1.66-2.46,3.23-3.58,4.92-.22.32-.44.64-.64,1a1.52,1.52,0,0,1-1.61.87l-3.23-.3-4-.37c-2.54-.24-5.08-.5-7.62-.76a4.13,4.13,0,0,1-.77-.13c-.1,0-.26-.2-.25-.26S216.32,369,216.45,368.9Zm-1.21,6.1c5,.24,10,.18,15.06.31.84,0,1,.29.61,1.11-.08.18-.17.35-.26.52l-1.42,2.57q-3,5.4-5.93,10.81-1.49,2.7-2.94,5.41c-6.27,11.67-12.76,23.32-19.14,35l-4.86,8.88c-.27.49-.41,1.36-1,1.32-.83-.07-.63-1-.76-1.58-.45-2.07-.87-4.14-1.3-6.2-.19-.94-.38-1.88-.58-2.82-.08-.45-.14-.9-.18-1.2a4.76,4.76,0,0,1,.34-1.68c1.12-3.48,2.21-7,3.33-10.45a7.8,7.8,0,0,0,.38-1.91c.39-5.22.73-10.56,1.49-15.8s2.1-10.43,3.28-15.63l1.17-5.22c.31-1.35.26-3.09,1.67-3.74a3.55,3.55,0,0,1,2.89,0,14.22,14.22,0,0,0,2.76.3C211.64,375,213.44,374.91,215.24,375Zm-16.17-66.87c.43-1.94.74-4,1-5.93.91-6.62,2.27-14.72,5.32-20.69l.09-.18c.14-2.09.37-4.17.4-6.27a3.47,3.47,0,0,1,1.6-2.75c2.47-1.76,1.38,6.54,1.33,7.68-.15,3.9-.33,7.8-.42,11.7-.14,6.22.73,12.61,0,18.79-.28,2.53-.39,5.09-.59,7.64-.06.8-.14,1.62-.22,2.43l-.06.69c-.16,1.63-3.3-2.17-3.73-2.63-1.61-1.7-6.33-5.7-5.29-8.41q.11-.29.18-.57C198.84,309.14,199,308.64,199.07,308.13Zm19.39-67.43c-1.8.89-4,1-5.59,2.29,0,0,.15.24.12.26s-.28-.18-.31-.17-.84,1.07-.85,1.06a15.06,15.06,0,0,0-2.67,2.63c.07,0-3.81.45-5.52,2.3-.93,1-2,1.88-2.85,3-1.65,2.06-3.54,3.87-5.12,6a48.73,48.73,0,0,1-9.32,9.92c-4,3.08-7,7.41-11.44,9.93a31.58,31.58,0,0,1-4.26,2.05l-.22.12c-1.44.68-3.19,1.69-4.82,1.79a3.4,3.4,0,0,1-1.64-.28l-.71.06a.62.62,0,0,1-.58-.91,15.38,15.38,0,0,0-2.33-1.92c-2-1.15-3.39.09-5.28.42a4.81,4.81,0,0,1,2.12,4.12c0,1.77-2.72,1.67-2.74-.09a2.62,2.62,0,0,0-1.45-2.12,1.36,1.36,0,0,0-.33-.35c-1.64-1.23-3.65-1.7-5.43-2.67a1.41,1.41,0,0,0-.56-.18,13.62,13.62,0,0,0-2.86-1.42c-1.23-.41-1.93.93-1.53,1.86a1.5,1.5,0,0,0-.23,1.36,20.26,20.26,0,0,1-1.48,3.25,1.1,1.1,0,0,0-.15.95c0,.15-.05.3-.06.46a1.91,1.91,0,0,0,1,2.68,6.72,6.72,0,0,0,6.46-1.28l.36,0,.42.09.08,0,.18.09h0c-.63,1.75-1.43,3.53-3.6,3.23-2.48-.33-5.5-.17-7.14-2.4a1.39,1.39,0,0,1,.69-2.27l.45-.06a49.12,49.12,0,0,0-7.25-5c-2.56-1.26-5.4-2.22-7.86-3.66a31.81,31.81,0,0,0-6.54-3.41,1.25,1.25,0,0,1-.86-.81,8,8,0,0,1-1,3.33,9.67,9.67,0,0,1-7.7,4.4c-3.45.34-7.88.84-10.6-1.85-2.56-2.53-3.32-5.9-3.11-9.43.41-6.79,4-13.23,11.56-13.49,3-.1,6.11.48,8.08,2.94a25.75,25.75,0,0,1,2.7,4.08,1.33,1.33,0,0,1,.8.89,6.92,6.92,0,0,1,.26,1.92c.19.76,0,1.12.26,1.79.49-.3,2,.3,2.68.69,3.51,2.07,4.5,3.15,7.37,4.46a72,72,0,0,1,7.82,4.46,34.82,34.82,0,0,0,4.56,2.46,8.52,8.52,0,0,1-1-3.86.35.35,0,0,1,.47-.3.36.36,0,0,1,.28-.56h.11a1.54,1.54,0,0,1,.29-.21,1.37,1.37,0,0,1,1.85.56s0,.07.05.1A9.42,9.42,0,0,1,144,275a14.94,14.94,0,0,0,4,2c2.1.45,3.72.23,5.47,1.12a11.78,11.78,0,0,0,1.94-.5c1.24-.45,2.73-1.36,4.09-1a7.41,7.41,0,0,1,2.71,1.67c.39.37,1.39,1.39,1.47,1.39,6.14-.27,11.17-3.22,15.51-7.36,2-1.88,3.82-3.82,6-5.53a39.36,39.36,0,0,0,4.52-4.78c3.7-4.15,7.5-8.28,11.05-12.56.9-1.09,2.28-2.63,3.74-3a6.33,6.33,0,0,1,1.6-.37c.52,0,.58-1.27.25-1.91-1.42-2.71-2.21-5.24-4-7.83-2.3-3.41-4.35-7-7.46-9.73a.57.57,0,0,1-.21-.4c-.55-.41-1.11-.82-1.69-1.23-2.86-2-5.92-3.33-7.52-6.63S183,211,182,207.38c-.25-.85,1.08-1.16,1.33-.32.57,1.93,1.54,3.73,1.83,5.73a14,14,0,0,0,2.08,5.7c2.11,3.14,6.21,5.11,9.32,7.18,4.31,2.86,7,7.36,10.4,11.16l.29.27a.9.9,0,0,1,.2.14l.18.21c.94.86,1.86,1.72,2.72,2.67a17.34,17.34,0,0,0,2.17,1.49c1.64-1,3.59-1.26,5.33-2.11C218.6,239.11,219.25,240.31,218.46,240.7Zm-23-13,.32.4a.31.31,0,0,0,.05.1l-.06-.1Z"/></g></svg>