<svg id="Warstwa_1" data-name="Warstwa 1" xmlns="http://www.w3.org/2000/svg" viewBox="0 0 360 160">
  <defs>
    <style>
      .cls-1 {
        fill: #1d1d1b;
      }
    </style>
  </defs>
  <title>stacja_katowice</title>
  <path class="cls-1" d="M229.65,4.9H203.07A86.78,86.78,0,0,1,178.13,53a86.73,86.73,0,0,1-48.2,24.17v25.28a113.48,113.48,0,0,0,66.74-32.08,113.55,113.55,0,0,0,33-65.45"/>
  <path class="cls-1" d="M193.46,4.9H166.63a50.56,50.56,0,0,1-13.67,24,50.66,50.66,0,0,1-23,13V67.56A77.44,77.44,0,0,0,171.5,46.25a77.49,77.49,0,0,0,22-41.35"/>
  <path class="cls-1" d="M156.87,4.9H129.93V32.08a41.39,41.39,0,0,0,16.4-9.93A41.29,41.29,0,0,0,156.87,4.9"/>
  <path class="cls-1" d="M195.57,84.06A122.61,122.61,0,0,1,129.93,112v44.54H244.54Z"/>
</svg>
