<svg id="Warstwa_1" data-name="Warstwa 1" xmlns="http://www.w3.org/2000/svg" viewBox="0 0 360 160">
  <defs>
    <style>
      .cls-1 {
        fill: #b5b5b5;
      }
    </style>
  </defs>
  <title>stacja_moje_radio</title>
  <g>
    <path class="cls-1" d="M359.3,83.08H338.43A68.75,68.75,0,0,1,281,139.81v19.85a89.8,89.8,0,0,0,78.3-76.58"/>
    <path class="cls-1" d="M329.2,81.4H308.13a39.86,39.86,0,0,1-28.81,29V130.6A61.27,61.27,0,0,0,329.2,81.4"/>
  </g>
  <g>
    <path d="M3.46,97.51V37.93H14.73l8.46,43.53,8-43.53H42.48V97.51H34.39V75.3l.34-20.37-8,42.31H19.5L11.14,54.93l.34,20.37V97.51Z"/>
    <path d="M63.44,98.12q-7.19,0-10-4.3T50.71,81.39v-19q0-16.29,12.69-16.28T76.09,62.41v19q0,12.7-6.53,15.61A15.07,15.07,0,0,1,63.44,98.12Zm0-7.25A2.83,2.83,0,0,0,66.3,89a15.35,15.35,0,0,0,.76-5.5V60.82a15.2,15.2,0,0,0-.78-5.59,3.17,3.17,0,0,0-5.76,0,15.25,15.25,0,0,0-.77,5.61V83.53q0,5.58,1.82,6.83A3.24,3.24,0,0,0,63.44,90.87Z"/>
    <path d="M87.33,104.14q-.6,0-2.64,0a5,5,0,0,1-2.81-.57V97.4a4.41,4.41,0,0,0,1.53,0,2,2,0,0,0,2.13-2.27V46.73h9v48.1c0,3.09-.63,5.41-1.88,6.94A6.66,6.66,0,0,1,87.33,104.14ZM85.4,42.06V34.28h9v7.78Z"/>
    <path d="M115.22,98.12c-5.7,0-9.39-2.18-11-6.54a31.85,31.85,0,0,1-1.56-11V61.7q0-15.57,13-15.57c4.61,0,7.79,1.36,9.57,4.09s2.65,6.61,2.65,11.64V72.73H111.67v10c0,3.52.3,5.77.91,6.72a3,3,0,0,0,2.74,1.44q1.83,0,2.37-.84a7,7,0,0,0,1-3c.09-1,.14-2.46.14-4.27V78.25h8.87V81c0,4.61-.36,7.91-1.09,9.92a11.22,11.22,0,0,1-2.5,4.37C122.17,97.16,119.2,98.12,115.22,98.12Zm-3.59-30.64h7.25V61a19.18,19.18,0,0,0-.66-6,2.6,2.6,0,0,0-2.69-1.81h0c-2.34,0-3.61,1.79-3.79,5.38,0,.68-.07,1.56-.07,2.64Z"/>
    <path d="M160.21,69.51l-2.91-.13V97.51h-9.08V37.93h15c3.11,0,5.44.63,7,1.88a9,9,0,0,1,3,5.25,42.77,42.77,0,0,1,.73,8.8,23.25,23.25,0,0,1-1.15,8.28A6.42,6.42,0,0,1,168.53,66c2.05.36,3.49,1.75,4.3,4.16s1.22,7.45,1.22,15.08.11,11.74.34,12.31h-9.07q-.34-.67-.34-21.36,0-4-.95-5.27C163.4,70,162.12,69.56,160.21,69.51Zm-2.88-7.17H161a3.65,3.65,0,0,0,2.56-.78,4.75,4.75,0,0,0,1.15-2.67A38.6,38.6,0,0,0,165,53.1v-.37q0-4.84-.81-6.33c-.55-1-1.8-1.49-3.76-1.49h-3.08Z"/>
    <path d="M190.87,98c-3.31,0-5.68-1.18-7.11-3.57s-2.15-5.8-2.2-10.27V80.92q0-6.49,3.52-9.85c1.51-1.46,4.08-2.89,7.69-4.26l2.72-1,2.46-.91V60.44a17.21,17.21,0,0,0-.6-5.6,2.57,2.57,0,0,0-2.7-1.47,2.8,2.8,0,0,0-2.83,1.56,13.78,13.78,0,0,0-.71,5.24v2.27h-8.87V60.92q0-7.22,2.69-11t9.55-3.79q6.86,0,9.75,3.79c1.92,2.52,2.89,6.32,2.89,11.37V97.51h-9V92.46a7.9,7.9,0,0,1-2.59,4A6.93,6.93,0,0,1,190.87,98ZM198,70a17.44,17.44,0,0,0-5.76,3.59q-1.49,1.69-1.49,5.25v5.45a12.47,12.47,0,0,0,.75,5.09,2.5,2.5,0,0,0,2.42,1.54,3.58,3.58,0,0,0,2.74-1.13A5.17,5.17,0,0,0,198,87.18Z"/>
    <path d="M224.21,98c-2.73,0-4.77-.76-6.13-2.3a11.44,11.44,0,0,1-2.62-5.84,52.26,52.26,0,0,1-.59-8.58V60.61a20.66,20.66,0,0,1,2.33-10.42q2.34-4.06,7.72-4.06a7.48,7.48,0,0,1,6.57,3.75V37.43h9V97.51h-9V92.8Q229.45,98,224.21,98Zm.49-9.22a3,3,0,0,0,3,2.08,3,3,0,0,0,3-2.08,20.75,20.75,0,0,0,.83-7V61.53q0-6.27-1.9-7.59a3.45,3.45,0,0,0-2-.54,2.91,2.91,0,0,0-3,2.07,19.09,19.09,0,0,0-.75,6.16V82.51A18.64,18.64,0,0,0,224.7,88.79Z"/>
    <path d="M249.42,42.06V34.28h9v7.78Zm.11,55.45V46.73h9V97.51Z"/>
    <path d="M279.45,98.12q-7.18,0-9.95-4.3t-2.78-12.43v-19q0-16.29,12.69-16.28t12.7,16.28v19q0,12.7-6.54,15.61A15.07,15.07,0,0,1,279.45,98.12Zm0-7.25A2.83,2.83,0,0,0,282.31,89a15.13,15.13,0,0,0,.76-5.5V60.82a15.2,15.2,0,0,0-.78-5.59,3.16,3.16,0,0,0-5.75,0,15.22,15.22,0,0,0-.78,5.61V83.53q0,5.58,1.83,6.83A3.19,3.19,0,0,0,279.45,90.87Z"/>
  </g>
</svg>
