<svg id="Warstwa_1" data-name="Warstwa 1" xmlns="http://www.w3.org/2000/svg" viewBox="0 0 50 50"><defs><style>.cls-1{fill:#fff;}</style></defs><title>Bez nazwy-2</title><path d="M28.2,29.44a3.33,3.33,0,0,1,1.31,1.47c.4,1,.06,1.5-.15,2.45s.53,1.55.29,2.45a2.41,2.41,0,0,1-.57,1c-.3.34-1,.61-1.22,1s.51,1.5.59,2.06A4.48,4.48,0,0,1,28,42.57a6.27,6.27,0,0,1-4.05,3.19,9.08,9.08,0,0,1-5.31.62,7.87,7.87,0,0,1-4.2-2.9c-1.09-1.55-1.33-3.66-1.55-5.49A13.35,13.35,0,0,0,11,32.4c-1.93-3.14-5.5-4.84-7-8.37A13.14,13.14,0,0,1,5.18,12.71,14.49,14.49,0,0,1,14,6.11a11.16,11.16,0,0,1,5.56.28,14.9,14.9,0,0,1,4.68,2.73,11.23,11.23,0,0,1,3.45,5,6,6,0,0,1-.11,3,4.44,4.44,0,0,0,1,2.65c1,1.61,2.73,3.34,2.9,5.3a3.08,3.08,0,0,1-1.11,2.45C29.82,28,28.44,28.64,28.2,29.44ZM16.51,7.8s-1.92.25-2.08.28a9.76,9.76,0,0,0-2.6,1A12.38,12.38,0,0,0,8,12.22a11.94,11.94,0,0,0-2.4,9.9c.8,3.54,3.91,5.28,6.15,7.84a13.2,13.2,0,0,1,2.56,4.73c.52,1.69.55,3.44.92,5.16a5.61,5.61,0,0,0,2,3.58,5.27,5.27,0,0,0,4.85.85c1.64-.53,3.2-1,4.06-2.64a2,2,0,0,0,.09-2.14c-.45-.66-1-.72-.75-1.69A3.49,3.49,0,0,1,26.75,36c.63-.48,1.22-.67.46-1.29-.46-.38-1.07-.74-.7-1.42s1.52-.78,1.12-1.58c-.29-.6-1.09-.82-1.39-1.54a2.07,2.07,0,0,1,.35-2.15c.93-1.18,3.48-1.86,2.63-3.66s-2.22-3.22-3.06-5a4.52,4.52,0,0,1-.4-3.08,4.27,4.27,0,0,0-.13-2.55C24.32,10.09,20.12,8.14,16.51,7.8Z"/><path d="M47.37,19a10.7,10.7,0,0,1-2.18,6.17c-1.33,1.69-3.19,3.06-4.16,5s-.75,4.34-1,6.59A12.75,12.75,0,0,1,39.46,40a12.48,12.48,0,0,1-1.66,2.64,5.77,5.77,0,0,1-2,1.7,5.35,5.35,0,0,1-2.9,1.21A7,7,0,0,1,30,44.71c-.86-.41-1.42-1.42-.17-1.86.84-.3,1.67.49,2.49.62a4.22,4.22,0,0,0,3-1.19A8.18,8.18,0,0,0,38,36.64c.25-2.16,0-4.31.74-6.41s2.4-3.68,3.89-5.31a8.64,8.64,0,0,0,2.66-5.86,16.13,16.13,0,0,0-1.2-6.36,10.09,10.09,0,0,0-4-4.65A8,8,0,0,0,33.82,7c-1.74.41-4.2,1.33-5,3.1-.37.8-.79,1.13-1.64.48s-.1-1.74.48-2.45A10.52,10.52,0,0,1,34,4.82,10.19,10.19,0,0,1,41.2,6.41C45.39,8.92,47.36,14.35,47.37,19Z"/><path d="M35.29,10.21c4-.05,6.6,3.28,6.81,7a6.44,6.44,0,0,1-.36,2.58c-.25.66-.93,2.13-1.63,2.41-.51.2-1.57-.38-1.58-1s1-1.63,1.25-2.3a5.56,5.56,0,0,0-.92-5,4.74,4.74,0,0,0-4.8-1.54,3.24,3.24,0,0,0-1.16.46c-.32.22-.59.65-1,.7a1.26,1.26,0,0,1-1.29-1.42C31.07,10.47,34,10.39,35.29,10.21Z"/><path d="M33.25,23.08c.82-.32,1.75,1.94,2,2.48a7.37,7.37,0,0,1,.48,3.62c-.25,1.33-3.25,5.06-4.61,2.78-.62-1.05.9-1.29,1.44-1.74a2.76,2.76,0,0,0,1-2.89,5.33,5.33,0,0,0-.52-1.8c-.23-.44-.68-.74-.89-1.14C31.68,23.51,32.53,23.08,33.25,23.08Z"/><path d="M8.26,18.79a8.69,8.69,0,0,1,4.38-7.24,9.06,9.06,0,0,1,5.27-.87,4.62,4.62,0,0,1,2.38.87c.41.47.47,1.5-.2,1.76s-1.32-.36-1.85-.5a6.08,6.08,0,0,0-2.75-.06,5.94,5.94,0,0,0-3.74,2.09,7.78,7.78,0,0,0-1.56,4.23c-.08.71-.19,1.46-1.11,1.11A1.28,1.28,0,0,1,8.26,18.79Z"/><path d="M16.56,19.88a7.83,7.83,0,0,0-.79,1.29c-.15.34-.23.91-.64,1.07-.65.26-1.32-.68-1.33-1.23,0-1.35,1.54-2.92,2.54-3.62a5.82,5.82,0,0,1,4.72-.79c.73.11,1.41.19,1.53,1.07.14,1.13-.67,1.21-1.48,1-.36,1.17-.76,2.49-2.17,2.64A2.57,2.57,0,0,1,16.56,19.88ZM19,18.78c.34-.14,0-.33-.19-.33C18.77,18.59,18.83,18.7,19,18.78Z"/><path d="M15.48,31.1a7.42,7.42,0,0,1,2.41-5.49c.63-.49,1.64-.92,2.14,0s-.49,1.45-1.11,2a4.47,4.47,0,0,0-1,5c.17.45.5,1.08,0,1.48a1.1,1.1,0,0,1-1.19,0A3.67,3.67,0,0,1,15.48,31.1Z"/><path class="cls-1" d="M19,18.78c-.2-.08-.26-.19-.19-.33C19.07,18.45,19.37,18.64,19,18.78Z"/></svg>