<svg id="Warstwa_1" data-name="Warstwa 1" xmlns="http://www.w3.org/2000/svg" viewBox="0 0 50 50"><title>Bez nazwy-2</title><path d="M42,32.63a9.44,9.44,0,0,1-1,2.73,7.82,7.82,0,0,1-2.15,2A5.91,5.91,0,0,1,33,38a5.34,5.34,0,0,1-2.05-1.81,7.34,7.34,0,0,1-.73-1.24c-.17-.36-.21-1-.44-1.35s-2.22-.15-2.83-.15c-1.21,0-2.43-.07-3.64-.08-1,0-2.1-.06-3.14,0-.72,0-.66.12-.77.78a4.76,4.76,0,0,1-.48,1.48,7,7,0,0,1-4.55,3.52A7.55,7.55,0,0,1,8.7,37.79,5.47,5.47,0,0,1,7,35.87a4.32,4.32,0,0,1-.39-1.2,17.07,17.07,0,0,0-.17-1.94C6.23,32,5.39,31.29,5,30.62a7.56,7.56,0,0,1-1-2.79,14.25,14.25,0,0,1,.41-6.52,15.77,15.77,0,0,1,7.79-9,18.17,18.17,0,0,1,5.76-1.61,11.35,11.35,0,0,1,5.77.59,9.15,9.15,0,0,1,4.54,3.27,13.32,13.32,0,0,0,4,4.18c2.05,1.19,4.25,1.26,6.53,1.6a9.06,9.06,0,0,1,5.44,2.45,6.36,6.36,0,0,1,1.77,5.74,6.32,6.32,0,0,1-1.29,3A2.72,2.72,0,0,1,42,32.63Zm-34.76-2a8.39,8.39,0,0,1,3.41-2.95,10.49,10.49,0,0,1,4.86-.32,4.42,4.42,0,0,1,3.32,2.44,9.71,9.71,0,0,0,.4,1.15c.24.37.17.32.7.29,1.79-.08,3.58-.06,5.37,0,1.51,0,3.13.4,4.61,0,.44-.13.4-.15.61-.56A5.64,5.64,0,0,1,32,28.84a6.07,6.07,0,0,1,4.52-1.55,6.6,6.6,0,0,1,4.2,2.07c.33.32.63,1.08,1,1.27.79.39,1.28-.39,1.58-.94a4.39,4.39,0,0,0,.16-4.35,6.5,6.5,0,0,0-3.8-2.73c-1.86-.42-3.79-.37-5.64-.84a9.84,9.84,0,0,1-4.37-2.28,43,43,0,0,1-3.25-3.92,9.32,9.32,0,0,0-4.58-2.81c-2.29-.64-5.53.27-7.68,1.09a13.91,13.91,0,0,0-6.69,5.44A10.76,10.76,0,0,0,7.19,30.62Zm10.19,2.69a5,5,0,0,0-.78-3.2,3.74,3.74,0,0,0-3.36-.78,14.18,14.18,0,0,0-1.6.13,4.54,4.54,0,0,0-1.4.8,4.53,4.53,0,0,0-1.75,2.68c-.33,2.38,1.9,4,4,4.16C14.47,37.24,17.59,35.64,17.38,33.31Zm17.89,3.06c1.72,0,3.95-1.3,4.38-3.07.57-2.38-1.55-3.89-3.73-3.81a4.26,4.26,0,0,0-4.13,3.26,3.28,3.28,0,0,0,1,2.52A3.76,3.76,0,0,0,35.27,36.37Z"/><path d="M8.59,24.63c-.1-3.4,2.67-6.57,5.38-8.28a7.25,7.25,0,0,1,5.19-1.21c.66.11,1.77.29,2.15.93a1.14,1.14,0,0,1-.75,1.68c-.73.05-1.51-.58-2.29-.62a5,5,0,0,0-2.46.6A10,10,0,0,0,12,20.91a11,11,0,0,0-1.13,2.15,13.83,13.83,0,0,0-.34,2.63c-.13.67-.52,1.07-1.22.73S8.59,25.36,8.59,24.63Z"/><path d="M25.27,24.81a5.15,5.15,0,0,1,2.93.68A1.24,1.24,0,0,1,28,27.35c-.42.24-.82,0-1.23-.16A4.79,4.79,0,0,0,25.17,27,5.33,5.33,0,0,0,22,28c-.61.49-.89,2-1.82,1.77-1.14-.27-.84-1.54-.43-2.26C20.86,25.59,23.23,24.94,25.27,24.81Z"/><path d="M12.67,34.31c-.95.12-1.78-1.14-1.7-1.93a1.87,1.87,0,0,1,2.22-1.63,1.84,1.84,0,0,1,1.48,2A1.88,1.88,0,0,1,12.67,34.31Z"/><path d="M34.06,32.9c0-2,3.38-2.95,3.51-.54C37.67,34.43,34.55,35,34.06,32.9Z"/></svg>