<?xml version="1.0" encoding="utf-8"?>
<!-- Generator: Adobe Illustrator 23.0.1, SVG Export Plug-In . SVG Version: 6.00 Build 0)  -->
<svg version="1.1" id="Warstwa_1" xmlns="http://www.w3.org/2000/svg" xmlns:xlink="http://www.w3.org/1999/xlink" x="0px" y="0px"
	 viewBox="0 0 36 11.5" style="enable-background:new 0 0 36 11.5;" xml:space="preserve">
<style type="text/css">
	.st0{fill:#434343;}
	.st1{fill:#9A9A9A;}
</style>
<g>
	<path class="st0" d="M11.4,3.1c0.7,0,1.1,0.2,1.3,0.4c-0.1,0.3-0.2,0.8-0.2,1.6v1.8c0,0.2,0.1,0.3,0.1,0.4c0,0,0,0.1,0,0.1
		c0,0.2-0.4,0.5-0.9,0.5c-0.4,0-0.7-0.2-0.9-0.4C10.7,7.8,10.3,8,9.8,8C9,8,8.4,7.2,8.4,6.1c0-1.3,0.8-2,1.8-2
		c0.2,0,0.5,0.1,0.6,0.2V4.1c0-0.1-0.1-0.4-0.3-0.4C10.5,3.3,10.9,3.1,11.4,3.1z M10.7,5.2c0-0.2-0.1-0.4-0.3-0.4
		c-0.2,0-0.3,0.5-0.3,1c0,1.1,0.2,1.3,0.4,1.3c0.1,0,0.1,0,0.2-0.1V5.2z"/>
	<path class="st0" d="M16.8,5.5v1.4c0,0.3,0.1,0.5,0.2,0.5c0,0,0.1,0.1,0.1,0.1C17,7.8,16.4,8,16.2,8c-0.5,0-0.7-0.2-0.9-0.4
		C15.1,7.8,14.6,8,14.1,8c-0.7,0-1.2-0.2-1.2-0.8c0-0.5,0.4-0.8,0.8-0.9C14.1,6.1,14.5,6,15.1,6c0-0.9-0.2-1.4-0.3-1.4
		c-0.2,0-0.2,0.2-0.2,0.5c0,0.2,0.1,0.5,0.1,0.5C14.5,5.8,14.1,6,13.7,6c-0.4,0-0.6-0.2-0.6-0.7c0-0.8,0.9-1.2,1.9-1.2
		C16,4.1,16.8,4.5,16.8,5.5z M14.8,7.4c0.1,0,0.2-0.2,0.3-0.3V6.4c-0.3,0-0.5,0.3-0.5,0.5C14.6,7.2,14.7,7.4,14.8,7.4z"/>
	<path class="st0" d="M20.1,4.1c0.7,0,1.2,0.5,1.2,1.1v1.7c0,0.5,0.1,0.7,0.1,0.8c0,0.1,0,0.2-0.1,0.2c-0.2,0.1-0.5,0.1-0.9,0.1
		c-0.4,0-0.7,0-0.8-0.1c0,0-0.1,0-0.1-0.1c0-0.1,0-0.4,0-0.5V5.6c0-0.3-0.1-0.5-0.3-0.5c-0.1,0-0.1,0-0.2,0.1v1.6
		c0,0.4,0.1,0.7,0.1,0.9c0,0.1-0.1,0.1-0.1,0.2c-0.2,0.1-0.5,0.1-0.8,0.1c-0.2,0-0.6,0-0.8-0.1c-0.1,0-0.1-0.1-0.1-0.2
		c0-0.1,0.1-0.3,0.1-0.5V5.3c0-0.3-0.1-0.4-0.2-0.5c0-0.2,0.5-0.5,0.9-0.5c0.4,0,0.7,0.2,0.9,0.4C19.2,4.3,19.6,4.1,20.1,4.1z"/>
	<path class="st0" d="M24.4,6.4c0.4,0,0.8,0.2,0.8,0.6c0,0.5-0.5,0.9-1.5,0.9c-1.1,0-2-0.7-2-1.9c0-1.1,0.8-2,2-2
		c1.1,0,1.6,0.5,1.6,1c0,0.5-0.4,0.8-0.7,0.8c-0.2,0-0.4-0.1-0.6-0.1C24,5.6,24,5.4,24,5.2c0-0.2-0.1-0.4-0.2-0.4
		c-0.2,0-0.3,0.4-0.3,1c0,0.9,0.2,1.4,0.4,1.4c0.1,0,0.2-0.2,0.2-0.4c0-0.1,0-0.2,0-0.3C24.1,6.5,24.2,6.4,24.4,6.4z"/>
	<path class="st0" d="M29.1,5.9c0,0.2-0.4,0.3-0.9,0.3c-0.4,0-0.9,0-1.1-0.1c0,0.7,0.2,1.2,0.4,1.2c0.1,0,0.2-0.1,0.2-0.3
		c0-0.1,0-0.2,0-0.3c0.1-0.1,0.3-0.1,0.4-0.1c0.4,0,0.7,0.3,0.8,0.6C28.6,7.7,28.1,8,27.3,8c-1.1,0-1.9-0.6-1.9-1.9c0-1.2,0.8-2,2-2
		C28.4,4.1,29.1,4.5,29.1,5.9z M27.1,5.8c0.2,0,0.4,0,0.5-0.1c0-0.7-0.1-1-0.3-1C27.2,4.7,27.1,5.2,27.1,5.8z"/>
</g>
<path class="st1" d="M6.4,1.1H4.7C4.5,2.2,4,3.3,3.1,4.1c-0.8,0.8-1.9,1.4-3,1.5v1.6c1.6-0.2,3-0.9,4.2-2C5.4,4.1,6.1,2.6,6.4,1.1"
	/>
<path class="st1" d="M4.1,1.1H2.4C2.2,1.6,2,2.1,1.5,2.6C1.1,3,0.6,3.2,0.1,3.4V5c1-0.2,1.9-0.6,2.6-1.3C3.4,2.9,3.9,2,4.1,1.1"/>
<path class="st1" d="M1.8,1.1H0.1v1.7c0.4-0.1,0.7-0.3,1-0.6C1.4,1.8,1.6,1.5,1.8,1.1"/>
<path class="st1" d="M4.2,6C3,7,1.6,7.6,0.1,7.8v2.8h7.2L4.2,6z"/>
</svg>
