<?xml version="1.0" encoding="utf-8"?>
<!-- Generator: Adobe Illustrator 23.0.1, SVG Export Plug-In . SVG Version: 6.00 Build 0)  -->
<svg version="1.1" id="Warstwa_1" xmlns="http://www.w3.org/2000/svg" xmlns:xlink="http://www.w3.org/1999/xlink" x="0px" y="0px"
	 viewBox="0 0 30.5 11.5" style="enable-background:new 0 0 30.5 11.5;" xml:space="preserve">
<path d="M25.1,7.1C25.1,7.1,25.1,7.1,25.1,7.1C25.1,7.1,25.1,7.1,25.1,7.1c0.6-0.1,1-0.3,1.5-0.5c0.2-0.1,0.5-0.2,0.7-0.3
	c0.4-0.3,0.8-0.7,1.1-1.1c0.2-0.2,0.1-0.8,0-1c-0.3-0.4-0.7-0.6-1.1-0.6c-0.4,0-1,0.4-1.1,0.4c-0.3,0.2-0.6,0.3-0.8,0.5
	c-0.4,0.3-0.7,0.6-1,1c-0.4,0.5-0.7,0.9-0.8,1.6c0,0,0,0.1-0.1,0.1c-0.2,0.1-0.4,0.3-0.6,0.4C22.5,8,22,8.2,21.5,8.2
	c0,0-0.1,0-0.1,0c0,0-0.1,0-0.1,0c0-0.1,0-0.1,0-0.2c0.2-0.5,0.4-1.1,0.7-1.4c0.3-0.3,0.7-0.7,1.1-1c0.3-0.3,0.8-0.3,1.2-0.3
	c0.1,0,0.3-0.1,0.2-0.2c-0.1-0.1-0.1-0.2-0.2-0.3c-0.2-0.1-0.3-0.2-0.5-0.2c-0.2-0.1-0.3-0.2-0.5-0.2c-0.3,0-0.5,0.1-0.8,0.2
	c-0.2,0.1-0.4,0.3-0.6,0.5c-0.2,0.2-0.4,0.4-0.7,0.7c-0.2,0.2-0.4,0.4-0.6,0.6c-0.3,0.4-0.6,0.8-0.6,1.3c0,0,0,0.1,0,0.1
	c-0.3,0.2-0.5,0.4-0.9,0.5c0,0-0.1-0.1-0.1-0.1c0.1-0.3,0.2-0.5,0.3-0.8c0.1-0.3,0.2-0.5,0.4-0.8c0.2-0.3,0.3-0.6,0.5-1
	c0-0.1,0-0.2,0-0.2C20,5,19.8,4.8,19.4,4.8c-0.1,0-0.3,0-0.4,0.1c-0.1,0.1-0.2,0.2-0.3,0.2c-0.3,0.2-0.6,0.4-0.9,0.6
	C17.5,5.8,17.2,6,17,6.2c0,0-0.1,0-0.1,0c0,0-0.1,0-0.1,0c0,0-0.1-0.1-0.1-0.1c0,0,0-0.1,0-0.1c0,0,0,0,0,0c0,0,0,0,0,0
	c0-0.1,0-0.2,0-0.3c0-0.2,0-0.3,0-0.5c0-0.1-0.2-0.2-0.3-0.3c0,0-0.2,0-0.2,0c0,0,0,0-0.1-0.1c-0.1,0-0.2,0-0.2-0.1c0,0,0,0.1,0,0.1
	c0,0,0,0,0,0c-0.1,0.2-0.2,0.3-0.3,0.5c-0.2,0.4-0.5,0.9-0.7,1.3c-0.1,0.2-0.2,0.5-0.4,0.6c-0.3,0.2-0.6,0.3-0.9,0.5
	c-0.1,0-0.2,0-0.3,0c0-0.1,0-0.2,0-0.3C13.5,7,13.8,6.5,14,6c0.1-0.1,0.1-0.3,0.1-0.5c0-0.1-0.1-0.2-0.2-0.3
	c-0.1-0.1-0.2-0.1-0.3-0.2c-0.1-0.1-0.3-0.1-0.5-0.1c-0.2,0-0.3,0-0.2,0.2c0,0,0,0.1,0,0.1c0,0-0.1,0-0.1-0.1
	c-0.1,0-0.1-0.1-0.2-0.1c-0.3-0.1-0.7-0.2-1-0.3c-0.1,0-0.2,0-0.3,0c-0.3,0.2-0.6,0.4-0.9,0.7c-0.3,0.3-0.6,0.6-0.9,0.9
	C9.4,6.6,9.2,6.9,9,7.1C8.9,7.2,8.6,7.4,8.6,7.7c0,0,0,0.1-0.1,0.1C8.2,7.8,8,8,7.7,8.2C7.5,8.2,7.3,8.3,7.1,8.4
	c-0.2,0-0.2-0.1-0.2-0.2C7,7.9,7.1,7.6,7.2,7.3c0.1-0.4,0.4-0.7,0.7-0.9c0.4-0.4,0.9-0.6,1.2-1.1C9.3,5,9.6,4.8,9.9,4.5
	c0.2-0.2,0.3-0.3,0.5-0.4c0.2-0.2,0.4-0.4,0.6-0.6c0.1-0.1,0.2-0.2,0.2-0.3c0.1-0.1,0.2-0.2,0.3-0.3c0.1-0.1,0.1-0.3,0.2-0.4
	C11.8,2.2,12,2,11.9,1.7c0,0,0-0.1,0-0.1c0.1-0.1,0-0.2-0.1-0.3c0,0-0.1-0.1-0.1-0.1c-0.1-0.2-0.3-0.3-0.4-0.5
	c-0.3-0.2-0.6-0.3-0.9-0.4c-0.1,0-0.1,0.1-0.2,0.1c0,0-0.1,0.1-0.1,0.1c0,0-0.1,0-0.1,0.1C9.6,0.9,9.3,1.1,9.1,1.4
	C8.4,2.2,7.9,3,7.4,3.9C7.3,4.1,7.2,4.2,7.2,4.3C6.9,4.7,6.7,5,6.5,5.3C6.4,5.5,6.4,5.5,6.2,5.4C6,5.1,5.7,5.1,5.5,5
	C5.3,4.9,5.2,4.9,5,4.9C4.7,4.9,4.4,5,4,5.1c-0.3,0.2-0.6,0.4-1,0.6C2.6,6.1,2.2,6.6,1.8,7.1C1.5,7.5,1.3,8,1.2,8.6
	c0,0.1-0.1,0.2-0.1,0.3c0,0,0,0.1,0,0.1c0,0.1,0.1,0.3,0.1,0.4c0,0,0,0.1,0.1,0.1c0.2,0.2,0.5,0.5,0.7,0.7c0.1,0.2,0.3,0.2,0.4,0.2
	c0.2,0,0.4,0,0.5,0c0.2-0.1,0.5-0.3,0.7-0.5C3.9,9.7,4.2,9.4,4.5,9C4.5,9,4.6,8.9,4.6,8.9c0.2-0.2,0.4-0.4,0.7-0.6
	c0.1,0,0.1-0.1,0.1,0.1c0,0.1,0,0.1,0,0.2c-0.1,0.2,0,0.2,0.1,0.3C5.7,9,5.8,9.2,6,9.4c0.2,0.3,0.4,0.4,0.7,0.4
	c0.3,0,0.5-0.1,0.8-0.3C7.8,9.2,8,9.1,8.2,8.7c0.1-0.2,0.3-0.3,0.5-0.4c0,0,0.2,0,0.2,0.1C9,8.5,9.1,8.7,9.2,8.8
	c0.2,0.3,0.6,0.5,0.9,0.6c0,0,0.1,0,0.1,0c0.1,0,0.2,0,0.4-0.1c0.2-0.1,0.5-0.2,0.7-0.3c0.2-0.1,0.4-0.2,0.5-0.4
	c0.1-0.2,0.4-0.2,0.4-0.5c0-0.1,0.1-0.1,0.2,0c0.2,0.2,0.4,0.5,0.7,0.6c0.3,0.1,0.6,0.1,0.8-0.1c0.1-0.1,0.2-0.2,0.3,0
	c0.1,0.1,0.2,0.3,0.3,0.4c0.2,0.3,0.5,0.2,0.7-0.1c0,0,0-0.1,0.1-0.1c0.2-0.2,0.4-0.4,0.6-0.6c0.3-0.2,0.6-0.5,0.8-0.7
	c0.2-0.2,0.5-0.4,0.7-0.5c0.2-0.1,0.4-0.2,0.6-0.4c0,0,0.1,0,0.1,0c0,0,0,0.1,0,0.1c-0.1,0.3-0.2,0.7-0.2,1
	c-0.1,0.4,0.2,0.8,0.5,0.9c0.1,0,0.1,0,0.2,0c0.1,0,0.2,0.1,0.3,0.1c0.5,0,0.9,0,1.3-0.3c0,0,0.2,0,0.2,0C20.5,8.7,20.7,9,21,9.1
	c0.2,0.1,0.4,0.2,0.5,0.2c0.3,0,0.6-0.1,0.9-0.2c0.3-0.1,0.6-0.3,0.8-0.5c0.2-0.1,0.4-0.2,0.6-0.3c0.1-0.1,0.2-0.1,0.2,0
	c0.1,0.3,0.3,0.5,0.6,0.7c0.4,0.2,0.7,0.3,1.2,0.3c0.4,0,0.7-0.1,1.1-0.3c0.4-0.2,0.7-0.3,1-0.6C28,8,28.1,7.8,28.2,7.5
	c0,0,0-0.1,0-0.1c0,0-0.1,0-0.1,0c-0.1,0-0.1,0-0.2,0c0,0,0.1-0.1,0.1-0.1c0,0,0-0.1,0-0.1c0,0-0.1,0-0.1,0c-0.1,0-0.2,0.1-0.3,0.1
	c-0.5,0.6-1.3,0.9-2.1,0.9c0,0-0.2,0-0.2,0c-0.1,0-0.6-0.1-0.6-0.2c0-0.3,0-0.6,0.2-0.9C25,7.1,25,7.1,25.1,7.1z M25.4,6.3
	c0.3-0.4,0.6-0.8,0.9-1.2c0.2-0.2,0.5-0.4,0.7-0.6c0.1-0.1,0.2-0.1,0.4-0.1c0,0,0.1,0,0.1,0c-0.1,0.3-0.2,0.5-0.3,0.6
	c-0.5,0.5-1,1-1.7,1.2c-0.1,0-0.1,0-0.2,0C25.3,6.4,25.3,6.4,25.4,6.3z M8.5,4.8C8.5,4.8,8.5,4.8,8.5,4.8c0.1-0.2,0.2-0.3,0.3-0.4
	C8.8,4.3,8.9,4.2,9,4.1c0.2-0.3,0.4-0.7,0.7-1c0.3-0.4,0.6-0.7,0.9-1.1c0.1-0.1,0.2-0.2,0.3-0.3c0.1-0.1,0.2-0.2,0.3-0.3
	c0,0,0.1,0,0.1-0.1c0,0,0,0,0,0c0,0,0,0,0,0.1v0l0,0c0,0.3-0.1,0.5-0.2,0.7c0,0,0,0.1-0.1,0.1c-0.3,0.4-0.5,0.8-0.8,1.1
	C10,3.4,10,3.5,9.9,3.6C9.7,3.8,9.5,4,9.3,4.2C9,4.4,8.8,4.6,8.5,4.8c0.1,0.1,0.1,0.1,0,0.1c0,0,0,0-0.1,0C8.5,4.9,8.5,4.9,8.5,4.8z
	 M5.6,6.5L5.6,6.5L5.6,6.5c0,0.3-0.2,0.4-0.4,0.6C4.8,7.5,4.4,7.9,4.1,8.3C4,8.3,4,8.3,4,8.3c0,0,0,0-0.1,0c0,0,0,0-0.1,0
	c0,0,0,0,0,0l0,0c0,0,0.1-0.1,0.1-0.1c0,0,0,0,0-0.1c0,0,0,0,0-0.1C4.2,8,4.4,7.8,4.6,7.5c0,0,0-0.1,0-0.1c0,0-0.1,0-0.1,0
	C4.4,7.6,4.2,7.8,4,8C3.9,8.1,3.8,8.2,3.6,8.3C3.3,8.6,3.1,8.8,2.8,9C2.7,9.1,2.6,9.1,2.5,9.2c0,0,0,0,0,0l0,0c0-0.1,0-0.2,0-0.3
	c0.1-0.2,0.2-0.5,0.3-0.7c0,0,0-0.1,0.1-0.1C3,8,3,7.9,3.1,7.8c0,0,0.1-0.1,0.1-0.1c0.2-0.3,0.5-0.6,0.7-0.8
	c0.3-0.3,0.6-0.5,0.9-0.7C4.9,6.1,5,5.9,5.2,5.9c0.1,0,0.2,0,0.2,0c0.1,0,0.1,0.1,0.1,0.3C5.6,6.3,5.6,6.4,5.6,6.5L5.6,6.5z
	 M12.3,6.1c-0.2,0.2-0.2,0.5-0.4,0.7c-0.3,0.3-0.6,0.6-0.9,0.9c0,0-0.1,0.1-0.2,0.1c0,0-0.1,0.1-0.1,0.1c-0.1,0.1-0.2,0.1-0.3,0.2
	c0,0-0.1,0.1-0.1,0.1c0,0,0,0-0.1,0c0,0,0,0,0-0.1c0,0,0,0,0-0.1c0.1-0.1,0.2-0.3,0.2-0.4c0,0,0-0.1,0.1-0.1c0,0,0.1-0.1,0.1-0.1
	c0.4-0.5,0.9-0.9,1.3-1.4C11.9,6,12,6,12.1,5.9c0.1,0,0.2-0.1,0.2-0.1c0.1,0,0.1,0.1,0.1,0.2C12.3,6,12.3,6.1,12.3,6.1z"/>
</svg>
