<?xml version="1.0" encoding="utf-8"?>
<!-- Generator: Adobe Illustrator 23.0.1, SVG Export Plug-In . SVG Version: 6.00 Build 0)  -->
<svg version="1.1" id="Warstwa_1" xmlns="http://www.w3.org/2000/svg" xmlns:xlink="http://www.w3.org/1999/xlink" x="0px" y="0px"
	 viewBox="0 0 36 11.5" style="enable-background:new 0 0 36 11.5;" xml:space="preserve">
<style type="text/css">
	.st0{fill:#9A9A9A;}
	.st1{fill:#1D1D1B;}
</style>
<path class="st0" d="M6.4,1.1H4.8C4.6,2.2,4,3.3,3.2,4.1s-1.9,1.4-3,1.5v1.6c1.6-0.2,3-0.9,4.2-2C5.5,4.1,6.2,2.6,6.4,1.1"/>
<path class="st0" d="M4.2,1.1H2.5C2.3,1.6,2,2.1,1.6,2.6C1.2,3,0.7,3.2,0.2,3.4V5c1-0.2,1.9-0.6,2.6-1.3C3.5,2.9,4,2,4.2,1.1"/>
<path class="st0" d="M1.9,1.1H0.2v1.7c0.4-0.1,0.7-0.3,1-0.6C1.5,1.8,1.7,1.5,1.9,1.1"/>
<path class="st0" d="M4.3,6C3.1,7,1.7,7.6,0.2,7.8v2.8h7.2L4.3,6z"/>
<path class="st1" d="M9.2,5.9H9v2H8.1V3.5H9v1.9h0.1c0.2-0.1,0.4-0.2,0.6-0.3c0.2-0.1,0.3-0.3,0.4-0.5c0.1-0.2,0.2-0.4,0.3-0.5
	c0.1-0.2,0.1-0.4,0.2-0.5h0.8c-0.1,0.4-0.3,0.8-0.5,1.2c-0.2,0.4-0.5,0.7-0.9,1l1.7,2.2h-1L9.2,5.9z"/>
<path class="st1" d="M13.9,7.9l-0.2-0.2c-0.1,0.1-0.3,0.1-0.4,0.2C13.1,7.9,12.9,8,12.8,8c-0.1,0-0.3,0-0.4-0.1
	c-0.1-0.1-0.2-0.1-0.3-0.2c-0.1-0.1-0.2-0.2-0.2-0.3c-0.1-0.1-0.1-0.3-0.1-0.4c0-0.2,0.1-0.4,0.2-0.6c0.1-0.1,0.3-0.3,0.5-0.3
	c0.2-0.1,0.4-0.2,0.6-0.2c0.2,0,0.4-0.1,0.6-0.1c0-0.1,0-0.2-0.1-0.3c0-0.1-0.1-0.1-0.1-0.2c-0.1,0-0.1-0.1-0.2-0.1
	c-0.1,0-0.2,0-0.2,0c-0.1,0-0.3,0-0.5,0.1c-0.2,0-0.3,0.1-0.4,0.1L12,4.8c0.2-0.1,0.4-0.2,0.6-0.2c0.2,0,0.4-0.1,0.6-0.1
	c0.2,0,0.3,0,0.4,0.1c0.1,0,0.3,0.1,0.4,0.2c0.1,0.1,0.2,0.2,0.3,0.3c0.1,0.1,0.1,0.3,0.1,0.5v2.3H13.9z M13.7,6.2
	c-0.1,0-0.2,0-0.4,0.1c-0.1,0-0.2,0.1-0.4,0.1c-0.1,0-0.2,0.1-0.3,0.2c-0.1,0.1-0.1,0.2-0.1,0.3c0,0.1,0,0.1,0,0.2
	c0,0.1,0,0.1,0.1,0.2c0,0.1,0.1,0.1,0.1,0.1c0,0,0.1,0,0.2,0c0.1,0,0.2,0,0.4-0.1c0.1-0.1,0.2-0.1,0.3-0.2V6.2z"/>
<path class="st1" d="M16.2,7.2c0,0.1,0,0.1,0.1,0.2c0.1,0,0.1,0,0.2,0c0.1,0,0.2,0,0.3,0c0.1,0,0.2-0.1,0.2-0.1l0.1,0.5
	c-0.1,0.1-0.3,0.1-0.4,0.2c-0.2,0-0.3,0-0.4,0c-0.1,0-0.2,0-0.3,0c-0.1,0-0.2-0.1-0.3-0.1c-0.1-0.1-0.2-0.1-0.2-0.2
	c-0.1-0.1-0.1-0.2-0.1-0.3V5.2H15V4.6h0.5V3.9l0.7-0.1v0.9H17v0.6h-0.8V7.2z"/>
<path class="st1" d="M17.4,6.3c0-0.3,0-0.5,0.1-0.7c0.1-0.2,0.2-0.4,0.3-0.5c0.1-0.2,0.3-0.3,0.5-0.3c0.2-0.1,0.4-0.1,0.7-0.1
	c0.3,0,0.5,0,0.7,0.1C20,4.8,20.2,4.9,20.3,5c0.1,0.1,0.3,0.3,0.3,0.5c0.1,0.2,0.1,0.4,0.1,0.7c0,0.3,0,0.5-0.1,0.7
	c-0.1,0.2-0.2,0.4-0.3,0.5c-0.1,0.2-0.3,0.3-0.5,0.3C19.6,7.9,19.4,8,19.1,8c-0.3,0-0.5,0-0.7-0.1c-0.2-0.1-0.4-0.2-0.5-0.4
	c-0.1-0.2-0.3-0.3-0.3-0.5C17.5,6.7,17.4,6.5,17.4,6.3 M18.2,6.3c0,0.1,0,0.3,0,0.4c0,0.1,0.1,0.2,0.2,0.3c0.1,0.1,0.2,0.2,0.3,0.2
	c0.1,0.1,0.2,0.1,0.4,0.1c0.2,0,0.3,0,0.4-0.1c0.1-0.1,0.2-0.1,0.3-0.2c0.1-0.1,0.1-0.2,0.1-0.3s0-0.3,0-0.4c0-0.1,0-0.3,0-0.4
	c0-0.1-0.1-0.2-0.1-0.3c-0.1-0.1-0.2-0.2-0.3-0.2c-0.1-0.1-0.2-0.1-0.4-0.1c-0.2,0-0.3,0-0.4,0.1c-0.1,0.1-0.2,0.1-0.3,0.2
	c-0.1,0.1-0.1,0.2-0.2,0.3C18.3,6,18.2,6.1,18.2,6.3"/>
<polygon class="st1" points="23.7,5.6 23.1,7.9 22,7.9 21,4.6 21.9,4.6 22.7,7.4 23.3,4.8 24.3,4.8 24.9,7.3 25.7,4.6 26.4,4.6 
	25.4,7.9 24.3,7.9 "/>
<path class="st1" d="M27.1,3.3h0.8V4h-0.8V3.3z M27.1,4.6h0.8v3.3h-0.8V4.6z"/>
<path class="st1" d="M31.3,7.7c-0.2,0.1-0.4,0.2-0.6,0.2C30.5,8,30.4,8,30.2,8c-0.3,0-0.5,0-0.7-0.1c-0.2-0.1-0.4-0.2-0.5-0.4
	c-0.1-0.2-0.2-0.3-0.3-0.5c-0.1-0.2-0.1-0.4-0.1-0.7c0-0.2,0-0.5,0.1-0.7c0.1-0.2,0.2-0.4,0.3-0.5c0.1-0.2,0.3-0.3,0.5-0.4
	c0.2-0.1,0.4-0.1,0.7-0.1c0.2,0,0.3,0,0.5,0c0.2,0,0.4,0.1,0.5,0.2l-0.1,0.6c-0.1,0-0.2-0.1-0.4-0.1c-0.1,0-0.3-0.1-0.4-0.1
	c-0.2,0-0.3,0-0.4,0.1c-0.1,0.1-0.2,0.2-0.2,0.3c-0.1,0.1-0.1,0.2-0.1,0.4c0,0.1,0,0.3,0,0.4s0,0.2,0,0.4c0,0.1,0.1,0.2,0.1,0.3
	c0.1,0.1,0.1,0.2,0.2,0.3c0.1,0.1,0.2,0.1,0.4,0.1c0.3,0,0.6-0.1,0.9-0.2L31.3,7.7L31.3,7.7z"/>
<path class="st1" d="M32.5,6.5c0,0.3,0.1,0.5,0.2,0.7c0.2,0.1,0.4,0.2,0.7,0.2c0.1,0,0.2,0,0.3,0c0.1,0,0.2,0,0.3,0
	c0.1,0,0.2,0,0.3-0.1c0.1,0,0.2-0.1,0.3-0.1l0.1,0.6c-0.2,0.1-0.5,0.2-0.7,0.2C33.8,8,33.6,8,33.3,8c-0.3,0-0.5,0-0.7-0.1
	c-0.2-0.1-0.4-0.2-0.5-0.3C32,7.4,31.9,7.2,31.8,7c-0.1-0.2-0.1-0.5-0.1-0.7c0-0.2,0-0.5,0.1-0.7C31.9,5.4,32,5.2,32.1,5
	c0.1-0.2,0.3-0.3,0.5-0.4c0.2-0.1,0.4-0.1,0.7-0.1c0.3,0,0.5,0.1,0.7,0.2c0.2,0.1,0.4,0.2,0.5,0.4c0.1,0.2,0.2,0.4,0.2,0.6
	c0,0.2,0.1,0.5,0.1,0.7H32.5z M34,5.9c0-0.2-0.1-0.4-0.2-0.5c-0.1-0.1-0.3-0.2-0.5-0.2c-0.2,0-0.4,0.1-0.5,0.2
	c-0.1,0.1-0.2,0.3-0.2,0.5H34z"/>
</svg>
