<?xml version="1.0" encoding="utf-8"?>
<!-- Generator: Adobe Illustrator 23.0.1, SVG Export Plug-In . SVG Version: 6.00 Build 0)  -->
<svg version="1.1" id="Warstwa_1" xmlns="http://www.w3.org/2000/svg" xmlns:xlink="http://www.w3.org/1999/xlink" x="0px" y="0px"
	 viewBox="0 0 36 11.5" style="enable-background:new 0 0 36 11.5;" xml:space="preserve">
<style type="text/css">
	.st0{fill:#434343;}
	.st1{fill:#9A9A9A;}
</style>
<g>
	<path class="st0" d="M15.1,9.4C15,9.1,14.8,9,12.9,9h-2.6V8.9h0.2c0.5,0,0.6-0.2,0.6-0.6V3.1c0-0.3-0.1-0.6-0.6-0.6h-0.2V2.5h3.1
		v0.1h-0.2c-0.5,0-0.6,0.2-0.6,0.6v5.8h0.5c0.8,0,1.7-1,2.1-3.4h0.1C15.2,6.4,15.1,8.2,15.1,9.4L15.1,9.4z"/>
	<path class="st0" d="M15.7,8.9h0.2c0.5,0,0.6-0.2,0.6-0.6V3.1c0-0.3-0.1-0.6-0.6-0.6h-0.2V2.5h3.1v0.1h-0.2c-0.5,0-0.6,0.2-0.6,0.6
		v5.2c0,0.3,0.1,0.6,0.6,0.6h0.2V9L15.7,8.9L15.7,8.9z"/>
	<path class="st0" d="M19.6,3.3c-0.2-0.5-0.3-0.7-0.8-0.7h-0.1V2.5h3.6v0.1H22c-0.3,0-0.6,0.1-0.6,0.4c0,0.1,0,0.2,0.1,0.3l1.4,3.6
		h0l1.2-3.4c0.1-0.2,0.1-0.3,0.1-0.4c0-0.4-0.2-0.6-0.5-0.6h-0.3V2.5h1.9v0.1h-0.1c-0.4,0-0.8,0.4-1,1.1l-2,5.5h-0.1L19.6,3.3z"/>
	<path class="st0" d="M29.9,9.4C29.7,9.1,29.6,9,27.7,9h-2.5V8.9h0.2c0.5,0,0.6-0.2,0.6-0.6V3.1c0-0.3-0.1-0.6-0.6-0.6h-0.2V2.5h2.7
		c1.6,0,1.8,0,2-0.3l0,0c-0.1,0.5-0.1,1.6-0.1,2.6l-0.1,0c-0.2-1.6-0.4-2.3-1.6-2.3h-0.7v2.9c1,0,1.2-0.3,1.4-1.1l0.1,0
		c-0.1,0.5-0.1,1.5,0,2.5l-0.1,0c-0.2-1.1-0.4-1.4-1.5-1.4v3.4H28c0.9,0,1.8-0.6,2.2-2.8h0.1C30.1,7,29.9,8.2,29.9,9.4L29.9,9.4z"/>
</g>
<path class="st1" d="M6.4,1.1H4.8C4.6,2.2,4,3.3,3.2,4.1c-0.8,0.8-1.9,1.4-3,1.5v1.6c1.6-0.2,3-0.9,4.2-2C5.5,4.1,6.2,2.6,6.4,1.1"
	/>
<path class="st1" d="M4.2,1.1H2.5C2.3,1.6,2,2.1,1.6,2.6C1.2,3,0.7,3.2,0.2,3.4V5c1-0.2,1.9-0.6,2.6-1.3C3.5,2.9,4,2,4.2,1.1"/>
<path class="st1" d="M1.9,1.1H0.2v1.7c0.4-0.1,0.7-0.3,1-0.6C1.5,1.8,1.7,1.5,1.9,1.1"/>
<path class="st1" d="M4.3,6C3.1,7,1.7,7.6,0.2,7.8v2.8h7.2L4.3,6z"/>
</svg>
