<?xml version="1.0" encoding="utf-8"?>
<!-- Generator: Adobe Illustrator 23.0.1, SVG Export Plug-In . SVG Version: 6.00 Build 0)  -->
<svg version="1.1" id="Warstwa_1" xmlns="http://www.w3.org/2000/svg" xmlns:xlink="http://www.w3.org/1999/xlink" x="0px" y="0px"
	 viewBox="0 0 30.5 11.5" style="enable-background:new 0 0 30.5 11.5;" xml:space="preserve">
<path d="M26.7,4c0,0.5,0,1,0,1.5c0,0.1-0.1,0.2-0.2,0.2c-0.6,0-1.1,0.1-1.8,0.1c0,0.3,0,0.6,0,1c0.2,0,0.4,0.1,0.6,0.1
	c0.8,0,1.5,0,2.3,0c0.4,0,0.4,0.1,0.4,0.4c-0.1,0.6-0.1,1.2-0.2,1.8c-0.6,0-1.2,0.1-1.7,0.1c-0.8,0-1.7,0-2.5,0c-0.3,0-0.6,0-0.8,0
	c-0.5,0-0.7-0.4-0.7-0.9c0.1-0.5,0.1-1.1,0.1-1.6c0-0.7,0.1-1.5,0.1-2.2c0-0.7,0-1.5,0-2.2c0-0.3,0-0.6,0.1-0.9
	c0-0.1,0.2-0.2,0.3-0.2c0.3,0,0.7,0,1.1,0c1.3,0,2.5,0,3.8,0c0.3,0,0.5,0.1,0.7,0.4c0.2,0.3,0,0.4-0.1,0.6c-0.1,0.3-0.3,0.6-0.4,0.9
	c-0.1,0.3-0.3,0.4-0.6,0.3c-0.1,0-0.2-0.1-0.3-0.1c-0.6,0-1.1,0-1.7,0c-0.4,0-0.3,0.3-0.3,0.5C24.6,4,24.8,4,25,4
	C25.5,4,26.1,4,26.7,4z"/>
<path d="M6.1,1.7C5.9,3.7,5.8,5.5,5.7,7.5c0.4,0,0.9-0.1,1.3-0.1c0.4,0,0.8,0,1.2,0c0.3,0,0.4,0.1,0.3,0.4c-0.1,0.7-0.1,1.3-0.2,2
	c0,0.3-0.3,0.5-0.5,0.6c-1.2,0.1-2.4,0.1-3.6,0.2c-0.4,0-0.8,0.1-1.2,0.2c-0.4,0.1-0.7-0.2-0.6-0.6c0.1-1.6,0.2-3.3,0.3-4.9
	C2.8,4.3,2.9,3.5,3,2.6c0-0.1,0.1-0.3,0.2-0.3C4.1,2,5,1.6,6.1,1.7z"/>
<path d="M18.1,5.7c0.2-0.5,0.4-1,0.5-1.5C18.8,3.6,19,3,19.2,2.4c0-0.1,0.1-0.2,0.1-0.3c0.1-0.5,0.1-0.5,0.7-0.6
	c0.1,0,0.3,0,0.4-0.1c0.5-0.1,0.8,0.1,0.9,0.6c0.1,0.7,0,1.3-0.3,2c-0.3,0.9-0.6,1.7-0.9,2.5c-0.2,0.5-0.4,1-0.6,1.6
	c0,0,0,0.1,0,0.1c-0.1,0.9-0.9,0.9-1.4,1.1c-0.1,0.1-0.3,0.1-0.5,0.1c-0.4,0.2-0.7,0.1-0.8-0.3c-0.4-0.8-0.8-1.6-1.1-2.4
	c-0.5-1.3-0.9-2.6-1.4-3.8C14.1,2.8,14,2.5,14,2.2c0-0.2,0.1-0.4,0.3-0.4c0.7-0.1,1.3-0.2,2-0.3c0.2,0,0.3,0.2,0.4,0.4
	C17.1,3.2,17.6,4.4,18.1,5.7C18,5.7,18,5.7,18.1,5.7z"/>
<path d="M9.8,10.1C9.9,8.6,9.9,7,10,5.5c0-0.8,0.2-1.6,0.2-2.4c0-0.3,0-0.7,0-1.1c0-0.2,0.1-0.3,0.4-0.3c0.6,0,1.3-0.1,1.9-0.1
	c0.4,0,0.6,0.2,0.6,0.6c-0.1,0.6-0.1,1.2-0.1,1.9c0,0.8-0.1,1.6-0.1,2.4c-0.1,0.9-0.1,1.8-0.2,2.6c0,0.3-0.4,0.6-0.7,0.7
	c-0.6,0.2-1.2,0.3-1.8,0.4C10.1,10.2,10,10.2,9.8,10.1z"/>
</svg>
