<?xml version="1.0" encoding="utf-8"?>
<!-- Generator: Adobe Illustrator 23.0.1, SVG Export Plug-In . SVG Version: 6.00 Build 0)  -->
<svg version="1.1" id="Warstwa_1" xmlns="http://www.w3.org/2000/svg" xmlns:xlink="http://www.w3.org/1999/xlink" x="0px" y="0px"
	 viewBox="0 0 30.5 11.5" style="enable-background:new 0 0 30.5 11.5;" xml:space="preserve">
<g>
	<path d="M6.9,0.9h1.5l1,1.2l0.9-1.2h1.5l-0.1,4.3H10L9.9,3.7L9.1,4.6L8.5,3.8L8.5,5.2H6.8L6.9,0.9z"/>
	<path d="M13.7,5.2c-0.9-0.4-1.4-1.2-1.4-2c0.1-1.2,0.7-1.9,1.5-2.2l1.6,0c1.1,0.3,1.4,1.2,1.5,2.1c-0.1,0.9-0.4,1.8-1.3,2.1l-1,0
		L13.7,5.2z M14.1,2.7c-0.2,0.6,0.1,0.9,0.4,0.9c0.3,0,0.5-0.2,0.6-0.5C15.2,2.7,14.7,2.2,14.1,2.7z"/>
	<path d="M17.2,3.9c0.3-0.1,0.6-0.2,0.8-0.5V0.9h1.7v3.3c-0.2,0.5-0.6,0.8-1,0.9h-1.4V3.9z"/>
	<path d="M20.5,0.9h3.2v1.2l-1.5,0.1l0,0.3l1.6,0.1v0.9l-1.5,0.1v0.3L23.7,4v1.2h-2.5L20.6,5L20.5,0.9z"/>
	<path d="M4.5,6.4h2.7C7.7,6.5,8,6.6,8.4,7.1l0,1.2C8.2,8.6,8,8.8,7.8,8.9l1,1.8H7L6.2,9.5v1.2H4.5V6.4z M6.2,7.5C6,7.7,6,7.8,6.2,8
		c0.3,0.1,0.4,0,0.5-0.2C6.7,7.6,6.6,7.5,6.2,7.5z"/>
	<path d="M10.1,6.4h2.1l1.4,4.3h-1.9l-0.3-0.9l-0.5,0l-0.3,1H8.8L10.1,6.4z M11.2,7.9c-0.1,0-0.2,0.5-0.3,0.7c0.2,0,0.4,0,0.6-0.1
		C11.4,8.3,11.3,8.1,11.2,7.9z"/>
	<path d="M14.1,6.4l2.3,0c1,0.2,1.8,0.7,2,1.8c0,0.3,0,0.6-0.1,1.1c-0.4,0.7-1.2,1.1-2.1,1.4l-2.2,0L14.1,6.4z M15.7,9.1
		c0.1,0,0.2,0,0.4,0c0.3,0,0.5-0.2,0.6-0.6C16.6,8.1,16.4,8,16,7.9c-0.1,0-0.1,0-0.2,0L15.7,9.1z"/>
	<path d="M19.1,6.4h1.7l0,4.3h-1.8L19.1,6.4z"/>
	<path d="M22.9,10.7c-0.9-0.4-1.4-1.2-1.4-2c0.1-1.2,0.7-1.9,1.5-2.2l1.6,0c1.1,0.3,1.4,1.2,1.5,2.1c-0.1,0.9-0.4,1.8-1.3,2.1l-1,0
		L22.9,10.7z M23.4,8.2c-0.2,0.6,0.1,0.9,0.4,0.9c0.3,0,0.5-0.2,0.6-0.5C24.4,8.2,23.9,7.7,23.4,8.2z"/>
</g>
</svg>
