<?xml version="1.0" encoding="utf-8"?>
<!-- Generator: Adobe Illustrator 23.0.1, SVG Export Plug-In . SVG Version: 6.00 Build 0)  -->
<svg version="1.1" id="Warstwa_1" xmlns="http://www.w3.org/2000/svg" xmlns:xlink="http://www.w3.org/1999/xlink" x="0px" y="0px"
	 viewBox="0 0 36 11.5" style="enable-background:new 0 0 36 11.5;" xml:space="preserve">
<style type="text/css">
	.st0{fill:#9A9A9A;}
	.st1{fill:#434343;}
</style>
<path class="st0" d="M6.4,1.1H4.8C4.6,2.2,4,3.3,3.2,4.1c-0.8,0.8-1.9,1.4-3,1.5v1.6c1.6-0.2,3-0.9,4.2-2C5.5,4.1,6.2,2.6,6.4,1.1"
	/>
<path class="st0" d="M4.2,1.1H2.5C2.3,1.6,2,2.1,1.6,2.6C1.2,3,0.7,3.2,0.2,3.4V5c1-0.2,1.9-0.6,2.6-1.3C3.5,2.9,4,2,4.2,1.1"/>
<path class="st0" d="M1.9,1.1H0.2v1.7c0.4-0.1,0.7-0.3,1-0.6C1.5,1.8,1.7,1.5,1.9,1.1"/>
<path class="st0" d="M4.3,6C3.1,7,1.7,7.6,0.2,7.8v2.8h7.2L4.3,6z"/>
<g>
	<path class="st1" d="M9.2,8.5V3.1h1L11,7.1l0.7-3.9h1v5.4H12v-2l0-1.8l-0.7,3.8h-0.7L9.9,4.7l0,1.8v2H9.2z"/>
	<path class="st1" d="M14.7,8.6c-0.4,0-0.7-0.1-0.9-0.4c-0.2-0.3-0.3-0.6-0.3-1.1V5.3c0-1,0.4-1.5,1.1-1.5s1.1,0.5,1.1,1.5v1.7
		c0,0.8-0.2,1.2-0.6,1.4C15.1,8.5,14.9,8.6,14.7,8.6z M14.7,7.9c0.1,0,0.2-0.1,0.3-0.2C15,7.6,15,7.5,15,7.3V5.2
		c0-0.2,0-0.4-0.1-0.5s-0.1-0.2-0.3-0.2s-0.2,0.1-0.3,0.2S14.3,5,14.3,5.2v2.1c0,0.3,0.1,0.5,0.2,0.6C14.5,7.9,14.6,7.9,14.7,7.9z"
		/>
	<path class="st1" d="M16.8,9.1c0,0-0.1,0-0.2,0s-0.2,0-0.3-0.1V8.5c0,0,0.1,0,0.1,0c0.1,0,0.2-0.1,0.2-0.2V3.9h0.8v4.4
		c0,0.3-0.1,0.5-0.2,0.6S17,9.1,16.8,9.1z M16.7,3.5V2.8h0.8v0.7H16.7z"/>
	<path class="st1" d="M19.4,8.6c-0.5,0-0.8-0.2-1-0.6c-0.1-0.3-0.1-0.6-0.1-1V5.3c0-0.9,0.4-1.4,1.2-1.4c0.4,0,0.7,0.1,0.9,0.4
		c0.2,0.2,0.2,0.6,0.2,1.1v1H19v0.9c0,0.3,0,0.5,0.1,0.6c0.1,0.1,0.1,0.1,0.2,0.1s0.2,0,0.2-0.1c0.1-0.1,0.1-0.2,0.1-0.3
		c0-0.1,0-0.2,0-0.4V6.8h0.8V7c0,0.4,0,0.7-0.1,0.9s-0.1,0.3-0.2,0.4C20,8.5,19.7,8.6,19.4,8.6z M19,5.8h0.7V5.2
		c0-0.3,0-0.4-0.1-0.5c0-0.1-0.1-0.2-0.2-0.2h0c-0.2,0-0.3,0.2-0.3,0.5c0,0.1,0,0.1,0,0.2V5.8z"/>
	<path class="st1" d="M23.4,6l-0.3,0v2.5h-0.8V3.1h1.4c0.3,0,0.5,0.1,0.6,0.2s0.2,0.3,0.3,0.5s0.1,0.5,0.1,0.8s0,0.6-0.1,0.7
		c-0.1,0.2-0.2,0.3-0.4,0.3c0.2,0,0.3,0.2,0.4,0.4c0.1,0.2,0.1,0.7,0.1,1.4c0,0.7,0,1.1,0,1.1h-0.8c0,0,0-0.7,0-1.9
		c0-0.2,0-0.4-0.1-0.5C23.7,6,23.6,6,23.4,6z M23.2,5.3h0.3c0.1,0,0.2,0,0.2-0.1c0,0,0.1-0.1,0.1-0.2s0-0.3,0-0.5v0
		c0-0.3,0-0.5-0.1-0.6s-0.2-0.1-0.3-0.1h-0.3V5.3z"/>
	<path class="st1" d="M26.2,8.6c-0.3,0-0.5-0.1-0.6-0.3c-0.1-0.2-0.2-0.5-0.2-0.9V7c0-0.4,0.1-0.7,0.3-0.9C25.8,6,26,5.9,26.4,5.7
		c0.1,0,0.1-0.1,0.2-0.1c0.1,0,0.2-0.1,0.2-0.1V5.2c0-0.2,0-0.4-0.1-0.5c0-0.1-0.1-0.1-0.2-0.1c-0.1,0-0.2,0-0.3,0.1
		c0,0.1-0.1,0.3-0.1,0.5v0.2h-0.8V5.2c0-0.4,0.1-0.8,0.2-1s0.5-0.3,0.9-0.3s0.7,0.1,0.9,0.3c0.2,0.2,0.3,0.6,0.3,1v3.3h-0.8V8.1
		c0,0.1-0.1,0.3-0.2,0.4S26.4,8.6,26.2,8.6z M26.8,6c-0.3,0.1-0.4,0.2-0.5,0.3s-0.1,0.3-0.1,0.5v0.5c0,0.2,0,0.4,0.1,0.5
		c0,0.1,0.1,0.1,0.2,0.1c0.1,0,0.2,0,0.2-0.1c0.1-0.1,0.1-0.1,0.1-0.2V6z"/>
	<path class="st1" d="M29.2,8.6c-0.2,0-0.4-0.1-0.6-0.2c-0.1-0.1-0.2-0.3-0.2-0.5c0-0.2-0.1-0.5-0.1-0.8V5.2c0-0.4,0.1-0.7,0.2-0.9
		C28.7,4,29,3.9,29.3,3.9c0.1,0,0.2,0,0.3,0.1c0.1,0.1,0.2,0.1,0.2,0.2V3.1h0.8v5.4h-0.8V8.1C29.8,8.4,29.5,8.6,29.2,8.6z M29.3,7.7
		c0,0.1,0.1,0.2,0.3,0.2s0.2-0.1,0.3-0.2c0-0.1,0.1-0.3,0.1-0.6V5.3c0-0.4-0.1-0.6-0.2-0.7c0,0-0.1,0-0.2,0c-0.1,0-0.2,0.1-0.3,0.2
		S29.2,5,29.2,5.3v1.9C29.2,7.4,29.2,7.6,29.3,7.7z"/>
	<path class="st1" d="M31.5,3.5V2.8h0.8v0.7H31.5z M31.5,8.5V3.9h0.8v4.6H31.5z"/>
	<path class="st1" d="M34.2,8.6c-0.4,0-0.7-0.1-0.9-0.4c-0.2-0.3-0.3-0.6-0.3-1.1V5.3c0-1,0.4-1.5,1.1-1.5s1.1,0.5,1.1,1.5v1.7
		c0,0.8-0.2,1.2-0.6,1.4C34.6,8.5,34.4,8.6,34.2,8.6z M34.2,7.9c0.1,0,0.2-0.1,0.3-0.2s0.1-0.3,0.1-0.5V5.2c0-0.2,0-0.4-0.1-0.5
		s-0.1-0.2-0.3-0.2S34,4.6,34,4.7c0,0.1-0.1,0.3-0.1,0.5v2.1c0,0.3,0.1,0.5,0.2,0.6C34.1,7.9,34.1,7.9,34.2,7.9z"/>
</g>
</svg>
