<svg id="Warstwa_1" data-name="Warstwa 1" xmlns="http://www.w3.org/2000/svg" viewBox="0 0 50 50"><title>Bez nazwy-2</title><path d="M32.51,30.78a6.16,6.16,0,0,1-2.3,5,8.79,8.79,0,0,1-5.38,2.48c-3.72.14-7.79-2.73-7.09-6.81-1.49,0-3,.13-4.47.11-.74,0-1.47.06-2.21.08a3.16,3.16,0,0,1-1.84-.53c-2.58-1.41-3.77-4.63-3.81-7.41-.09-5.9,5-11.27,10.08-13.51a11.21,11.21,0,0,1,8.27-.6,12.32,12.32,0,0,1,3.7,1.7c1.22.92,2.26,2,3.41,3a6.75,6.75,0,0,0,3.94,1.39,24.62,24.62,0,0,1,4.43.87A9.5,9.5,0,0,1,45.47,22c1.06,2.49,1.13,7.77-2.18,8.56-1.71.4-3.68.09-5.45.15A45.12,45.12,0,0,0,32.51,30.78Zm11.6-5.73a7.36,7.36,0,0,0-5.19-6.41c-2.64-.94-5.93-.49-8.37-1.95a22.27,22.27,0,0,1-3.15-2.84,9,9,0,0,0-4.08-2.32A11.49,11.49,0,0,0,19,11.21a13.52,13.52,0,0,0-4.28,1.6c-4.73,2.68-9.3,9.1-6.53,14.64A5.75,5.75,0,0,0,9.49,29a1.73,1.73,0,0,0,1.65.57c1.47,0,2.93,0,4.39-.13,3.43-.2,6.86-.46,10.28-.58,3.64-.13,7.27-.16,10.9-.25,1.87,0,3.84.12,5.69-.07C43.92,28.42,43.94,26.24,44.11,25.05ZM19.75,31.33c-.22,1.4-.21,2.6,1,3.59A6.39,6.39,0,0,0,25,36.19a7.2,7.2,0,0,0,3.8-1.92,4.38,4.38,0,0,0,1.8-3.49C27,30.88,23.36,31,19.75,31.33Z"/><path d="M12,37.11c-.36-.36-.87-.71-.76-1.3s1-1.09,1.46-1.44c.69-.54,2.76-2,3.7-1.46a1.41,1.41,0,0,1,.3,1.57c-.26.42-1,.52-1.43.69C14.25,35.63,13.19,37.16,12,37.11Z"/><path d="M36,33c.94,0,3.43,0,3.67,1.22.31,1.5-1.17,1.29-2.06,1.07a6.64,6.64,0,0,0-1.89-.19c-.62,0-.9.11-1.26-.48C33.68,33.33,35,33,36,33Z"/><path d="M32.33,38.13a7.6,7.6,0,0,1,3.2,1.29c.63.48.9,1.95-.22,2-.5,0-1-.39-1.41-.61s-1.21-.37-1.75-.65C31.19,39.71,31,38.11,32.33,38.13Z"/><path d="M21.89,43.4c.06-.81-.29-3,.48-3.54,1.1-.75,1.56.94,1.59,1.68s-.11,1.22-.1,1.84.24,1.31-.34,1.67a1,1,0,0,1-1.2-.28C22.18,44.64,21.68,43.38,21.89,43.4Z"/><path d="M15.1,41.19c0-1,1.1-1.8,1.7-2.44s1.84-1.47,2,0c.12.93-.86,1.78-1.42,2.4-.28.31-.73,1-1.22,1S15,41.58,15.1,41.19Z"/><path d="M26.87,41.26c.25-1,1-1.41,1.77-.53a6.17,6.17,0,0,1,1.49,3c0,1.06-1,1.18-1.62.52A9.88,9.88,0,0,1,26.87,41.26Z"/><path d="M19.48,13.36c1.09,0,3.89.29,3.24,2-.38,1-1.33.35-2,.16a5.39,5.39,0,0,0-2.26-.09,9.75,9.75,0,0,0-7.18,7.13c-.11.53-.07,1.61-.71,1.82a1.33,1.33,0,0,1-1.34-.77,4.48,4.48,0,0,1,.28-2.13,10.88,10.88,0,0,1,1.17-2.66,13.19,13.19,0,0,1,3.66-3.71A11.11,11.11,0,0,1,19.48,13.36Z"/><path d="M20.52,27.37c.31-2.09,2.5-3.34,4.4-3.66,1-.18,6.56-.47,5.21,1.95-.54,1-1.71.09-2.49,0a6.94,6.94,0,0,0-3.32.33,3.92,3.92,0,0,0-2,1.9A.93.93,0,0,1,20.52,27.37Z"/><path d="M23.47,16.62a1.19,1.19,0,0,1,.73,2c-.31.4-.74.73-1.05,1.13s-.57.95-1.14,1c-1.16,0-1.1-1.17-.73-1.85A5.16,5.16,0,0,1,23.47,16.62Z"/><path d="M38.37,24.87a2.5,2.5,0,0,1-.81,1.43,7.22,7.22,0,0,1-1.13,1.32,1.07,1.07,0,0,1-1.57-.7c-.16-.82,1-1.78,1.47-2.31C37.19,23.6,37.93,23.45,38.37,24.87Z"/><path d="M16.29,26.31c-.07-.9,1-2.27,1.68-2.79s1.54.05,1.52.9-1,1.77-1.4,2.43A1,1,0,0,1,16.29,26.31Z"/><path d="M36.75,21c.18.66-1.45,2.08-1.94,2.42a1,1,0,0,1-1.51-1.12c.25-.79,1.28-1.54,1.9-2.07C36,19.51,36.75,20,36.75,21Z"/><path d="M29.75,19.59c0,.82-1.17,1.75-1.7,2.29a1,1,0,0,1-1.77-.57c-.12-.91,1.11-1.88,1.69-2.4C28.9,18.07,29.43,18.55,29.75,19.59Z"/><path d="M14.78,21.49a4.78,4.78,0,0,1,1.66-2.39c.79-.61,1.83-.29,1.77.84,0,.45-.25.63-.56.91a8.35,8.35,0,0,0-1,1.14C16,22.83,15.12,22.48,14.78,21.49Z"/><path d="M42.43,22.79a2.93,2.93,0,0,1-1.34,2.08c-.72.28-1.43-.66-1.33-1.31a3.81,3.81,0,0,1,1.32-1.77A.94.94,0,0,1,42.43,22.79Z"/></svg>