<?xml version="1.0" encoding="utf-8"?>
<!-- Generator: Adobe Illustrator 23.0.1, SVG Export Plug-In . SVG Version: 6.00 Build 0)  -->
<svg version="1.1" id="Warstwa_1" xmlns="http://www.w3.org/2000/svg" xmlns:xlink="http://www.w3.org/1999/xlink" x="0px" y="0px"
	 viewBox="0 0 32.3 22" style="enable-background:new 0 0 32.3 22;" xml:space="preserve">
<style type="text/css">
	.st0{fill:#1A1A1A;}
	.st1{fill:#FFFFFF;}
</style>
<ellipse class="st0" cx="16" cy="11.2" rx="16" ry="10.5"/>
<path class="st1" d="M26.6,11.7L26.6,11.7C26.6,11.7,26.6,11.6,26.6,11.7c0.6-0.2,1-0.3,1.6-0.5c0.2-0.1,0.4-0.2,0.6-0.4
	c0.5-0.3,0.8-0.6,1.1-1.1c0.2-0.3,0.2-0.8,0-1c-0.3-0.4-0.7-0.6-1.1-0.6c-0.5,0-1,0.4-1.1,0.5c-0.3,0.2-0.6,0.4-0.8,0.6
	c-0.4,0.3-0.7,0.6-1,1c-0.4,0.5-0.7,0.9-0.8,1.6c0,0,0,0.1-0.1,0.1c-0.2,0.2-0.5,0.3-0.6,0.5c-0.4,0.3-0.9,0.5-1.4,0.6h-0.1
	c-0.1,0-0.1,0-0.2,0c0-0.1,0-0.1,0-0.2c0.2-0.6,0.4-1.1,0.7-1.5c0.4-0.4,0.7-0.7,1.1-1c0.4-0.3,0.7-0.4,1.2-0.4
	c0.2,0,0.3-0.1,0.2-0.3c-0.1-0.1-0.1-0.2-0.3-0.3c-0.2-0.1-0.4-0.2-0.6-0.3c-0.2-0.1-0.4-0.2-0.5-0.2c-0.3,0-0.6,0.1-0.7,0.2
	c-0.2,0.1-0.4,0.3-0.6,0.5c-0.2,0.2-0.5,0.5-0.6,0.6c-0.2,0.2-0.5,0.4-0.6,0.6c-0.3,0.5-0.6,0.9-0.6,1.5v0.1
	c-0.3,0.2-0.6,0.5-0.9,0.5l-0.1-0.1c0.1-0.3,0.2-0.6,0.4-0.7c0.1-0.3,0.3-0.6,0.4-0.8c0.2-0.4,0.4-0.6,0.5-1c0-0.1,0-0.2,0-0.3
	c-0.3-0.3-0.6-0.6-0.9-0.6c-0.1,0-0.3,0-0.4,0.1s-0.2,0.2-0.3,0.3c-0.3,0.2-0.6,0.4-0.9,0.6c-0.3,0.2-0.6,0.4-0.8,0.6h-0.1
	c0,0-0.1,0-0.2,0s-0.1-0.1-0.1-0.1v-0.1l0,0l0,0c0-0.1,0-0.2,0-0.3c0-0.2,0.1-0.4,0-0.5c0-0.1-0.2-0.3-0.3-0.4h-0.6c0,0,0,0,0,0.1
	c-0.1,0.2-0.2,0.4-0.3,0.6c-0.3,0.5-0.5,0.9-0.7,1.3c-0.1,0.2-0.3,0.4-0.5,0.6c-0.3,0.4-0.7,0.9-1,1.1c-0.1,0-0.3,0.1-0.5-0.1
	c0-0.1,0-0.2,0-0.3c0.3-0.6,0.7-1.6,1-2.1c0.1-0.2,0.5-0.8,0.5-0.9s-0.2-0.2-0.3-0.3c-0.1-0.1-0.3-0.1-0.4-0.2
	c-0.2-0.1-0.3-0.1-0.5-0.1c-0.2,0-0.3,0-0.3,0.3c0,0-0.4,0.6-0.5,0.6c0,0-0.1,0-0.1-0.1c-0.1-0.1-0.1-0.1-0.2-0.2
	c-0.4-0.1-0.6-0.2-1-0.3c-0.1,0-0.2,0-0.3,0.1c-0.3,0.2-0.6,0.5-0.9,0.6c-0.3,0.3-0.6,0.6-0.8,0.9c0.1,0.1,0,0.3-0.2,0.5
	c-0.2,0.2-0.5,0.7-0.5,0.7c-0.4,0-0.6,0.3-0.9,0.5c-0.2,0-0.4,0.1-0.6,0.2c-0.2,0-0.2,0-0.3-0.2C8,12.5,8,12.3,8.2,12
	c0.3-0.4,0.7-0.7,1-1c0.4-0.4,0.8-0.6,1.2-1.1c0.2-0.3,0.6-0.6,0.8-0.8c0.2-0.2,0.4-0.3,0.6-0.5C11.9,8.4,12,8.2,12.2,8
	c0.1-0.1,0.2-0.2,0.3-0.3c0.1-0.1,0.2-0.2,0.3-0.4C12.9,7.3,13,7.1,13,7c0.2-0.3,0.3-0.5,0.2-0.7V6.2c0.1-0.2,0-0.3-0.1-0.4
	c0-0.1-0.1-0.1-0.1-0.1c-0.2-0.2-0.3-0.4-0.5-0.5C12.2,5,11.9,5,11.6,4.9c-0.1,0-0.1,0.1-0.2,0.1s-0.1,0.1-0.1,0.1s-0.1,0-0.2,0.1
	c-0.3,0.3-0.6,0.5-0.7,0.7C9.6,6.7,9.1,7.6,8.5,8.5c0,0.1-0.1,0.3-0.2,0.4c-0.2,0.4-0.5,0.7-0.6,1C7.6,10,7.5,10,7.4,10
	C7.2,9.7,7,9.7,6.7,9.6C6.5,9.5,6.4,9.5,6.2,9.4c-0.4,0-0.7,0.1-1,0.2c-0.4,0.3-0.6,0.5-1,0.6c-0.5,0.5-0.8,0.9-1.2,1.4
	c-0.4,0.6-0.6,1-0.6,1.6c0,0.1-0.1,0.2-0.1,0.4c0,0.1,0,0.1,0,0.2c0,0.2,0.1,0.3,0.1,0.5c0,0,0,0.1,0.1,0.1c0.2,0.3,0.5,0.5,0.6,0.7
	c0.1,0.2,0.3,0.2,0.5,0.2c0.2,0,0.4,0,0.6-0.1c0.3-0.1,0.5-0.3,0.6-0.5C5,14.4,5.3,14,5.6,13.7c0.1-0.2,0.2-0.2,0.2-0.3
	C6,13.3,6.2,13,6.5,12.8c0.1-0.1,0.1-0.1,0.1,0.1c0,0.1,0.5,0.9,0.6,1.1c0.2,0.3,0.5,0.4,0.7,0.4c0.3,0,0.6-0.1,0.7-0.3
	c0.4-0.3,0.6-0.5,0.8-0.7c0.1-0.2,0.4-0.3,0.6-0.4c0,0,0.2,0,0.2,0.1c0.1,0,0.2,0.2,0.3,0.3c0.2,0.4,0.6,0.5,0.9,0.6h0.1
	c0.1,0,0.3,0,0.4-0.1c0.2-0.1,0.5-0.2,0.6-0.3c0.2-0.1,0.3-0.2,0.5-0.4c0.2-0.2,0.3-0.3,0.5-0.6c0.1-0.1,0.2-0.2,0.2,0
	c0,0.6,0.2,1,0.5,1.1c0.3,0.1,1.7,0,1.9,0c0.3,0,0.4-0.1,0.6-0.4l0.1-0.1c0.2-0.2,0.4-0.4,0.6-0.6c0.3-0.3,0.6-0.5,0.8-0.7
	c0.3-0.2,0.5-0.4,0.7-0.6c0.2-0.1,0.4-0.3,0.6-0.4h0.1v0.1c-0.1,0.4-0.2,0.6-0.3,1s-0.2,1.4,0.2,1.4c0.1,0,0.4,0.1,0.5,0.1
	c0.4-0.1,0.6-0.1,0.7-0.1c0.6-0.3,0.7-0.5,1.1-0.9h0.2c0.2,0.3,0.4,0.6,0.6,0.7c0.2,0.1,0.4,0.2,0.6,0.2c0.3,0,0.6-0.1,0.9-0.3
	c0.3-0.1,0.6-0.4,0.8-0.5c0.2-0.1,0.4-0.2,0.6-0.4c0.1-0.1,0.2-0.1,0.3,0.1c0.2,0.3,0.3,0.5,0.6,0.6c0.4,0.3,0.7,0.3,1.2,0.3
	c0.4,0,0.7-0.2,1.1-0.3c0.4-0.2,0.7-0.3,1-0.6c0.1-0.1,0.3-0.4,0.4-0.6c0,0,0-0.1,0-0.2h-0.1c-0.1,0-0.1,0-0.2,0l0.1-0.1v-0.1h-0.1
	c-0.1,0.1-0.3,0.1-0.4,0.2c-0.6,0.6-1.3,0.9-2.1,0.9h-0.2c-0.1,0-0.6-0.1-0.6-0.3c0-0.3,0-0.6,0.2-0.9
	C26.4,11.7,26.5,11.7,26.6,11.7z M26.9,10.9c0.3-0.4,0.6-0.8,0.9-1.2c0.2-0.2,0.5-0.5,0.7-0.6C28.7,9,28.8,9,28.9,9
	c0,0,0.1,0,0.1,0.1c-0.1,0.3-0.2,0.5-0.4,0.6c-0.5,0.6-1,1-1.8,1.3c-0.1,0-0.1,0-0.2,0C26.8,11,26.8,11,26.9,10.9z M9.7,9.4
	C9.7,9.3,9.7,9.3,9.7,9.4C9.8,9.2,9.9,9.1,10,9c0.1-0.1,0.2-0.2,0.3-0.4c0.2-0.4,0.5-0.6,0.6-1c0.3-0.4,0.6-0.7,0.9-1.1
	c0.1-0.1,0.2-0.2,0.3-0.4c0.1-0.1,0.2-0.2,0.3-0.4c0,0,0.1,0,0.1-0.1l0,0c0,0,0,0,0,0.1l0,0l0,0c0,0.3-0.1,0.6-0.2,0.7
	c0,0,0,0.1-0.1,0.1c-0.3,0.4-0.6,0.7-0.8,1.1c-0.1,0.2-0.2,0.3-0.3,0.4c-0.2,0.2-0.4,0.5-0.6,0.6C10.3,8.9,10,9.2,9.7,9.4
	C9.8,9.4,9.8,9.4,9.7,9.4L9.7,9.4C9.7,9.5,9.7,9.4,9.7,9.4z M6.8,11.1L6.8,11.1L6.8,11.1c0,0.3-0.3,0.5-0.4,0.6C6,12.1,5.1,13,5,13
	c-0.1,0-0.8,0.9-1.4,0.8l0,0l0,0c0-0.1,0-0.3,0.1-0.4C3.8,13.3,3.9,13,4,12.8c0,0,0-0.1,0.1-0.1c0-0.1,0.1-0.2,0.2-0.3l0.1-0.1
	c0.2-0.3,0.4-0.6,0.6-0.8c0.3-0.3,0.6-0.5,0.9-0.7c0.2-0.1,0.3-0.3,0.5-0.3c0.1,0,0.2,0,0.3,0c0.1,0,0.1,0.1,0.1,0.4
	C6.8,10.9,6.8,11,6.8,11.1L6.8,11.1z M13.8,10.8c-0.2,0.3-0.5,0.7-0.6,1c-0.3,0.4-0.6,0.8-1,1.1C11.9,13,11.9,13,11.7,13
	c-0.1,0-0.3,0-0.3-0.2c0-0.1,0-0.1,0-0.2c0.1-0.5,0.5-0.8,0.7-1.2c0.3-0.3,0.6-0.6,0.8-0.8c0.1-0.1,0.3-0.2,0.4-0.2
	c0.1,0,0.2,0,0.3,0s0.1,0,0.2,0.1C13.8,10.6,13.8,10.7,13.8,10.8z"/>
</svg>
