<?xml version="1.0" encoding="utf-8"?>
<!-- Generator: Adobe Illustrator 23.0.1, SVG Export Plug-In . SVG Version: 6.00 Build 0)  -->
<svg version="1.1" id="Warstwa_1" xmlns="http://www.w3.org/2000/svg" xmlns:xlink="http://www.w3.org/1999/xlink" x="0px" y="0px"
	 viewBox="0 0 36 11.5" style="enable-background:new 0 0 36 11.5;" xml:space="preserve">
<style type="text/css">
	.st0{fill:#434343;}
	.st1{fill:#9A9A9A;}
</style>
<g>
	<path class="st0" d="M22,9.1c-0.3,0-0.5-0.3-0.5-0.4c0-0.1,0-0.1,0.2-0.1c2.1-0.1,4.3-1.4,4.3-2.5c0-0.4-0.3-0.7-0.8-0.7
		c-0.3,0-0.7,0.1-1,0.3c-0.1,0.1-0.2,0.1-0.3,0.1c-0.2,0-0.3-0.1-0.3-0.3c0-0.1,0-0.2,0.1-0.4c0.3-0.6,0.6-1.4,0.9-2.1
		c0.1-0.3,0.4-0.4,0.7-0.5c1,0,1.7-0.1,2.9-0.4c0,0,0.1,0,0.1,0c0.1,0,0.1,0,0.1,0.1c0,0.2-0.3,0.6-0.6,0.7
		c-0.8,0.2-1.4,0.3-2.2,0.4l-0.6,1.5c0.3-0.1,0.7-0.2,1-0.2c1,0,1.3,0.6,1.3,1.3c0,1.3-1.7,2.6-4.2,3.1C22.7,9,22.2,9.1,22,9.1z"/>
	<path class="st0" d="M33,2.4c0.5,0.2,0.7,0.6,0.7,1.2c0,1.8-2,4.9-4.5,4.9c-0.9,0-1.5-0.6-1.5-1.6c0-2.3,2.7-4.7,4.9-4.7
		c0.2,0,0.3,0.1,0.3,0.2C33,2.3,33,2.4,33,2.4z M31.7,2.8C30.2,3.3,29,5.4,29,6.6c0,0.6,0.3,1,0.8,1c1.4,0,2.7-2.3,2.7-3.6
		c0-0.5-0.2-0.8-0.6-0.8c0,0-0.1,0-0.2,0c-0.2,0-0.2-0.1-0.2-0.2C31.6,3,31.6,2.9,31.7,2.8z"/>
</g>
<g>
	<path class="st0" d="M10.8,4.6c0.2-0.5,0.5-1,0.8-1.4C11.6,3,11.8,2.9,12,2.9c0.2,0,0.7,0.1,0.7,0.3c0,0.1-0.1,0.2-0.2,0.4
		l-0.5,0.9H13c0.1,0,0.2,0.1,0.2,0.1c0,0.2-0.3,0.6-0.5,0.6h-0.9c-0.3,0.6-0.6,1.4-0.7,1.8c1.1-0.4,2.4-1.3,3-1.8c0,0,0.1,0,0.1,0
		c0.1,0,0.2,0.2,0.2,0.4c0,0.2-0.1,0.3-0.2,0.4c-1.7,1.2-3.3,2.1-4.2,2.1c-0.3,0-0.5-0.2-0.5-0.6c0-0.4,0.4-1.2,0.8-2.2H9.5
		c-0.1,0-0.2-0.1-0.2-0.1c0-0.2,0.3-0.6,0.5-0.6H10.8z"/>
	<path class="st0" d="M15.8,6.3c-0.2-0.2-0.3-0.5-0.3-0.8c0-0.6,0.4-0.8,0.7-0.8c0.4,0,0.7,0.3,0.7,0.8c0,0.2,0,0.4-0.1,0.5
		c0.1,0,0.2,0,0.3,0c0.6,0,1.1-0.2,1.7-0.7c0.2-0.1,0.2-0.1,0.2-0.1c0.1,0,0.1,0.2,0.1,0.4c0,0.2,0,0.4-0.1,0.4
		c-0.5,0.4-1.2,0.8-2.1,0.8c-0.2,0-0.3,0-0.5-0.1c-0.5,0.8-1.4,1.4-2.3,1.4c-0.9,0-1.3-0.5-1.3-1.2c0-1.3,1.5-2.3,2.3-2.3
		c0.1,0,0.2,0.1,0.2,0.3c0,0.2-0.1,0.3-0.4,0.4c-0.4,0.2-0.9,0.7-0.9,1.2c0,0.3,0.2,0.6,0.5,0.6C15.2,7.2,15.5,6.8,15.8,6.3z"/>
	<path class="st0" d="M19.9,5.4C20.4,5,21,4.6,21.5,4.6c0.6,0,0.9,0.2,0.9,0.8c0,1.1-1.8,2.7-2.6,2.7c-0.4,0-0.5-0.2-0.5-0.4
		c0-0.3,0.5-0.5,1-0.5c0.5-0.4,0.8-0.9,0.8-1.2c0-0.2-0.1-0.4-0.3-0.4c-0.5,0-1.3,0.7-1.5,1.2l-0.5,0.9c-0.5,0.9-1.1,2.6-1.7,3.6
		c-0.1,0.1-0.1,0.1-0.2,0.1c-0.3,0-0.6-0.4-0.6-0.7c0-0.1,0-0.1,0-0.1c0.4-1.1,2.1-4.8,2.8-6.2c0.1-0.2,0.3-0.3,0.5-0.3
		c0.3,0,0.7,0.2,0.7,0.4c0,0,0,0.1,0,0.1C20.2,4.8,20.1,5.1,19.9,5.4z"/>
</g>
<path class="st1" d="M6.4,1.1H4.8C4.6,2.2,4,3.3,3.2,4.1c-0.8,0.8-1.9,1.4-3,1.5v1.6c1.6-0.2,3-0.9,4.2-2C5.5,4.1,6.2,2.6,6.4,1.1"
	/>
<path class="st1" d="M4.2,1.1H2.5C2.3,1.6,2,2.1,1.6,2.6C1.2,3,0.7,3.2,0.2,3.4V5c1-0.2,1.9-0.6,2.6-1.3C3.5,2.9,4,2,4.2,1.1"/>
<path class="st1" d="M1.9,1.1H0.2v1.7c0.4-0.1,0.7-0.3,1-0.6C1.5,1.8,1.7,1.5,1.9,1.1"/>
<path class="st1" d="M4.3,6C3.1,7,1.7,7.6,0.2,7.8v2.8h7.2L4.3,6z"/>
</svg>
