<?xml version="1.0" encoding="utf-8"?>
<!-- Generator: Adobe Illustrator 23.0.1, SVG Export Plug-In . SVG Version: 6.00 Build 0)  -->
<svg version="1.1" id="Warstwa_1" xmlns="http://www.w3.org/2000/svg" xmlns:xlink="http://www.w3.org/1999/xlink" x="0px" y="0px"
	 viewBox="0 0 30.5 11.5" style="enable-background:new 0 0 30.5 11.5;" xml:space="preserve">
<g>
	<path d="M2.6,4.1H1.2V3h4v1.2H3.8v4.7H2.6V4.1z"/>
	<path d="M8.6,2.9c1.7,0,3,1.3,3,3s-1.3,3-3,3s-3-1.3-3-3S6.8,2.9,8.6,2.9z M8.6,7.7c1,0,1.7-0.8,1.7-1.8c0-1-0.8-1.8-1.7-1.8
		c-1,0-1.7,0.8-1.7,1.8C6.8,6.9,7.6,7.7,8.6,7.7z"/>
	<path d="M12.5,3h2c1.1,0,1.9,0.7,1.9,1.8c0,1.2-0.8,1.9-1.9,1.9h-0.8v2.1h-1.2V3z M14.5,4.1h-0.8v1.3h0.8c0.4,0,0.7-0.2,0.7-0.7
		C15.1,4.4,14.8,4.1,14.5,4.1z"/>
</g>
<g>
	<path d="M19.5,3.2l-0.2,1.2c1.7,0,2.7,1,2.7,2.6c0,1.9-1.2,2.8-2.9,2.8c-0.7,0-1.5-0.2-2-0.5V7.3c0.5,0.5,1.1,0.8,1.9,0.8
		c0.7,0,1.2-0.5,1.2-1.1c0-0.9-0.8-1-1.6-1h-1.1L18,1.6h4v1.6H19.5z"/>
	<path d="M29.1,4.4v2.5c0,1.7-1.2,3-3,3s-3-1.2-3-3V4.4c0-1.7,1.3-3,3-3S29.1,2.7,29.1,4.4z M24.9,4.4v2.4c0,0.8,0.5,1.3,1.3,1.3
		c0.8,0,1.2-0.6,1.2-1.3V4.4c0-0.8-0.5-1.3-1.2-1.3C25.3,3.1,24.9,3.6,24.9,4.4z"/>
</g>
</svg>
