<?xml version="1.0" standalone="no"?>
<!DOCTYPE svg PUBLIC "-//W3C//DTD SVG 20010904//EN"
 "http://www.w3.org/TR/2001/REC-SVG-20010904/DTD/svg10.dtd">
<svg version="1.0" xmlns="http://www.w3.org/2000/svg"
 width="260.000000pt" height="260.000000pt" viewBox="0 0 260.000000 260.000000"
 preserveAspectRatio="xMidYMid meet">
<metadata>
Created by potrace 1.11, written by Peter Selinger 2001-2013
</metadata>
<g transform="translate(0.000000,260.000000) scale(0.100000,-0.100000)"
fill="#000000" stroke="none">
<path d="M390 2370 c0 -192 2 -230 14 -230 8 0 52 19 98 42 114 58 236 179
294 293 23 44 45 90 49 103 l6 22 -230 0 -231 0 0 -230z"/>
<path d="M1015 2588 c-56 -161 -95 -236 -169 -330 -91 -114 -250 -225 -388
-270 l-68 -22 0 -218 0 -218 24 0 c48 0 234 63 341 116 194 95 364 240 503
429 86 117 175 320 210 483 l10 42 -229 0 c-175 0 -231 -3 -234 -12z"/>
<path d="M1625 2523 c-74 -331 -260 -631 -525 -848 -179 -147 -476 -282 -675
-308 l-30 -4 -3 -217 -2 -218 49 6 c130 16 352 75 423 112 14 8 31 14 38 14
11 0 176 80 240 117 257 148 507 389 674 651 111 174 214 430 256 634 11 57
22 111 24 121 4 16 -12 17 -224 17 l-228 0 -17 -77z"/>
<path d="M1470 1209 c-53 -46 -245 -172 -330 -216 -205 -106 -484 -197 -675
-218 -33 -4 -63 -9 -67 -12 -5 -2 -8 -175 -8 -384 l0 -379 981 0 980 0 -164
242 c-90 134 -267 396 -392 583 -285 423 -279 414 -285 414 -3 0 -21 -13 -40
-30z"/>
</g>
</svg>
